<svg width="411" height="497" viewBox="0 0 411 497" fill="none" xmlns="http://www.w3.org/2000/svg">
<path d="M251 5H159.5C135.2 5 115.5 24.7 115.5 49V86.9H141.5V49C141.5 39.1 149.6 31 159.5 31H251C260.9 31 269 39.1 269 49V86.9H295V49C295 24.7 275.3 5 251 5Z" fill="#0B7C3E"/>
<path opacity="0.5" d="M142.4 52.7H115.7V65.7H142.4V52.7Z" fill="#049448"/>
<path opacity="0.5" d="M295 52.7H268.3V65.7H295V52.7Z" fill="#049448"/>
<path opacity="0.46" d="M251 5H159.5C135.2 5 115.5 24.7 115.5 49V58.3C115.5 34 135.2 14.3 159.5 14.3H251C275.3 14.3 295 34 295 58.3V49C295 24.7 275.3 5 251 5Z" fill="#70BF43"/>
<path d="M251 5H159.5C135.2 5 115.5 24.7 115.5 49V86.9H141.5V49C141.5 39.1 149.6 31 159.5 31H251C260.9 31 269 39.1 269 49V86.9H295V49C295 24.7 275.3 5 251 5Z" stroke="#013711" stroke-width="10" stroke-miterlimit="10" stroke-linecap="round" stroke-linejoin="round"/>
<path d="M69.7 444.9H44.3C24.3 444.9 7.6 429.4 6.3 409.5C2.7 354.7 8.50001 311.9 20.5 278.8C27 260.9 52.5 260.9 59 278.8C73.5 318.7 78.9 372.7 69.7 444.9Z" fill="#0B7C3E"/>
<path opacity="0.2" d="M61 278.8C55.9 264.6 38.8 261.7 28.7 270L31.6 386C32 402 24.8 416.4 13.3 425.8C19.9 437.3 32.3 445 46.4 445H71.8C80.9 372.7 75.5 318.7 61 278.8Z" fill="#0B7C3E"/>
<path d="M69.7 444.9H44.3C24.3 444.9 7.6 429.4 6.3 409.5C2.7 354.7 8.50001 311.9 20.5 278.8C27 260.9 52.5 260.9 59 278.8C73.5 318.7 78.9 372.7 69.7 444.9Z" stroke="#013711" stroke-width="10" stroke-miterlimit="10" stroke-linecap="round" stroke-linejoin="round"/>
<path d="M340.8 438H366.2C386.2 438 402.9 422.5 404.2 402.6C407.8 347.8 402 305 390 271.9C383.5 254 358 254 351.5 271.9C337 311.8 331.7 365.8 340.8 438Z" fill="#0B7C3E"/>
<path opacity="0.2" d="M379 377.9L381.8 263C371.7 254.7 354.6 257.6 349.5 271.8C335 311.8 329.7 365.8 338.8 438H364.2C378.6 438 391.3 430 397.7 418C386 408.6 378.6 394.1 379 377.9Z" fill="#0B7C3E"/>
<path d="M340.8 438H366.2C386.2 438 402.9 422.5 404.2 402.6C407.8 347.8 402 305 390 271.9C383.5 254 358 254 351.5 271.9C337 311.8 331.7 365.8 340.8 438Z" stroke="#013711" stroke-width="10" stroke-miterlimit="10" stroke-linecap="round" stroke-linejoin="round"/>
<path d="M314.5 492H96.1C72.1 492 52.1 473.7 49.9 449.8C42.5 369.9 42.5 289.4 49.9 209.5C52.1 185.6 72.1 167.3 96.1 167.3H314.5C338.5 167.3 358.5 185.6 360.7 209.5C368.1 289.4 368.1 369.9 360.7 449.8C358.4 473.7 338.5 492 314.5 492Z" fill="#049448"/>
<path opacity="0.29" d="M360.7 435.9C358.5 459.8 338.5 478.1 314.5 478.1H96.1C72.1 478.1 52.1 459.8 49.9 435.9C46.4 398.2 44.6 360.5 44.4 322.7C44.2 365.1 46 407.5 49.9 449.8C52.1 473.7 72.1 492 96.1 492H314.5C338.5 492 358.5 473.7 360.7 449.8C364.6 407.5 366.5 365.1 366.2 322.7C366 360.4 364.2 398.2 360.7 435.9Z" fill="#0B7C3E"/>
<path opacity="0.5" d="M205.3 415.3C223.36 415.3 238 406.301 238 395.2C238 384.099 223.36 375.1 205.3 375.1C187.24 375.1 172.6 384.099 172.6 395.2C172.6 406.301 187.24 415.3 205.3 415.3Z" stroke="#049448" stroke-width="8" stroke-miterlimit="10"/>
<path opacity="0.5" d="M78.7 333.6C120.7 335.8 163.2 336.9 205.3 336.9C247.3 336.9 289.9 335.8 331.9 333.6C344.8 332.9 356.6 328 366.3 320C365.9 284.1 364.1 248.3 360.8 212.5C358.6 188.6 338.6 170.3 314.6 170.3H96.1C72.1 170.3 52.1 188.6 49.9 212.5C46.6 248.3 44.7 284.1 44.4 320C54 328 65.8 332.9 78.7 333.6Z" fill="#049448"/>
<path d="M96.1 478.1C79.2 478.1 65.3 465.4 63.7 448.5C56.4 369.6 56.4 289.6 63.7 210.8C65.3 193.9 79.2 181.2 96.1 181.2H314.5C331.4 181.2 345.3 193.9 346.9 210.8C354.2 289.7 354.2 369.7 346.9 448.5C345.3 465.4 331.4 478.1 314.5 478.1H96.1Z" stroke="#013711" stroke-width="4" stroke-linecap="round" stroke-linejoin="round" stroke-dasharray="4.01 4.01"/>
<path d="M314.5 492H96.1C72.1 492 52.1 473.7 49.9 449.8C42.5 369.9 42.5 289.4 49.9 209.5C52.1 185.6 72.1 167.3 96.1 167.3H314.5C338.5 167.3 358.5 185.6 360.7 209.5C368.1 289.4 368.1 369.9 360.7 449.8C358.4 473.7 338.5 492 314.5 492Z" stroke="#013711" stroke-miterlimit="10"/>
<path d="M314.5 492H96.1C72.1 492 52.1 473.7 49.9 449.8C42.5 369.9 42.5 289.4 49.9 209.5C52.1 185.6 72.1 167.3 96.1 167.3H314.5C338.5 167.3 358.5 185.6 360.7 209.5C368.1 289.4 368.1 369.9 360.7 449.8C358.4 473.7 338.5 492 314.5 492Z" stroke="#013711" stroke-width="10" stroke-miterlimit="10" stroke-linecap="round" stroke-linejoin="round"/>
<path d="M331.3 320.6C247.3 324.9 163.2 324.9 79.2 320.6C50.2 319.1 28.1 291.7 28.4 258.3C28.8 212.4 30.5 167.4 33.5 123.2C35.6 92.1 58.4 67.3 86 65.9C165.5 62 245.1 62 324.6 65.9C352.2 67.2 375 92.1 377.1 123.2C380.1 167.4 381.8 212.3 382.2 258.3C382.4 291.7 360.3 319.1 331.3 320.6Z" fill="#70BF43"/>
<path opacity="0.41" d="M331.3 311.6C247.3 315.9 163.2 315.9 79.2 311.6C51.3 310.2 29.8 284.8 28.4 253.1C28.4 255.2 28.3 257.3 28.3 259.3C28 292.8 50.1 320.1 79.1 321.6C163.1 325.9 247.2 325.9 331.2 321.6C360.2 320.1 382.3 292.7 382 259.3C382 257.2 381.9 255.1 381.9 253.1C380.7 284.8 359.2 310.1 331.3 311.6Z" fill="#013711"/>
<path opacity="0.65" d="M35 266.6C35.4 221.1 37 176.6 39.9 132.9C41.9 102.1 63.9 77.5 90.4 76.2C166.9 72.4 243.5 72.4 320 76.2C346.5 77.5 368.5 102.1 370.5 132.9C373.4 176.7 375 221.2 375.4 266.6C375.5 278.3 372.9 289.3 368.2 298.6C376.9 287.5 382.1 272.6 382 256.3C381.6 210.4 379.9 165.4 376.9 121.2C374.8 90.1 352 65.3 324.4 63.9C244.9 60 165.3 60 85.8 63.9C58.2 65.2 35.4 90.1 33.3 121.2C30.3 165.4 28.6 210.3 28.2 256.3C28.1 272.6 33.3 287.5 42 298.6C37.5 289.2 34.9 278.3 35 266.6Z" fill="#70BF43"/>
<path opacity="0.41" d="M237.9 199.5C216 199.8 194.2 199.7 172.3 199.5C145.5 199.1 123.8 178.5 123.8 154.2C123.8 147.8 123.8 141.4 123.8 134.9C123.8 127.4 130.4 121.2 138.6 121C183 120 227.5 120 272 121C280.2 121.2 286.8 127.3 286.8 134.9V153.8C286.8 178.2 264.8 199.1 237.9 199.5Z" stroke="#013711" stroke-width="10" stroke-miterlimit="10" stroke-linecap="round" stroke-linejoin="round"/>
<path d="M331.3 320.6C247.3 324.9 163.2 324.9 79.2 320.6C50.2 319.1 28.1 291.7 28.4 258.3C28.8 212.4 30.5 167.4 33.5 123.2C35.6 92.1 58.4 67.3 86 65.9C165.5 62 245.1 62 324.6 65.9C352.2 67.2 375 92.1 377.1 123.2C380.1 167.4 381.8 212.3 382.2 258.3C382.4 291.7 360.3 319.1 331.3 320.6Z" stroke="#013711" stroke-width="10" stroke-miterlimit="10" stroke-linecap="round" stroke-linejoin="round"/>
<path d="M205.3 309.9C163.7 309.9 121.5 308.8 80 306.7C58.7 305.6 42.2 284.4 42.4 258.4C42.8 213.2 44.5 168 47.5 124.1C49.1 100.2 66.4 80.8 86.8 79.8C126.1 77.9 166.1 76.9 205.4 76.9C244.8 76.9 284.7 77.9 324 79.8C344.4 80.8 361.7 100.3 363.3 124.1C366.3 168 368 213.2 368.4 258.4C368.6 284.4 352.1 305.6 330.8 306.7C289 308.8 246.9 309.9 205.3 309.9Z" stroke="#013711" stroke-width="4" stroke-linecap="round" stroke-linejoin="round" stroke-dasharray="4 4"/>
<path d="M250.1 195.79C220.139 196.123 190.314 196.012 160.353 195.79C123.688 195.347 94 172.527 94 145.609C94 138.519 94 131.429 94 124.229C94 115.921 103.029 109.052 114.248 108.831C174.991 107.723 235.872 107.723 296.752 108.831C307.971 109.052 317 115.81 317 124.229V145.165C317 172.195 286.902 195.347 250.1 195.79Z" fill="#0BB68F"/>
<path opacity="0.43" d="M245.3 181.61C218.563 182.05 191.948 181.904 165.212 181.61C132.493 181.024 106 150.835 106 115.224C106 114.198 106 113.026 106 112C106 121.379 106 130.758 106 140.284C106 175.895 132.493 206.084 165.212 206.67C191.948 207.11 218.563 207.11 245.3 206.67C278.141 206.084 305 175.455 305 139.698V114.638C305 150.396 278.141 181.024 245.3 181.61Z" fill="#0BB68F"/>
<path opacity="0.7" d="M271.9 113C227.5 112 183 112 138.5 113C130.3 113.2 123.7 119.3 123.7 126.9C123.7 129.6 123.7 132.2 123.7 134.9C123.7 127.4 130.3 121.2 138.5 121C182.9 120 227.4 120 271.9 121C280.1 121.2 286.7 127.3 286.7 134.9V126.9C286.8 119.3 280.2 113.2 271.9 113Z" fill="#0BB68F"/>
<path d="M250.1 199.771C220.139 200.134 190.314 200.013 160.353 199.771C123.688 199.288 94 174.393 94 145.028C94 137.293 94 129.559 94 121.704C94 112.641 103.029 105.148 114.248 104.906C174.991 103.698 235.872 103.698 296.752 104.906C307.971 105.148 317 112.52 317 121.704V144.544C317 174.031 286.902 199.288 250.1 199.771Z" stroke="#013711" stroke-width="10" stroke-miterlimit="10" stroke-linecap="round" stroke-linejoin="round"/>
<path d="M255.6 212.712C222.28 213.169 189.112 213.016 155.791 212.712C115.016 212.102 82 180.725 82 143.712C82 133.963 82 124.215 82 114.315C82 102.891 92.0417 93.447 104.518 93.1424C172.071 91.6192 239.777 91.6192 307.482 93.1424C319.958 93.447 330 102.738 330 114.315V143.102C330 180.268 296.528 212.102 255.6 212.712Z" stroke="#013711" stroke-width="10" stroke-miterlimit="10" stroke-linecap="round" stroke-linejoin="round"/>
<g opacity="0.41">
<path opacity="0.41" d="M142.2 312.6H95.1C93.3 312.6 91.6 311.6 90.7 310L76.1 282.8C66.3 264.7 70.1 243.5 85.8 228.8L106.8 209.2C113.2 203.2 124 203.3 130.4 209.2L151.4 228.9C167.1 243.6 170.9 264.7 161.1 282.8L146.6 310C145.7 311.6 144 312.6 142.2 312.6ZM98.1 302.6H139.2L152.4 278.1C160 264.2 156.9 247.8 144.6 236.3L123.6 216.6C121.1 214.3 116.2 214.2 113.7 216.6L92.7 236.2C80.4 247.7 77.3 264.2 84.9 278.1L98.1 302.6Z" fill="#013711"/>
</g>
<g opacity="0.41">
<path opacity="0.41" d="M118.2 437.7C107.8 437.7 99.3 429.2 99.3 418.8V257.6C99.3 254.8 101.5 252.6 104.3 252.6H132.1C134.9 252.6 137.1 254.8 137.1 257.6V418.8C137.1 429.2 128.6 437.7 118.2 437.7ZM109.3 262.6V418.8C109.3 423.7 113.3 427.7 118.2 427.7C123.1 427.7 127.1 423.7 127.1 418.8V262.6H109.3Z" fill="#013711"/>
</g>
<path d="M97.3 300.6H140.1L153.4 274.7C161.3 259.5 158.2 241.6 145.4 229.1L126.3 210.3C122.3 206.3 115.1 206.3 111.1 210.3L92 228.9C79.3 241.4 76.2 259.5 84 274.7L97.3 300.6Z" fill="#049448"/>
<path d="M95.1 300.6H142.2L156.8 273.4C165.5 257.5 162 238.7 148 225.6L127 205.9C122.6 201.7 114.7 201.7 110.3 205.9L89.3 225.5C75.3 238.6 71.9 257.5 80.5 273.5L95.1 300.6Z" stroke="#013711" stroke-width="10" stroke-miterlimit="10" stroke-linecap="round" stroke-linejoin="round"/>
<path d="M102.6 290.6H101.1L100.4 289.3" stroke="#013711" stroke-width="3" stroke-linecap="round" stroke-linejoin="round"/>
<path d="M97.1 283.1L89.4 268.7C82.9 256.8 85.6 242.7 96.2 232.8L117.2 213.2C117.4 213 117.9 212.8 118.7 212.8C119.5 212.8 120.1 213.1 120.3 213.2L141.3 232.9C152 242.9 154.6 256.6 148.1 268.7L138.7 286.2" stroke="#013711" stroke-width="3" stroke-linecap="round" stroke-linejoin="round" stroke-dasharray="2.99 2.99"/>
<path d="M136.9 289.3L136.2 290.6H134.7" stroke="#013711" stroke-width="3" stroke-linecap="round" stroke-linejoin="round"/>
<path d="M128.6 290.6H105.7" stroke="#013711" stroke-width="3" stroke-linecap="round" stroke-linejoin="round" stroke-dasharray="2.6 2.6"/>
<path d="M118.3 426.5C110.6 426.5 104.4 420.3 104.4 412.6V251.4H132.2V412.6C132.3 420.3 126 426.5 118.3 426.5Z" fill="#F9941C"/>
<path opacity="0.37" d="M118.3 417.2C110.6 417.2 104.4 411 104.4 403.3V412.6C104.4 420.3 110.6 426.5 118.3 426.5C126 426.5 132.2 420.3 132.2 412.6V403.3C132.3 411 126 417.2 118.3 417.2Z" fill="#F9941C"/>
<path opacity="0.37" d="M132.2 334.5H104.4V357H132.2V334.5Z" fill="#F9941C"/>
<path d="M118.3 426.5C110.6 426.5 104.4 420.3 104.4 412.6V251.4H132.2V412.6C132.3 420.3 126 426.5 118.3 426.5Z" stroke="#013711" stroke-width="8" stroke-miterlimit="10" stroke-linecap="round" stroke-linejoin="round"/>
<path d="M104.4 355V334.5H132.2V355H143.8V328.5C143.8 325.4 141.3 322.9 138.2 322.9H98.4C95.3 322.9 92.8 325.4 92.8 328.5V355H104.4Z" fill="white"/>
<path d="M104.4 355V334.5H132.2V355H143.8V332.2C143.8 327.1 139.7 323 134.6 323H102.1C97 323 92.9 327.1 92.9 332.2V355H104.4Z" stroke="#013711" stroke-width="8" stroke-miterlimit="10" stroke-linecap="round" stroke-linejoin="round"/>
<path d="M122.9 262.4L113.7 271.6" stroke="#013711" stroke-width="4" stroke-miterlimit="10" stroke-linecap="round" stroke-linejoin="round"/>
<path d="M122.9 271.6L113.7 262.4" stroke="#013711" stroke-width="4" stroke-miterlimit="10" stroke-linecap="round" stroke-linejoin="round"/>
<path d="M118.2 359C120.741 359 122.8 356.941 122.8 354.4C122.8 351.86 120.741 349.8 118.2 349.8C115.66 349.8 113.6 351.86 113.6 354.4C113.6 356.941 115.66 359 118.2 359Z" fill="white"/>
<path d="M118.2 357C120.741 357 122.8 354.941 122.8 352.4C122.8 349.86 120.741 347.8 118.2 347.8C115.66 347.8 113.6 349.86 113.6 352.4C113.6 354.941 115.66 357 118.2 357Z" stroke="#013711" stroke-width="4" stroke-miterlimit="10" stroke-linecap="round" stroke-linejoin="round"/>
<path d="M118.2 375C120.741 375 122.8 372.941 122.8 370.4C122.8 367.86 120.741 365.8 118.2 365.8C115.66 365.8 113.6 367.86 113.6 370.4C113.6 372.941 115.66 375 118.2 375Z" fill="white"/>
<path d="M118.2 375C120.741 375 122.8 372.941 122.8 370.4C122.8 367.86 120.741 365.8 118.2 365.8C115.66 365.8 113.6 367.86 113.6 370.4C113.6 372.941 115.66 375 118.2 375Z" stroke="#013711" stroke-width="4" stroke-miterlimit="10" stroke-linecap="round" stroke-linejoin="round"/>
<path d="M118.2 395.3C120.741 395.3 122.8 393.241 122.8 390.7C122.8 388.16 120.741 386.1 118.2 386.1C115.66 386.1 113.6 388.16 113.6 390.7C113.6 393.241 115.66 395.3 118.2 395.3Z" fill="white"/>
<path d="M118.2 395.3C120.741 395.3 122.8 393.241 122.8 390.7C122.8 388.16 120.741 386.1 118.2 386.1C115.66 386.1 113.6 388.16 113.6 390.7C113.6 393.241 115.66 395.3 118.2 395.3Z" stroke="#013711" stroke-width="4" stroke-miterlimit="10" stroke-linecap="round" stroke-linejoin="round"/>
<path d="M118.2 355C116.3 355 114.8 353.5 114.8 351.6V322.2C114.8 320.3 116.3 318.8 118.2 318.8C120.1 318.8 121.6 320.3 121.6 322.2V351.6C121.6 353.5 120.1 355 118.2 355Z" fill="white"/>
<path d="M118.2 355C116.3 355 114.8 353.5 114.8 351.6V322.2C114.8 320.3 116.3 318.8 118.2 318.8C120.1 318.8 121.6 320.3 121.6 322.2V351.6C121.6 353.5 120.1 355 118.2 355Z" stroke="#013711" stroke-width="4" stroke-miterlimit="10" stroke-linecap="round" stroke-linejoin="round"/>
<g opacity="0.41">
<path opacity="0.41" d="M315.4 313.6H268.3C266.5 313.6 264.8 312.6 263.9 311L249.3 283.8C239.5 265.7 243.3 244.5 259 229.8L280 210.2C286.4 204.2 297.2 204.3 303.6 210.2L324.6 229.9C340.3 244.6 344.1 265.7 334.3 283.8L319.8 311C318.9 312.6 317.2 313.6 315.4 313.6ZM271.3 303.6H312.4L325.6 279.1C333.2 265.2 330.1 248.8 317.8 237.3L296.8 217.6C294.3 215.3 289.4 215.2 286.9 217.6L265.9 237.2C253.6 248.7 250.5 265.2 258.1 279.1L271.3 303.6Z" fill="#013711"/>
</g>
<path d="M270.4 300.6H313.2L326.5 274.7C334.4 259.5 331.3 241.6 318.5 229.1L299.4 210.3C295.4 206.3 288.2 206.3 284.2 210.3L265.1 229C252.4 241.5 249.3 259.6 257.1 274.8L270.4 300.6Z" fill="#049448"/>
<path d="M268.3 300.6H315.4L330 273.4C338.7 257.5 335.2 238.7 321.2 225.6L300.2 205.9C295.8 201.7 287.9 201.7 283.5 205.9L262.5 225.5C248.5 238.6 245.1 257.5 253.7 273.5L268.3 300.6Z" stroke="#013711" stroke-width="10" stroke-miterlimit="10" stroke-linecap="round" stroke-linejoin="round"/>
<path d="M275.8 290.6H274.3L273.6 289.3" stroke="#013711" stroke-width="3" stroke-linecap="round" stroke-linejoin="round"/>
<path d="M270.3 283.1L262.6 268.7C256.1 256.8 258.8 242.7 269.4 232.8L290.4 213.2C290.6 213 291.1 212.8 291.9 212.8C292.7 212.8 293.3 213.1 293.5 213.2L314.5 232.9C325.2 242.9 327.8 256.6 321.3 268.7L311.9 286.2" stroke="#013711" stroke-width="3" stroke-linecap="round" stroke-linejoin="round" stroke-dasharray="2.99 2.99"/>
<path d="M310.1 289.3L309.4 290.6H307.9" stroke="#013711" stroke-width="3" stroke-linecap="round" stroke-linejoin="round"/>
<path d="M301.8 290.6H278.8" stroke="#013711" stroke-width="3" stroke-linecap="round" stroke-linejoin="round" stroke-dasharray="2.6 2.6"/>
<g opacity="0.41">
<path opacity="0.41" d="M291.5 437.5C281.1 437.5 272.6 429 272.6 418.6V257.4C272.6 254.6 274.8 252.4 277.6 252.4H305.4C308.2 252.4 310.4 254.6 310.4 257.4V418.6C310.4 429 301.9 437.5 291.5 437.5ZM282.6 262.4V418.6C282.6 423.5 286.6 427.5 291.5 427.5C296.4 427.5 300.4 423.5 300.4 418.6V262.4H282.6Z" fill="#013711"/>
</g>
<path d="M291.5 426.5C283.8 426.5 277.6 420.3 277.6 412.6V251.4H305.4V412.6C305.4 420.3 299.2 426.5 291.5 426.5Z" fill="#F9941C"/>
<path opacity="0.37" d="M291.5 416.9C283.8 416.9 277.6 410.7 277.6 403V413.6C277.6 421.3 283.8 427.5 291.5 427.5C299.2 427.5 305.4 421.3 305.4 413.6V403C305.4 410.6 299.2 416.9 291.5 416.9Z" fill="#F9941C"/>
<path opacity="0.37" d="M305.3 334.5H277.5V357H305.3V334.5Z" fill="#F9941C"/>
<path d="M291.5 426.5C283.8 426.5 277.6 420.3 277.6 412.6V251.4H305.4V412.6C305.4 420.3 299.2 426.5 291.5 426.5Z" stroke="#013711" stroke-width="8" stroke-miterlimit="10" stroke-linecap="round" stroke-linejoin="round"/>
<path d="M277.6 355V334.5H305.4V355H317V328.5C317 325.4 314.5 322.9 311.4 322.9H271.6C268.5 322.9 266 325.4 266 328.5V355H277.6Z" fill="white"/>
<path d="M277.6 355V334.5H305.4V355H317V332.2C317 327.1 312.9 323 307.8 323H275.3C270.2 323 266.1 327.1 266.1 332.2V355H277.6Z" stroke="#013711" stroke-width="8" stroke-miterlimit="10" stroke-linecap="round" stroke-linejoin="round"/>
<path d="M296.1 262.4L286.9 271.6" stroke="#013711" stroke-width="4" stroke-miterlimit="10" stroke-linecap="round" stroke-linejoin="round"/>
<path d="M296.1 271.6L286.9 262.4" stroke="#013711" stroke-width="4" stroke-miterlimit="10" stroke-linecap="round" stroke-linejoin="round"/>
<path d="M291.4 359C293.941 359 296 356.941 296 354.4C296 351.86 293.941 349.8 291.4 349.8C288.86 349.8 286.8 351.86 286.8 354.4C286.8 356.941 288.86 359 291.4 359Z" fill="white"/>
<path d="M291.4 357C293.941 357 296 354.941 296 352.4C296 349.86 293.941 347.8 291.4 347.8C288.86 347.8 286.8 349.86 286.8 352.4C286.8 354.941 288.86 357 291.4 357Z" stroke="#013711" stroke-width="4" stroke-miterlimit="10" stroke-linecap="round" stroke-linejoin="round"/>
<path d="M291.4 375C293.941 375 296 372.941 296 370.4C296 367.86 293.941 365.8 291.4 365.8C288.86 365.8 286.8 367.86 286.8 370.4C286.8 372.941 288.86 375 291.4 375Z" fill="white"/>
<path d="M291.4 375C293.941 375 296 372.941 296 370.4C296 367.86 293.941 365.8 291.4 365.8C288.86 365.8 286.8 367.86 286.8 370.4C286.8 372.941 288.86 375 291.4 375Z" stroke="#013711" stroke-width="4" stroke-miterlimit="10" stroke-linecap="round" stroke-linejoin="round"/>
<path d="M291.4 395.3C293.941 395.3 296 393.241 296 390.7C296 388.16 293.941 386.1 291.4 386.1C288.86 386.1 286.8 388.16 286.8 390.7C286.8 393.241 288.86 395.3 291.4 395.3Z" fill="white"/>
<path d="M291.4 395.3C293.941 395.3 296 393.241 296 390.7C296 388.16 293.941 386.1 291.4 386.1C288.86 386.1 286.8 388.16 286.8 390.7C286.8 393.241 288.86 395.3 291.4 395.3Z" stroke="#013711" stroke-width="4" stroke-miterlimit="10" stroke-linecap="round" stroke-linejoin="round"/>
<path d="M291.4 355C289.5 355 288 353.5 288 351.6V322.2C288 320.3 289.5 318.8 291.4 318.8C293.3 318.8 294.8 320.3 294.8 322.2V351.6C294.8 353.5 293.3 355 291.4 355Z" fill="white"/>
<path d="M291.4 355C289.5 355 288 353.5 288 351.6V322.2C288 320.3 289.5 318.8 291.4 318.8C293.3 318.8 294.8 320.3 294.8 322.2V351.6C294.8 353.5 293.3 355 291.4 355Z" stroke="#013711" stroke-width="4" stroke-miterlimit="10" stroke-linecap="round" stroke-linejoin="round"/>
<path d="M205.3 410.3C223.36 410.3 238 401.301 238 390.2C238 379.099 223.36 370.1 205.3 370.1C187.24 370.1 172.6 379.099 172.6 390.2C172.6 401.301 187.24 410.3 205.3 410.3Z" fill="#FCCA86"/>
<path opacity="0.6" d="M205.3 375.8C221.8 375.8 235.5 383.3 237.7 393.1C237.9 392.2 238 391.2 238 390.3C238 379.2 223.3 370.2 205.3 370.2C187.3 370.2 172.6 379.2 172.6 390.3C172.6 391.3 172.7 392.2 172.9 393.1C175.1 383.3 188.7 375.8 205.3 375.8Z" fill="#FCCA86"/>
<path opacity="0.77" d="M205.3 401.3C190.8 401.3 178.3 396.5 172.6 389.7C172.6 389.9 172.6 390.1 172.6 390.2C172.6 401.3 187.3 410.3 205.3 410.3C223.3 410.3 238 401.3 238 390.2C238 390 238 389.8 238 389.7C232.2 396.6 219.8 401.3 205.3 401.3Z" fill="#FCCA86"/>
<path d="M205.3 410.3C223.36 410.3 238 401.301 238 390.2C238 379.099 223.36 370.1 205.3 370.1C187.24 370.1 172.6 379.099 172.6 390.2C172.6 401.301 187.24 410.3 205.3 410.3Z" stroke="#013711" stroke-width="6" stroke-miterlimit="10" stroke-linecap="round" stroke-linejoin="round"/>
<path d="M205.3 410.3C223.36 410.3 238 401.301 238 390.2C238 379.099 223.36 370.1 205.3 370.1C187.24 370.1 172.6 379.099 172.6 390.2C172.6 401.301 187.24 410.3 205.3 410.3Z" stroke="#013711" stroke-width="6" stroke-miterlimit="10" stroke-linecap="round" stroke-linejoin="round"/>
<path d="M227.1 386.4C228.3 387.7 229 389 229 390.2C229 393 225.3 396.6 219 399" stroke="#013711" stroke-width="3" stroke-miterlimit="10" stroke-linecap="round" stroke-linejoin="round"/>
<path d="M205.3 379.1C212.4 379.1 218.4 380.8 222.5 383" stroke="#013711" stroke-width="3" stroke-miterlimit="10" stroke-linecap="round" stroke-linejoin="round"/>
<path d="M131.487 139.32C131.487 140.867 131.127 142.333 130.407 143.72C129.714 145.107 128.567 146.24 126.967 147.12C125.367 147.973 123.247 148.4 120.607 148.4C119.221 148.4 118.047 148.333 117.087 148.2C116.154 148.093 115.301 147.907 114.527 147.64C113.754 147.373 112.901 147.027 111.967 146.6V139.72C113.514 140.493 115.061 141.093 116.607 141.52C118.154 141.92 119.487 142.12 120.607 142.12C121.194 142.12 121.687 142.027 122.087 141.84C122.487 141.653 122.781 141.4 122.967 141.08C123.181 140.76 123.287 140.4 123.287 140C123.287 139.493 123.167 139.067 122.927 138.72C122.687 138.373 122.234 138.013 121.567 137.64C120.901 137.267 119.927 136.813 118.647 136.28C117.447 135.773 116.421 135.253 115.567 134.72C114.741 134.187 114.074 133.587 113.567 132.92C113.061 132.253 112.687 131.48 112.447 130.6C112.207 129.693 112.087 128.627 112.087 127.4C112.087 125.56 112.541 124.027 113.447 122.8C114.381 121.547 115.647 120.613 117.247 120C118.847 119.36 120.687 119.04 122.767 119.04C124.741 119.04 126.461 119.253 127.927 119.68C129.421 120.08 130.634 120.547 131.567 121.08L129.127 127.04C128.061 126.48 126.927 126.04 125.727 125.72C124.527 125.373 123.461 125.2 122.527 125.2C121.967 125.2 121.514 125.28 121.167 125.44C120.821 125.6 120.567 125.827 120.407 126.12C120.247 126.387 120.167 126.693 120.167 127.04C120.167 127.493 120.314 127.893 120.607 128.24C120.927 128.587 121.474 128.973 122.247 129.4C123.047 129.8 124.154 130.347 125.567 131.04C126.847 131.627 127.927 132.28 128.807 133C129.687 133.72 130.354 134.587 130.807 135.6C131.261 136.587 131.487 137.827 131.487 139.32ZM144.714 125.48C146.794 125.48 148.594 125.853 150.114 126.6C151.634 127.347 152.794 128.467 153.594 129.96C154.42 131.453 154.834 133.333 154.834 135.6V139H142.274C142.327 140.147 142.687 141.093 143.354 141.84C144.047 142.587 145.087 142.96 146.474 142.96C147.78 142.96 148.967 142.827 150.034 142.56C151.127 142.293 152.247 141.867 153.394 141.28V146.76C152.407 147.32 151.287 147.733 150.034 148C148.807 148.267 147.22 148.4 145.274 148.4C143.167 148.4 141.274 148.013 139.594 147.24C137.914 146.44 136.58 145.2 135.594 143.52C134.607 141.84 134.114 139.693 134.114 137.08C134.114 134.413 134.554 132.227 135.434 130.52C136.34 128.813 137.58 127.547 139.154 126.72C140.754 125.893 142.607 125.48 144.714 125.48ZM145.074 130.68C144.354 130.68 143.754 130.96 143.274 131.52C142.794 132.08 142.514 132.973 142.434 134.2H147.634C147.634 133.533 147.527 132.947 147.314 132.44C147.1 131.907 146.807 131.48 146.434 131.16C146.06 130.84 145.607 130.68 145.074 130.68ZM184.703 125.48C187.103 125.48 188.943 126.12 190.223 127.4C191.529 128.68 192.183 130.747 192.183 133.6V148H184.143V135.96C184.143 134.28 183.943 133.12 183.543 132.48C183.169 131.813 182.636 131.48 181.943 131.48C180.956 131.48 180.289 132.027 179.943 133.12C179.596 134.187 179.423 135.707 179.423 137.68V148H171.343V135.96C171.343 134.893 171.263 134.04 171.103 133.4C170.969 132.733 170.743 132.253 170.423 131.96C170.129 131.64 169.756 131.48 169.303 131.48C168.609 131.48 168.063 131.747 167.663 132.28C167.289 132.813 167.036 133.587 166.903 134.6C166.769 135.613 166.703 136.853 166.703 138.32V148H158.623V125.88H164.663L165.903 128.6H166.023C166.369 127.987 166.809 127.453 167.343 127C167.903 126.52 168.596 126.147 169.423 125.88C170.249 125.613 171.249 125.48 172.423 125.48C173.943 125.48 175.183 125.76 176.143 126.32C177.129 126.853 177.943 127.6 178.583 128.56H178.663C179.356 127.573 180.196 126.813 181.183 126.28C182.169 125.747 183.343 125.48 184.703 125.48ZM206.472 125.48C208.552 125.48 210.352 125.853 211.872 126.6C213.392 127.347 214.552 128.467 215.352 129.96C216.178 131.453 216.592 133.333 216.592 135.6V139H204.032C204.085 140.147 204.445 141.093 205.112 141.84C205.805 142.587 206.845 142.96 208.232 142.96C209.538 142.96 210.725 142.827 211.792 142.56C212.885 142.293 214.005 141.867 215.152 141.28V146.76C214.165 147.32 213.045 147.733 211.792 148C210.565 148.267 208.978 148.4 207.032 148.4C204.925 148.4 203.032 148.013 201.352 147.24C199.672 146.44 198.338 145.2 197.352 143.52C196.365 141.84 195.872 139.693 195.872 137.08C195.872 134.413 196.312 132.227 197.192 130.52C198.098 128.813 199.338 127.547 200.912 126.72C202.512 125.893 204.365 125.48 206.472 125.48ZM206.832 130.68C206.112 130.68 205.512 130.96 205.032 131.52C204.552 132.08 204.272 132.973 204.192 134.2H209.392C209.392 133.533 209.285 132.947 209.072 132.44C208.858 131.907 208.565 131.48 208.192 131.16C207.818 130.84 207.365 130.68 206.832 130.68ZM236.461 141.2C236.461 142.587 236.181 143.827 235.621 144.92C235.087 146.013 234.181 146.867 232.901 147.48C231.621 148.093 229.874 148.4 227.661 148.4C226.141 148.4 224.754 148.307 223.501 148.12C222.274 147.96 221.007 147.64 219.701 147.16V141.04C221.141 141.68 222.554 142.147 223.941 142.44C225.354 142.707 226.394 142.84 227.061 142.84C227.727 142.84 228.207 142.747 228.501 142.56C228.821 142.373 228.981 142.093 228.981 141.72C228.981 141.4 228.834 141.12 228.541 140.88C228.247 140.64 227.781 140.373 227.141 140.08C226.501 139.787 225.634 139.387 224.541 138.88C223.474 138.373 222.581 137.827 221.861 137.24C221.141 136.627 220.594 135.907 220.221 135.08C219.847 134.227 219.661 133.2 219.661 132C219.661 129.84 220.474 128.213 222.101 127.12C223.727 126.027 225.861 125.48 228.501 125.48C229.914 125.48 231.234 125.64 232.461 125.96C233.714 126.28 235.007 126.747 236.341 127.36L234.261 132.28C233.567 131.933 232.834 131.64 232.061 131.4C231.314 131.16 230.621 130.973 229.981 130.84C229.367 130.707 228.901 130.64 228.581 130.64C228.154 130.64 227.821 130.72 227.581 130.88C227.341 131.04 227.221 131.267 227.221 131.56C227.221 131.827 227.327 132.067 227.541 132.28C227.754 132.493 228.154 132.747 228.741 133.04C229.354 133.307 230.221 133.68 231.341 134.16C232.567 134.667 233.554 135.227 234.301 135.84C235.047 136.427 235.594 137.147 235.941 138C236.287 138.827 236.461 139.893 236.461 141.2ZM251.303 142.36C251.97 142.36 252.557 142.293 253.063 142.16C253.57 142 254.117 141.813 254.703 141.6V147.16C253.823 147.507 252.943 147.8 252.063 148.04C251.21 148.28 250.023 148.4 248.503 148.4C247.09 148.4 245.85 148.173 244.783 147.72C243.743 147.267 242.93 146.493 242.343 145.4C241.783 144.28 241.503 142.72 241.503 140.72V131.6H239.063V128.48L242.303 126.08L244.303 121.44H249.623V125.88H254.383V131.6H249.623V140.2C249.623 140.92 249.757 141.467 250.023 141.84C250.317 142.187 250.743 142.36 251.303 142.36ZM267.995 125.48C270.075 125.48 271.875 125.853 273.395 126.6C274.915 127.347 276.075 128.467 276.875 129.96C277.702 131.453 278.115 133.333 278.115 135.6V139H265.555C265.608 140.147 265.968 141.093 266.635 141.84C267.328 142.587 268.368 142.96 269.755 142.96C271.062 142.96 272.248 142.827 273.315 142.56C274.408 142.293 275.528 141.867 276.675 141.28V146.76C275.688 147.32 274.568 147.733 273.315 148C272.088 148.267 270.502 148.4 268.555 148.4C266.448 148.4 264.555 148.013 262.875 147.24C261.195 146.44 259.862 145.2 258.875 143.52C257.888 141.84 257.395 139.693 257.395 137.08C257.395 134.413 257.835 132.227 258.715 130.52C259.622 128.813 260.862 127.547 262.435 126.72C264.035 125.893 265.888 125.48 267.995 125.48ZM268.355 130.68C267.635 130.68 267.035 130.96 266.555 131.52C266.075 132.08 265.795 132.973 265.715 134.2H270.915C270.915 133.533 270.808 132.947 270.595 132.44C270.382 131.907 270.088 131.48 269.715 131.16C269.342 130.84 268.888 130.68 268.355 130.68ZM295.064 125.48C295.517 125.48 295.971 125.507 296.424 125.56C296.904 125.613 297.237 125.667 297.424 125.72L296.664 132.92C296.397 132.867 296.064 132.813 295.664 132.76C295.291 132.707 294.664 132.68 293.784 132.68C293.491 132.68 293.131 132.733 292.704 132.84C292.277 132.92 291.851 133.107 291.424 133.4C291.024 133.693 290.677 134.133 290.384 134.72C290.117 135.307 289.984 136.107 289.984 137.12V148H281.904V125.88H287.864L289.144 129.4H289.544C289.917 128.68 290.397 128.027 290.984 127.44C291.571 126.827 292.211 126.347 292.904 126C293.624 125.653 294.344 125.48 295.064 125.48ZM213.648 185H193.768V179.92L200.208 172.88C201.568 171.387 202.608 170.187 203.328 169.28C204.048 168.347 204.528 167.56 204.768 166.92C205.034 166.28 205.168 165.613 205.168 164.92C205.168 164.067 204.928 163.453 204.448 163.08C203.994 162.707 203.501 162.52 202.968 162.52C202.221 162.52 201.448 162.773 200.648 163.28C199.848 163.787 198.901 164.547 197.808 165.56L193.328 160.6C194.154 159.827 195.034 159.093 195.968 158.4C196.901 157.707 198.008 157.147 199.288 156.72C200.594 156.267 202.181 156.04 204.048 156.04C205.914 156.04 207.528 156.387 208.888 157.08C210.274 157.747 211.341 158.667 212.088 159.84C212.861 161.013 213.248 162.347 213.248 163.84C213.248 165.067 213.061 166.173 212.688 167.16C212.341 168.147 211.821 169.107 211.128 170.04C210.461 170.973 209.661 171.973 208.728 173.04C207.821 174.107 206.808 175.347 205.688 176.76L204.368 178.44L204.328 178.64H213.648V185Z" fill="white"/>
</svg>
