<svg xmlns="http://www.w3.org/2000/svg" xmlns:xlink="http://www.w3.org/1999/xlink" width="312" height="472.7" viewBox="0 0 312 472.7">
  <defs>
    <clipPath id="clip-path">
      <path id="Path_87" data-name="Path 87" d="M664,679H388V283H664a17.8,17.8,0,0,1,18,17.7v360A18.247,18.247,0,0,1,664,679Z"/>
    </clipPath>
  </defs>
  <g id="Group_113" data-name="Group 113" transform="translate(-384 -271)">
    <path id="XMLID_38_" d="M674,694H398V298H674a17.8,17.8,0,0,1,18,17.7v360A18.247,18.247,0,0,1,674,694Z" fill="rgba(0,0,0,0.3)" stroke="rgba(0,0,0,0.08)" stroke-linecap="round" stroke-linejoin="round" stroke-miterlimit="10" stroke-width="8"/>
    <path id="XMLID_36_" d="M635,702H621a4.951,4.951,0,0,1-5-5V295a4.951,4.951,0,0,1,5-5h14a4.951,4.951,0,0,1,5,5V697A4.951,4.951,0,0,1,635,702Z" fill="none"/>
    <path id="XMLID_34_" d="M459,739.7,429,723V694h30Z" fill="rgba(0,0,0,0.3)" stroke="rgba(0,0,0,0.08)" stroke-linecap="round" stroke-linejoin="round" stroke-miterlimit="10" stroke-width="8"/>
    <path id="XMLID_19_" d="M664,679H388V283H664a17.8,17.8,0,0,1,18,17.7v360A18.247,18.247,0,0,1,664,679Z" fill="#4c5b60"/>
    <rect id="XMLID_54_" width="24" height="396" transform="translate(617 283)" fill="#3e4b4f"/>
    <rect id="XMLID_50_" width="17" height="396" transform="translate(388 283)" fill="#ccdde5" opacity="0.3"/>
    <g id="Group_111" data-name="Group 111">
      <g id="XMLID_57_" opacity="0.11" clip-path="url(#clip-path)">
        <g id="Group_16" data-name="Group 16">
          <g id="Group_15" data-name="Group 15">
            <path id="Path_39" data-name="Path 39" d="M359.4,983.6a1.5,1.5,0,0,1-1.1-.4,1.45,1.45,0,0,1,0-2.1L702.7,636.8a1.485,1.485,0,0,1,2.1,2.1L360.5,983.2A1.5,1.5,0,0,1,359.4,983.6Z" fill="#102d3b"/>
          </g>
        </g>
        <g id="Group_18" data-name="Group 18">
          <g id="Group_17" data-name="Group 17">
            <path id="Path_40" data-name="Path 40" d="M359.4,969.6a1.5,1.5,0,0,1-1.1-.4,1.45,1.45,0,0,1,0-2.1L702.7,622.8a1.485,1.485,0,0,1,2.1,2.1L360.5,969.2A1.5,1.5,0,0,1,359.4,969.6Z" fill="#102d3b"/>
          </g>
        </g>
        <g id="Group_20" data-name="Group 20">
          <g id="Group_19" data-name="Group 19">
            <path id="Path_41" data-name="Path 41" d="M359.4,955.6a1.5,1.5,0,0,1-1.1-.4,1.45,1.45,0,0,1,0-2.1L702.7,608.8a1.485,1.485,0,0,1,2.1,2.1L360.5,955.2A1.5,1.5,0,0,1,359.4,955.6Z" fill="#102d3b"/>
          </g>
        </g>
        <g id="Group_22" data-name="Group 22">
          <g id="Group_21" data-name="Group 21">
            <path id="Path_42" data-name="Path 42" d="M359.4,941.6a1.5,1.5,0,0,1-1.1-.4,1.45,1.45,0,0,1,0-2.1L702.7,594.8a1.485,1.485,0,0,1,2.1,2.1L360.5,941.2A1.5,1.5,0,0,1,359.4,941.6Z" fill="#102d3b"/>
          </g>
        </g>
        <g id="Group_24" data-name="Group 24">
          <g id="Group_23" data-name="Group 23">
            <path id="Path_43" data-name="Path 43" d="M359.4,927.6a1.5,1.5,0,0,1-1.1-.4,1.45,1.45,0,0,1,0-2.1L702.7,580.8a1.485,1.485,0,0,1,2.1,2.1L360.5,927.2A1.5,1.5,0,0,1,359.4,927.6Z" fill="#102d3b"/>
          </g>
        </g>
        <g id="Group_26" data-name="Group 26">
          <g id="Group_25" data-name="Group 25">
            <path id="Path_44" data-name="Path 44" d="M359.4,913.6a1.5,1.5,0,0,1-1.1-.4,1.45,1.45,0,0,1,0-2.1L702.7,566.8a1.485,1.485,0,0,1,2.1,2.1L360.5,913.2A1.5,1.5,0,0,1,359.4,913.6Z" fill="#102d3b"/>
          </g>
        </g>
        <g id="Group_28" data-name="Group 28">
          <g id="Group_27" data-name="Group 27">
            <path id="Path_45" data-name="Path 45" d="M359.4,899.6a1.5,1.5,0,0,1-1.1-.4,1.45,1.45,0,0,1,0-2.1L702.7,552.8a1.485,1.485,0,0,1,2.1,2.1L360.5,899.2A1.5,1.5,0,0,1,359.4,899.6Z" fill="#102d3b"/>
          </g>
        </g>
        <g id="Group_30" data-name="Group 30">
          <g id="Group_29" data-name="Group 29">
            <path id="Path_46" data-name="Path 46" d="M359.4,885.6a1.5,1.5,0,0,1-1.1-.4,1.45,1.45,0,0,1,0-2.1L702.7,538.8a1.485,1.485,0,0,1,2.1,2.1L360.5,885.2A1.5,1.5,0,0,1,359.4,885.6Z" fill="#102d3b"/>
          </g>
        </g>
        <g id="Group_32" data-name="Group 32">
          <g id="Group_31" data-name="Group 31">
            <path id="Path_47" data-name="Path 47" d="M359.4,871.6a1.5,1.5,0,0,1-1.1-.4,1.45,1.45,0,0,1,0-2.1L702.7,524.8a1.485,1.485,0,0,1,2.1,2.1L360.5,871.2A1.5,1.5,0,0,1,359.4,871.6Z" fill="#102d3b"/>
          </g>
        </g>
        <g id="Group_34" data-name="Group 34">
          <g id="Group_33" data-name="Group 33">
            <path id="Path_48" data-name="Path 48" d="M359.4,857.6a1.5,1.5,0,0,1-1.1-.4,1.45,1.45,0,0,1,0-2.1L702.7,510.8a1.485,1.485,0,1,1,2.1,2.1L360.5,857.2A1.5,1.5,0,0,1,359.4,857.6Z" fill="#102d3b"/>
          </g>
        </g>
        <g id="Group_36" data-name="Group 36">
          <g id="Group_35" data-name="Group 35">
            <path id="Path_49" data-name="Path 49" d="M359.4,843.6a1.5,1.5,0,0,1-1.1-.4,1.45,1.45,0,0,1,0-2.1L702.7,496.8a1.485,1.485,0,1,1,2.1,2.1L360.5,843.2A1.5,1.5,0,0,1,359.4,843.6Z" fill="#102d3b"/>
          </g>
        </g>
        <g id="Group_38" data-name="Group 38">
          <g id="Group_37" data-name="Group 37">
            <path id="Path_50" data-name="Path 50" d="M359.4,829.6a1.5,1.5,0,0,1-1.1-.4,1.45,1.45,0,0,1,0-2.1L702.7,482.8a1.485,1.485,0,1,1,2.1,2.1L360.5,829.2A1.5,1.5,0,0,1,359.4,829.6Z" fill="#102d3b"/>
          </g>
        </g>
        <g id="Group_40" data-name="Group 40">
          <g id="Group_39" data-name="Group 39">
            <path id="Path_51" data-name="Path 51" d="M359.4,815.6a1.5,1.5,0,0,1-1.1-.4,1.45,1.45,0,0,1,0-2.1L702.7,468.8a1.485,1.485,0,1,1,2.1,2.1L360.5,815.2A1.5,1.5,0,0,1,359.4,815.6Z" fill="#102d3b"/>
          </g>
        </g>
        <g id="Group_42" data-name="Group 42">
          <g id="Group_41" data-name="Group 41">
            <path id="Path_52" data-name="Path 52" d="M359.4,801.6a1.5,1.5,0,0,1-1.1-.4,1.45,1.45,0,0,1,0-2.1L702.7,454.8a1.485,1.485,0,1,1,2.1,2.1L360.5,801.2A1.5,1.5,0,0,1,359.4,801.6Z" fill="#102d3b"/>
          </g>
        </g>
        <g id="Group_44" data-name="Group 44">
          <g id="Group_43" data-name="Group 43">
            <path id="Path_53" data-name="Path 53" d="M359.4,787.6a1.5,1.5,0,0,1-1.1-.4,1.45,1.45,0,0,1,0-2.1L702.7,440.8a1.485,1.485,0,1,1,2.1,2.1L360.5,787.2A1.5,1.5,0,0,1,359.4,787.6Z" fill="#102d3b"/>
          </g>
        </g>
        <g id="Group_46" data-name="Group 46">
          <g id="Group_45" data-name="Group 45">
            <path id="Path_54" data-name="Path 54" d="M359.4,773.6a1.5,1.5,0,0,1-1.1-.4,1.45,1.45,0,0,1,0-2.1L702.7,426.8a1.485,1.485,0,1,1,2.1,2.1L360.5,773.2A1.5,1.5,0,0,1,359.4,773.6Z" fill="#102d3b"/>
          </g>
        </g>
        <g id="Group_48" data-name="Group 48">
          <g id="Group_47" data-name="Group 47">
            <path id="Path_55" data-name="Path 55" d="M359.4,759.6a1.5,1.5,0,0,1-1.1-.4,1.45,1.45,0,0,1,0-2.1L702.7,412.8a1.485,1.485,0,1,1,2.1,2.1L360.5,759.2A1.5,1.5,0,0,1,359.4,759.6Z" fill="#102d3b"/>
          </g>
        </g>
        <g id="Group_50" data-name="Group 50">
          <g id="Group_49" data-name="Group 49">
            <path id="Path_56" data-name="Path 56" d="M359.4,745.6a1.5,1.5,0,0,1-1.1-.4,1.45,1.45,0,0,1,0-2.1L702.7,398.8a1.485,1.485,0,1,1,2.1,2.1L360.5,745.2A1.5,1.5,0,0,1,359.4,745.6Z" fill="#102d3b"/>
          </g>
        </g>
        <g id="Group_52" data-name="Group 52">
          <g id="Group_51" data-name="Group 51">
            <path id="Path_57" data-name="Path 57" d="M359.4,731.6a1.5,1.5,0,0,1-1.1-.4,1.45,1.45,0,0,1,0-2.1L702.7,384.8a1.485,1.485,0,1,1,2.1,2.1L360.5,731.2A1.5,1.5,0,0,1,359.4,731.6Z" fill="#102d3b"/>
          </g>
        </g>
        <g id="Group_54" data-name="Group 54">
          <g id="Group_53" data-name="Group 53">
            <path id="Path_58" data-name="Path 58" d="M359.4,717.6a1.5,1.5,0,0,1-1.1-.4,1.45,1.45,0,0,1,0-2.1L702.7,370.8a1.485,1.485,0,1,1,2.1,2.1L360.5,717.2A1.5,1.5,0,0,1,359.4,717.6Z" fill="#102d3b"/>
          </g>
        </g>
        <g id="Group_56" data-name="Group 56">
          <g id="Group_55" data-name="Group 55">
            <path id="Path_59" data-name="Path 59" d="M359.4,703.6a1.5,1.5,0,0,1-1.1-.4,1.45,1.45,0,0,1,0-2.1L702.7,356.8a1.485,1.485,0,1,1,2.1,2.1L360.5,703.2A1.5,1.5,0,0,1,359.4,703.6Z" fill="#102d3b"/>
          </g>
        </g>
        <g id="Group_58" data-name="Group 58">
          <g id="Group_57" data-name="Group 57">
            <path id="Path_60" data-name="Path 60" d="M359.4,689.6a1.5,1.5,0,0,1-1.1-.4,1.45,1.45,0,0,1,0-2.1L702.7,342.8a1.485,1.485,0,1,1,2.1,2.1L360.5,689.2A1.5,1.5,0,0,1,359.4,689.6Z" fill="#102d3b"/>
          </g>
        </g>
        <g id="Group_60" data-name="Group 60">
          <g id="Group_59" data-name="Group 59">
            <path id="Path_61" data-name="Path 61" d="M359.4,675.6a1.5,1.5,0,0,1-1.1-.4,1.45,1.45,0,0,1,0-2.1L702.7,328.8a1.485,1.485,0,1,1,2.1,2.1L360.5,675.2A1.5,1.5,0,0,1,359.4,675.6Z" fill="#102d3b"/>
          </g>
        </g>
        <g id="Group_62" data-name="Group 62">
          <g id="Group_61" data-name="Group 61">
            <path id="Path_62" data-name="Path 62" d="M359.4,661.6a1.5,1.5,0,0,1-1.1-.4,1.45,1.45,0,0,1,0-2.1L702.7,314.8a1.485,1.485,0,1,1,2.1,2.1L360.5,661.2A1.5,1.5,0,0,1,359.4,661.6Z" fill="#102d3b"/>
          </g>
        </g>
        <g id="Group_64" data-name="Group 64">
          <g id="Group_63" data-name="Group 63">
            <path id="Path_63" data-name="Path 63" d="M359.4,647.6a1.5,1.5,0,0,1-1.1-.4,1.45,1.45,0,0,1,0-2.1L702.7,300.8a1.485,1.485,0,1,1,2.1,2.1L360.5,647.2A1.5,1.5,0,0,1,359.4,647.6Z" fill="#102d3b"/>
          </g>
        </g>
        <g id="Group_66" data-name="Group 66">
          <g id="Group_65" data-name="Group 65">
            <path id="Path_64" data-name="Path 64" d="M359.4,633.6a1.5,1.5,0,0,1-1.1-.4,1.45,1.45,0,0,1,0-2.1L702.7,286.8a1.485,1.485,0,1,1,2.1,2.1L360.5,633.2A1.5,1.5,0,0,1,359.4,633.6Z" fill="#102d3b"/>
          </g>
        </g>
        <g id="Group_68" data-name="Group 68">
          <g id="Group_67" data-name="Group 67">
            <path id="Path_65" data-name="Path 65" d="M359.4,619.6a1.5,1.5,0,0,1-1.1-.4,1.45,1.45,0,0,1,0-2.1L702.7,272.8a1.485,1.485,0,1,1,2.1,2.1L360.5,619.2A1.5,1.5,0,0,1,359.4,619.6Z" fill="#102d3b"/>
          </g>
        </g>
        <g id="Group_70" data-name="Group 70">
          <g id="Group_69" data-name="Group 69">
            <path id="Path_66" data-name="Path 66" d="M359.4,605.6a1.5,1.5,0,0,1-1.1-.4,1.45,1.45,0,0,1,0-2.1L702.7,258.8a1.485,1.485,0,1,1,2.1,2.1L360.5,605.2A1.5,1.5,0,0,1,359.4,605.6Z" fill="#102d3b"/>
          </g>
        </g>
        <g id="Group_72" data-name="Group 72">
          <g id="Group_71" data-name="Group 71">
            <path id="Path_67" data-name="Path 67" d="M359.4,591.6a1.5,1.5,0,0,1-1.1-.4,1.45,1.45,0,0,1,0-2.1L702.7,244.8a1.485,1.485,0,0,1,2.1,2.1L360.5,591.2A1.5,1.5,0,0,1,359.4,591.6Z" fill="#102d3b"/>
          </g>
        </g>
        <g id="Group_74" data-name="Group 74">
          <g id="Group_73" data-name="Group 73">
            <path id="Path_68" data-name="Path 68" d="M359.4,577.6a1.5,1.5,0,0,1-1.1-.4,1.45,1.45,0,0,1,0-2.1L702.7,230.8a1.485,1.485,0,0,1,2.1,2.1L360.5,577.2A1.5,1.5,0,0,1,359.4,577.6Z" fill="#102d3b"/>
          </g>
        </g>
        <g id="Group_76" data-name="Group 76">
          <g id="Group_75" data-name="Group 75">
            <path id="Path_69" data-name="Path 69" d="M359.4,563.6a1.5,1.5,0,0,1-1.1-.4,1.45,1.45,0,0,1,0-2.1L702.7,216.8a1.485,1.485,0,0,1,2.1,2.1L360.5,563.2A1.5,1.5,0,0,1,359.4,563.6Z" fill="#102d3b"/>
          </g>
        </g>
        <g id="Group_78" data-name="Group 78">
          <g id="Group_77" data-name="Group 77">
            <path id="Path_70" data-name="Path 70" d="M359.4,549.6a1.5,1.5,0,0,1-1.1-.4,1.45,1.45,0,0,1,0-2.1L702.7,202.8a1.485,1.485,0,0,1,2.1,2.1L360.5,549.2A1.5,1.5,0,0,1,359.4,549.6Z" fill="#102d3b"/>
          </g>
        </g>
        <g id="Group_80" data-name="Group 80">
          <g id="Group_79" data-name="Group 79">
            <path id="Path_71" data-name="Path 71" d="M359.4,535.6a1.5,1.5,0,0,1-1.1-.4,1.45,1.45,0,0,1,0-2.1L702.7,188.8a1.485,1.485,0,0,1,2.1,2.1L360.5,535.2A1.5,1.5,0,0,1,359.4,535.6Z" fill="#102d3b"/>
          </g>
        </g>
        <g id="Group_82" data-name="Group 82">
          <g id="Group_81" data-name="Group 81">
            <path id="Path_72" data-name="Path 72" d="M359.4,521.6a1.5,1.5,0,0,1-1.1-.4,1.45,1.45,0,0,1,0-2.1L702.7,174.8a1.485,1.485,0,0,1,2.1,2.1L360.5,521.2A1.5,1.5,0,0,1,359.4,521.6Z" fill="#102d3b"/>
          </g>
        </g>
        <g id="Group_84" data-name="Group 84">
          <g id="Group_83" data-name="Group 83">
            <path id="Path_73" data-name="Path 73" d="M359.4,507.6a1.5,1.5,0,0,1-1.1-.4,1.45,1.45,0,0,1,0-2.1L702.7,160.8a1.485,1.485,0,1,1,2.1,2.1L360.5,507.2A1.5,1.5,0,0,1,359.4,507.6Z" fill="#102d3b"/>
          </g>
        </g>
        <g id="Group_86" data-name="Group 86">
          <g id="Group_85" data-name="Group 85">
            <path id="Path_74" data-name="Path 74" d="M359.4,493.6a1.5,1.5,0,0,1-1.1-.4,1.45,1.45,0,0,1,0-2.1L702.7,146.8a1.485,1.485,0,1,1,2.1,2.1L360.5,493.2A1.5,1.5,0,0,1,359.4,493.6Z" fill="#102d3b"/>
          </g>
        </g>
        <g id="Group_88" data-name="Group 88">
          <g id="Group_87" data-name="Group 87">
            <path id="Path_75" data-name="Path 75" d="M359.4,479.6a1.5,1.5,0,0,1-1.1-.4,1.45,1.45,0,0,1,0-2.1L702.7,132.8a1.485,1.485,0,1,1,2.1,2.1L360.5,479.2A1.5,1.5,0,0,1,359.4,479.6Z" fill="#102d3b"/>
          </g>
        </g>
        <g id="Group_90" data-name="Group 90">
          <g id="Group_89" data-name="Group 89">
            <path id="Path_76" data-name="Path 76" d="M359.4,465.6a1.5,1.5,0,0,1-1.1-.4,1.45,1.45,0,0,1,0-2.1L702.7,118.7a1.485,1.485,0,1,1,2.1,2.1L360.5,465.2A1.5,1.5,0,0,1,359.4,465.6Z" fill="#102d3b"/>
          </g>
        </g>
        <g id="Group_92" data-name="Group 92">
          <g id="Group_91" data-name="Group 91">
            <path id="Path_77" data-name="Path 77" d="M359.4,451.6a1.5,1.5,0,0,1-1.1-.4,1.45,1.45,0,0,1,0-2.1L702.7,104.7a1.485,1.485,0,1,1,2.1,2.1L360.5,451.2A1.5,1.5,0,0,1,359.4,451.6Z" fill="#102d3b"/>
          </g>
        </g>
        <g id="Group_94" data-name="Group 94">
          <g id="Group_93" data-name="Group 93">
            <path id="Path_78" data-name="Path 78" d="M359.4,437.6a1.5,1.5,0,0,1-1.1-.4,1.45,1.45,0,0,1,0-2.1L702.7,90.6a1.485,1.485,0,0,1,2.1,2.1L360.5,437.2A1.5,1.5,0,0,1,359.4,437.6Z" fill="#102d3b"/>
          </g>
        </g>
        <g id="Group_96" data-name="Group 96">
          <g id="Group_95" data-name="Group 95">
            <path id="Path_79" data-name="Path 79" d="M359.4,423.6a1.5,1.5,0,0,1-1.1-.4,1.45,1.45,0,0,1,0-2.1L702.7,76.6a1.485,1.485,0,0,1,2.1,2.1L360.5,423.2A1.5,1.5,0,0,1,359.4,423.6Z" fill="#102d3b"/>
          </g>
        </g>
        <g id="Group_98" data-name="Group 98">
          <g id="Group_97" data-name="Group 97">
            <path id="Path_80" data-name="Path 80" d="M359.4,409.6a1.5,1.5,0,0,1-1.1-.4,1.45,1.45,0,0,1,0-2.1L702.7,62.6a1.485,1.485,0,0,1,2.1,2.1L360.5,409.2A1.5,1.5,0,0,1,359.4,409.6Z" fill="#102d3b"/>
          </g>
        </g>
        <g id="Group_100" data-name="Group 100">
          <g id="Group_99" data-name="Group 99">
            <path id="Path_81" data-name="Path 81" d="M359.4,395.6a1.5,1.5,0,0,1-1.1-.4,1.45,1.45,0,0,1,0-2.1L702.7,48.6a1.485,1.485,0,0,1,2.1,2.1L360.5,395.2A1.5,1.5,0,0,1,359.4,395.6Z" fill="#102d3b"/>
          </g>
        </g>
        <g id="Group_102" data-name="Group 102">
          <g id="Group_101" data-name="Group 101">
            <path id="Path_82" data-name="Path 82" d="M359.4,381.6a1.5,1.5,0,0,1-1.1-.4,1.45,1.45,0,0,1,0-2.1L702.7,34.6a1.485,1.485,0,0,1,2.1,2.1L360.5,381.2A1.5,1.5,0,0,1,359.4,381.6Z" fill="#102d3b"/>
          </g>
        </g>
        <g id="Group_104" data-name="Group 104">
          <g id="Group_103" data-name="Group 103">
            <path id="Path_83" data-name="Path 83" d="M359.4,367.6a1.5,1.5,0,0,1-1.1-.4,1.45,1.45,0,0,1,0-2.1L702.7,20.6a1.485,1.485,0,1,1,2.1,2.1L360.5,367.2A1.5,1.5,0,0,1,359.4,367.6Z" fill="#102d3b"/>
          </g>
        </g>
        <g id="Group_106" data-name="Group 106">
          <g id="Group_105" data-name="Group 105">
            <path id="Path_84" data-name="Path 84" d="M359.4,353.6a1.5,1.5,0,0,1-1.1-.4,1.45,1.45,0,0,1,0-2.1L702.7,6.6a1.485,1.485,0,0,1,2.1,2.1L360.5,353.2A1.5,1.5,0,0,1,359.4,353.6Z" fill="#102d3b"/>
          </g>
        </g>
        <g id="Group_108" data-name="Group 108">
          <g id="Group_107" data-name="Group 107">
            <path id="Path_85" data-name="Path 85" d="M359.4,339.6a1.5,1.5,0,0,1-1.1-.4,1.45,1.45,0,0,1,0-2.1l312.8-313a1.485,1.485,0,1,1,2.1,2.1l-312.7,313A1.5,1.5,0,0,1,359.4,339.6Z" fill="#102d3b"/>
          </g>
        </g>
        <g id="Group_110" data-name="Group 110">
          <g id="Group_109" data-name="Group 109">
            <path id="Path_86" data-name="Path 86" d="M359.4,325.6a1.5,1.5,0,0,1-1.1-.4,1.45,1.45,0,0,1,0-2.1L651.7,29.6a1.485,1.485,0,1,1,2.1,2.1L360.5,325.2A1.5,1.5,0,0,1,359.4,325.6Z" fill="#102d3b"/>
          </g>
        </g>
      </g>
    </g>
    <path id="XMLID_1_" d="M664,679H388V283H664a17.8,17.8,0,0,1,18,17.7v360A18.247,18.247,0,0,1,664,679Z" fill="none" stroke="#102d3b" stroke-linecap="round" stroke-linejoin="round" stroke-miterlimit="10" stroke-width="8"/>
    <rect id="XMLID_21_" width="34" height="396" transform="translate(388 283)" fill="none" stroke="#102d3b" stroke-linecap="round" stroke-linejoin="round" stroke-miterlimit="10" stroke-width="8"/>
    <rect id="XMLID_31_" width="294" height="112" transform="translate(388 397)" fill="#ff9852"/>
    <line id="XMLID_53_" y2="112" transform="translate(422 397)" fill="none" stroke="#d85639" stroke-miterlimit="10" stroke-width="8" opacity="0.6"/>
    <rect id="XMLID_51_" width="17" height="112" transform="translate(388 397)" fill="#fdba5d"/>
    <rect id="XMLID_56_" width="17" height="112" transform="translate(624 397)" fill="#d85639" opacity="0.61"/>
    <rect id="XMLID_3_" width="294" height="112" transform="translate(388 397)" fill="none" stroke="#102d3b" stroke-linecap="round" stroke-linejoin="round" stroke-miterlimit="10" stroke-width="8"/>
    <path id="XMLID_4_" d="M624.2,687H611.9a5.8,5.8,0,0,1-5.8-5.8V280.8a5.8,5.8,0,0,1,5.8-5.8h12.3a5.8,5.8,0,0,1,5.8,5.8V681.1A5.826,5.826,0,0,1,624.2,687Z" fill="#b7c8ce"/>
    <path id="XMLID_2_" d="M624.2,687H611.9a5.8,5.8,0,0,1-5.8-5.8V280.8a5.8,5.8,0,0,1,5.8-5.8h12.3a5.8,5.8,0,0,1,5.8,5.8V681.1A5.826,5.826,0,0,1,624.2,687Z" fill="none" stroke="#102d3b" stroke-linecap="round" stroke-linejoin="round" stroke-miterlimit="10" stroke-width="8"/>
    <path id="XMLID_20_" d="M449,724.7,419,708V679h30Z" fill="#ea3939"/>
    <rect id="XMLID_60_" width="30" height="11.3" transform="translate(419 679)" fill="#ea3939" opacity="0.62"/>
    <path id="XMLID_5_" d="M449,724.7,419,708V679h30Z" fill="none" stroke="#102d3b" stroke-linecap="round" stroke-linejoin="round" stroke-miterlimit="10" stroke-width="8"/>
    <path id="XMLID_52_" d="M422,397" fill="none" stroke="#102d3b" stroke-linecap="round" stroke-linejoin="round" stroke-miterlimit="10" stroke-width="8" opacity="0.38"/>
    <text id="iBC" transform="translate(447 484)" fill="#fff" font-size="75" font-family="Limelight-Regular, Limelight"><tspan x="0" y="0">iBC</tspan></text>
  </g>
</svg>
