<svg xmlns="http://www.w3.org/2000/svg" width="458.1" height="492" viewBox="0 0 458.1 492">
  <g id="Group_48" data-name="Group 48" transform="translate(-269.9 -263.9)">
    <path id="XMLID_61_" d="M359.5,689.9l-23.8-8.5c-34.3-12.3-55.6-54.4-49.6-97.8l8.3-59.7c2.7-19.2,16.2-33.3,32-33.3h33.1Z" fill="none" stroke="#3e3442" stroke-linecap="round" stroke-linejoin="round" stroke-miterlimit="10" stroke-width="10"/>
    <path id="XMLID_22_" d="M359.5,689.9l-23.8-8.5c-34.3-12.3-55.6-54.4-49.6-97.8l8.3-59.7c2.7-19.2,16.2-33.3,32-33.3h33.1Z" fill="#61f2e8"/>
    <path id="XMLID_220_" d="M294.4,527.8l-8.3,59.7a100.571,100.571,0,0,0-.9,18.9c2.1.1,4.1.2,6.2.2h0a143.04,143.04,0,0,0,57.4-12.2c3.8-1.6,7.3-3.3,10.7-4.9v-95H326.4C310.6,494.5,297,508.6,294.4,527.8Z" fill="#994a4a" opacity="0.3"/>
    <path id="XMLID_66_" d="M359.5,689.9l-23.8-8.5c-34.3-12.3-55.6-54.4-49.6-97.8l8.3-59.7c2.7-19.2,16.2-33.3,32-33.3h33.1Z" fill="none" stroke="#3e3442" stroke-linecap="round" stroke-linejoin="round" stroke-miterlimit="10" stroke-width="10"/>
    <path id="XMLID_23_" d="M345.6,583.1a258.782,258.782,0,0,0,24.1-11.9V477.9H326.4c-20.9,0-38.6,18.4-42.1,43.8L276,581.4c-.6,4.1-.9,8.1-1.1,12.1C290.4,595.6,316.2,595.9,345.6,583.1Z" fill="#604957"/>
    <path id="XMLID_207_" d="M282.4,587l8.3-59.7c3.5-25.4,21.2-43.8,42.1-43.8h36.9v-5.6H326.4c-20.9,0-38.6,18.4-42.1,43.8L276,581.4c-.6,4.1-.9,8.1-1.1,12.1,2.1.3,4.3.5,6.7.7C281.8,591.8,282.1,589.4,282.4,587Z" fill="#725865" opacity="0.26"/>
    <path id="XMLID_56_" d="M345.6,583.1a258.782,258.782,0,0,0,24.1-11.9V477.9H326.4c-20.9,0-38.6,18.4-42.1,43.8L276,581.4c-.6,4.1-.9,8.1-1.1,12.1C290.4,595.6,316.2,595.9,345.6,583.1Z" fill="none" stroke="#3e3442" stroke-linecap="round" stroke-linejoin="round" stroke-miterlimit="10" stroke-width="10"/>
    <path id="XMLID_81_" d="M291.4,584.6c-1.9,0-3.8,0-5.7-.1.1-.6.1-1.1.2-1.7l8.3-59.7c2.8-20.4,16.4-35.2,32.2-35.2h33.3v77.4c-5.2,2.8-11.3,5.7-18.1,8.7a126.763,126.763,0,0,1-50.2,10.6Z" fill="none" stroke="#3e3442" stroke-linecap="round" stroke-linejoin="round" stroke-miterlimit="10" stroke-width="3" stroke-dasharray="5 7"/>
    <g id="XMLID_53_">
      <g id="Group_47" data-name="Group 47">
        <path id="XMLID_186_" d="M638.4,689.9l23.8-8.5c34.3-12.3,55.6-54.4,49.6-97.8l-8.3-59.7c-2.7-19.2-16.2-33.3-32-33.3H638.4Z" fill="none" stroke="#3e3442" stroke-linecap="round" stroke-linejoin="round" stroke-miterlimit="10" stroke-width="10"/>
        <path id="XMLID_185_" d="M652.3,583.1a258.781,258.781,0,0,1-24.1-11.9V477.9h43.3c20.9,0,38.6,18.4,42.1,43.8l8.3,59.7c.6,4.1.9,8.1,1.1,12.1C707.5,595.6,681.7,595.9,652.3,583.1Z" fill="none" stroke="#3e3442" stroke-linecap="round" stroke-linejoin="round" stroke-miterlimit="10" stroke-width="10"/>
      </g>
    </g>
    <path id="XMLID_49_" d="M638.4,689.9l23.8-8.5c34.3-12.3,55.6-54.4,49.6-97.8l-8.3-59.7c-2.7-19.2-16.2-33.3-32-33.3H638.4Z" fill="none" stroke="#3e3442" stroke-linecap="round" stroke-linejoin="round" stroke-miterlimit="10" stroke-width="10"/>
    <path id="XMLID_32_" d="M638.4,689.9l23.8-8.5c34.3-12.3,55.6-54.4,49.6-97.8l-8.3-59.7c-2.7-19.2-16.2-33.3-32-33.3H638.4Z" fill="#61f2e8"/>
    <path id="XMLID_31_" d="M638.4,689.9l23.8-8.5c34.3-12.3,55.6-54.4,49.6-97.8l-8.3-59.7c-2.7-19.2-16.2-33.3-32-33.3H638.4Z" fill="none" stroke="#3e3442" stroke-linecap="round" stroke-linejoin="round" stroke-miterlimit="10" stroke-width="10"/>
    <path id="XMLID_13_" d="M652.3,583.1a258.781,258.781,0,0,1-24.1-11.9V477.9h43.3c20.9,0,38.6,18.4,42.1,43.8l8.3,59.7c.6,4.1.9,8.1,1.1,12.1C707.5,595.6,681.7,595.9,652.3,583.1Z" fill="#725865" stroke="#3e3442" stroke-linecap="round" stroke-linejoin="round" stroke-miterlimit="10" stroke-width="10"/>
    <path id="XMLID_224_" d="M664.5,483.3c20.9,0,38.6,18.1,42.1,43.1l8.3,58.7a75.824,75.824,0,0,1,.8,8.2c2.6-.2,5-.4,7.2-.7-.2-3.9-.5-7.9-1.1-11.9L713.5,522c-3.5-25-21.2-43.1-42.1-43.1H628.1v4.4h36.4Z" fill="#725865" opacity="0.26"/>
    <path id="XMLID_201_" d="M706.5,584.6a125.175,125.175,0,0,1-50.2-10.7c-6.8-3-12.9-5.9-18.1-8.7V487.8h33.3c15.8,0,29.4,14.8,32.2,35.2l8.3,59.7a9.854,9.854,0,0,1,.2,1.7A54.284,54.284,0,0,1,706.5,584.6Z" fill="none" stroke="#3e3442" stroke-linecap="round" stroke-linejoin="round" stroke-miterlimit="10" stroke-width="3" stroke-dasharray="5 7"/>
    <path id="XMLID_15_" d="M658.3,440.8a209.732,209.732,0,0,0-9.4-33.7C625,343.3,565.4,301.9,499.8,301.9h-.1c-65.6,0-125.1,41.4-149.1,105.2a206.88,206.88,0,0,0-9.4,33.7c-11.4,71.6-15.5,143.6-10.3,214.9,4.7,51.4,48.6,95.2,88,95.2H580.5c39.5,0,83.4-43.8,88-95.2C673.8,584.4,669.7,512.4,658.3,440.8Z" fill="#61f2e8"/>
    <path id="XMLID_242_" d="M668.6,643.5c-4.7,50.4-48.6,93.2-88,93.2H419c-39.5,0-83.4-42.9-88-93.2-1.3-17.2-2-34.4-2.2-51.6q-.3,34.5,2.2,68.7c4.7,50.4,48.6,93.2,88,93.2H580.6c39.5,0,83.4-42.9,88-93.2q2.55-34.35,2.2-68.7C670.6,609.1,669.9,626.4,668.6,643.5Z" fill="#994a4a" opacity="0.3"/>
    <path id="XMLID_44_" d="M658.3,440.8a209.732,209.732,0,0,0-9.4-33.7C625,343.3,565.4,301.9,499.8,301.9h-.1c-65.6,0-125.1,41.4-149.1,105.2a206.88,206.88,0,0,0-9.4,33.7c-11.4,71.6-15.5,143.6-10.3,214.9,2.4,26.5,15.3,51.1,32.6,68.5-13.1-16.3-22.5-37.3-24.4-59.7-5-70-1.1-140.5,9.8-210.7a200.659,200.659,0,0,1,9-33c22.8-62.6,79.5-103.2,141.9-103.2h.1c62.4,0,119.1,40.6,141.9,103.2a211.079,211.079,0,0,1,9,33c10.9,70.2,14.7,140.7,9.8,210.7a112.518,112.518,0,0,1-24.4,59.7c17.3-17.5,30.2-42,32.6-68.5C673.8,584.4,669.7,512.4,658.3,440.8Z" fill="#f26161" opacity="0.39"/>
    <path id="XMLID_118_" d="M444.7,445a20.9,20.9,0,1,0,20.9,20.9A20.955,20.955,0,0,0,444.7,445Zm0,32.8a11.9,11.9,0,1,1,11.9-11.9A11.865,11.865,0,0,1,444.7,477.8Z" fill="#eae6e5"/>
    <path id="XMLID_126_" d="M444.7,445a20.9,20.9,0,1,0,20.9,20.9A20.955,20.955,0,0,0,444.7,445Zm0,32.8a11.9,11.9,0,1,1,11.9-11.9A11.865,11.865,0,0,1,444.7,477.8Z" fill="none" stroke="#3e3442" stroke-linecap="round" stroke-linejoin="round" stroke-miterlimit="10" stroke-width="2"/>
    <path id="XMLID_158_" d="M566,445a20.9,20.9,0,1,0,20.9,20.9A20.955,20.955,0,0,0,566,445Zm0,32.8a11.9,11.9,0,1,1,11.9-11.9A11.865,11.865,0,0,1,566,477.8Z" fill="#eae6e5"/>
    <path id="XMLID_275_" d="M656.3,438a1.38,1.38,0,0,1,.4-.3,199.161,199.161,0,0,0-7.7-25.6c-23.9-63.8-83.5-105.2-149.1-105.2h-.1c-65.6,0-125.1,41.4-149.1,105.2a199.163,199.163,0,0,0-7.7,25.6,1.38,1.38,0,0,0,.4.3c44.4,38,106.9,44.9,156.5,44.9C549.3,482.9,611.9,476,656.3,438Z" fill="#994a4a" opacity="0.3"/>
    <path id="XMLID_116_" d="M594.2,707.9H412.5a21.787,21.787,0,0,1-21.8-21.8v-81a21.787,21.787,0,0,1,21.8-21.8H594.2A21.787,21.787,0,0,1,616,605.1v81A21.723,21.723,0,0,1,594.2,707.9Z" fill="#994a4a" stroke="#994a4a" stroke-linecap="round" stroke-linejoin="round" stroke-miterlimit="10" stroke-width="10" opacity="0.3"/>
    <path id="XMLID_121_" d="M566,445a20.9,20.9,0,1,0,20.9,20.9A20.955,20.955,0,0,0,566,445Zm0,32.8a11.9,11.9,0,1,1,11.9-11.9A11.865,11.865,0,0,1,566,477.8Z" fill="none" stroke="#3e3442" stroke-linecap="round" stroke-linejoin="round" stroke-miterlimit="10" stroke-width="2"/>
    <path id="XMLID_25_" d="M594.2,697.9H412.5a21.787,21.787,0,0,1-21.8-21.8v-81a21.787,21.787,0,0,1,21.8-21.8H594.2A21.787,21.787,0,0,1,616,595.1v81A21.723,21.723,0,0,1,594.2,697.9Z" fill="#725865"/>
    <path id="XMLID_10_" d="M594.2,697.9H412.5a21.787,21.787,0,0,1-21.8-21.8v-81a21.787,21.787,0,0,1,21.8-21.8H594.2A21.787,21.787,0,0,1,616,595.1v81A21.723,21.723,0,0,1,594.2,697.9Z" fill="none" stroke="#3e3442" stroke-linecap="round" stroke-linejoin="round" stroke-miterlimit="10" stroke-width="10"/>
    <g id="XMLID_21_">
      <path id="Path_66" data-name="Path 66" d="M412.5,685.9a9.816,9.816,0,0,1-9.8-9.8v-81a9.816,9.816,0,0,1,9.8-9.8H594.2a9.816,9.816,0,0,1,9.8,9.8v81a9.816,9.816,0,0,1-9.8,9.8Z" fill="none" stroke="#3e3442" stroke-linecap="round" stroke-linejoin="round" stroke-width="3" stroke-dasharray="4.989 6.984"/>
    </g>
    <path id="XMLID_18_" d="M658.3,440.8a209.732,209.732,0,0,0-9.4-33.7C625,343.3,565.4,301.9,499.8,301.9h-.1c-65.6,0-125.1,41.4-149.1,105.2a206.88,206.88,0,0,0-9.4,33.7c-11.4,71.6-15.5,143.6-10.3,214.9,4.7,51.4,48.6,95.2,88,95.2H580.5c39.5,0,83.4-43.8,88-95.2C673.8,584.4,669.7,512.4,658.3,440.8Z" fill="none" stroke="#3e3442" stroke-linecap="round" stroke-linejoin="round" stroke-miterlimit="10" stroke-width="10"/>
    <path id="XMLID_24_" d="M499.8,465.9c59,0,112.2-8.1,150-40.5,7-6,9.8-16.4,6.7-25.6,0-.1,0-.1-.1-.2-12.3-36.1-33.6-66.7-61.8-88.5-28.1-21.7-60.8-33.2-94.8-33.2-33.9,0-66.7,11.5-94.8,33.2-28.2,21.8-49.5,52.5-61.8,88.5,0,.1,0,.1-.1.2-3.1,9.2-.4,19.6,6.7,25.6C387.6,457.7,440.8,465.9,499.8,465.9Z" fill="#725865"/>
    <path id="XMLID_115_" d="M453.1,362.8l-6,6.7a5.716,5.716,0,0,1-8.6,0l-6-6.7a2.567,2.567,0,0,1-.7-1.8V278.7a2.8,2.8,0,0,1,2.8-2.8h16.5a2.8,2.8,0,0,1,2.8,2.8V361A3.258,3.258,0,0,1,453.1,362.8Z" fill="#3e3442" stroke="#3e3442" stroke-linecap="round" stroke-linejoin="round" stroke-miterlimit="10" stroke-width="6" opacity="0.4"/>
    <path id="XMLID_205_" d="M565.5,362.8l-6,6.7a5.716,5.716,0,0,1-8.6,0l-6-6.7a2.567,2.567,0,0,1-.7-1.8V278.7a2.8,2.8,0,0,1,2.8-2.8h16.5a2.8,2.8,0,0,1,2.8,2.8V361A4.167,4.167,0,0,1,565.5,362.8Z" fill="#3e3442" stroke="#3e3442" stroke-linecap="round" stroke-linejoin="round" stroke-miterlimit="10" stroke-width="6" opacity="0.4"/>
    <path id="XMLID_249_" d="M649.8,416.4c-37.8,32.3-91,40.5-150,40.5s-112.2-8.1-150-40.5a22.645,22.645,0,0,1-7.5-13.3c-1.5,8.3,1.3,17,7.5,22.3,37.8,32.3,91,40.5,150,40.5s112.2-8.1,150-40.5a23.662,23.662,0,0,0,7.5-22.3A23.427,23.427,0,0,1,649.8,416.4Z" fill="#725865" opacity="0.32"/>
    <path id="XMLID_33_" d="M656.4,399.8c0-.1,0-.1-.1-.2-12.3-36.1-33.6-66.7-61.8-88.5-28.1-21.7-60.8-33.2-94.8-33.2-33.9,0-66.7,11.5-94.8,33.2-28.2,21.8-49.5,52.5-61.8,88.5,0,.1,0,.1-.1.2a23.964,23.964,0,0,0,5.8,24.8,23.72,23.72,0,0,1-1.8-19.2.1.1,0,0,1,.1-.1c12-35.2,32.8-65,60.2-86.3,27.3-21.2,59.3-32.4,92.3-32.4,33.1,0,65.1,11.2,92.4,32.4,27.4,21.3,48.3,51.1,60.2,86.3v.1a23.72,23.72,0,0,1-1.8,19.2A23.643,23.643,0,0,0,656.4,399.8Z" fill="#725865" opacity="0.58"/>
    <path id="XMLID_19_" d="M499.8,465.9c59,0,112.2-8.1,150-40.5,7-6,9.8-16.4,6.7-25.6,0-.1,0-.1-.1-.2-12.3-36.1-33.6-66.7-61.8-88.5-28.1-21.7-60.8-33.2-94.8-33.2-33.9,0-66.7,11.5-94.8,33.2-28.2,21.8-49.5,52.5-61.8,88.5,0,.1,0,.1-.1.2-3.1,9.2-.4,19.6,6.7,25.6C387.6,457.7,440.8,465.9,499.8,465.9Z" fill="none" stroke="#3e3442" stroke-linecap="round" stroke-linejoin="round" stroke-miterlimit="10" stroke-width="10"/>
    <path id="XMLID_28_" d="M499.8,453.9c-68,0-111.8-11.6-142.2-37.6a11.694,11.694,0,0,1-3.1-12.6v-.1c11.5-33.9,31.5-62.5,57.8-82.9,25.9-20.1,56.2-30.7,87.4-30.7,31.3,0,61.5,10.6,87.5,30.7,26.3,20.4,46.3,49.1,57.8,82.9v.1c1.5,4.6.3,9.8-3.1,12.6C611.6,442.3,567.8,453.9,499.8,453.9Z" fill="none" stroke="#3e3442" stroke-linecap="round" stroke-linejoin="round" stroke-miterlimit="10" stroke-width="3" stroke-dasharray="5 7"/>
    <g id="XMLID_108_">
      <g id="XMLID_45_">
        <path id="XMLID_120_" d="M453.1,353.8l-6.7,7.5a4.862,4.862,0,0,1-7.3,0l-6.7-7.5a2.567,2.567,0,0,1-.7-1.8V269.7a2.8,2.8,0,0,1,2.8-2.8H451a2.8,2.8,0,0,1,2.8,2.8V352A2.567,2.567,0,0,1,453.1,353.8Z" fill="#edab7a"/>
        <path id="XMLID_117_" d="M453.1,353.8l-6,6.7a5.716,5.716,0,0,1-8.6,0l-6-6.7a2.567,2.567,0,0,1-.7-1.8V269.7a2.8,2.8,0,0,1,2.8-2.8h16.5a2.8,2.8,0,0,1,2.8,2.8V352A3.258,3.258,0,0,1,453.1,353.8Z" fill="none" stroke="#3e3442" stroke-linecap="round" stroke-linejoin="round" stroke-miterlimit="10" stroke-width="6"/>
        <rect id="XMLID_54_" width="22" height="13.5" transform="translate(431.8 321.3)" fill="#edab7a" opacity="0.6"/>
        <rect id="XMLID_114_" width="22" height="13.5" transform="translate(431.8 321.3)" fill="none" stroke="#3e3442" stroke-linecap="round" stroke-linejoin="round" stroke-miterlimit="10" stroke-width="6"/>
        <line id="XMLID_113_" y2="12.3" transform="translate(442.8 322.5)" fill="none" stroke="#3e3442" stroke-linecap="round" stroke-linejoin="round" stroke-miterlimit="10" stroke-width="6"/>
        <circle id="XMLID_110_" cx="3.4" cy="3.4" r="3.4" transform="translate(439.4 293.9)" fill="#3e3442"/>
        <circle id="XMLID_72_" cx="3.4" cy="3.4" r="3.4" transform="translate(439.4 307.9)" fill="#3e3442"/>
        <circle id="XMLID_52_" cx="3.4" cy="3.4" r="3.4" transform="translate(439.4 341.3)" fill="#3e3442"/>
      </g>
      <g id="XMLID_123_">
        <path id="XMLID_140_" d="M565.5,353.8l-6.7,7.5a4.862,4.862,0,0,1-7.3,0l-6.7-7.5a2.567,2.567,0,0,1-.7-1.8V269.7a2.8,2.8,0,0,1,2.8-2.8h16.5a2.8,2.8,0,0,1,2.8,2.8V352A3.114,3.114,0,0,1,565.5,353.8Z" fill="#edab7a"/>
        <rect id="XMLID_76_" width="22" height="13.5" transform="translate(544.2 321.3)" fill="#edab7a" opacity="0.6"/>
        <path id="XMLID_137_" d="M565.5,353.8l-6,6.7a5.716,5.716,0,0,1-8.6,0l-6-6.7a2.567,2.567,0,0,1-.7-1.8V269.7a2.8,2.8,0,0,1,2.8-2.8h16.5a2.8,2.8,0,0,1,2.8,2.8V352A4.167,4.167,0,0,1,565.5,353.8Z" fill="none" stroke="#3e3442" stroke-linecap="round" stroke-linejoin="round" stroke-miterlimit="10" stroke-width="6"/>
        <circle id="XMLID_210_" cx="3.4" cy="3.4" r="3.4" transform="translate(439.4 279.9)" fill="#3e3442"/>
        <circle id="XMLID_143_" cx="3.4" cy="3.4" r="3.4" transform="translate(551.8 279.9)" fill="#3e3442"/>
        <circle id="XMLID_232_" cx="3.4" cy="3.4" r="3.4" transform="translate(439.4 266.8)" fill="#3e3442"/>
        <circle id="XMLID_218_" cx="3.4" cy="3.4" r="3.4" transform="translate(551.8 266.8)" fill="#3e3442"/>
        <rect id="XMLID_74_" width="22" height="13.5" transform="translate(544.2 321.3)" fill="#edab7a" opacity="0.6"/>
        <rect id="XMLID_134_" width="22" height="13.5" transform="translate(544.2 321.3)" fill="none" stroke="#3e3442" stroke-linecap="round" stroke-linejoin="round" stroke-miterlimit="10" stroke-width="6"/>
        <line id="XMLID_133_" y2="12.3" transform="translate(555.2 322.5)" fill="none" stroke="#3e3442" stroke-linecap="round" stroke-linejoin="round" stroke-miterlimit="10" stroke-width="6"/>
        <circle id="XMLID_130_" cx="3.4" cy="3.4" r="3.4" transform="translate(551.8 293.9)" fill="#3e3442"/>
        <circle id="XMLID_127_" cx="3.4" cy="3.4" r="3.4" transform="translate(551.8 307.9)" fill="#3e3442"/>
        <circle id="XMLID_124_" cx="3.4" cy="3.4" r="3.4" transform="translate(551.8 341.3)" fill="#3e3442"/>
      </g>
    </g>
    <path id="XMLID_39_" d="M520,439.4H478.5a7.17,7.17,0,0,1-7.2-7.2v-49a7.17,7.17,0,0,1,7.2-7.2H520a7.17,7.17,0,0,1,7.2,7.2v49A7.17,7.17,0,0,1,520,439.4Z" fill="#826776"/>
    <rect id="XMLID_202_" width="56" height="27.6" transform="translate(471.3 375.9)" fill="#725865" opacity="0.32"/>
    <path id="XMLID_43_" d="M520,439.4H478.5a7.17,7.17,0,0,1-7.2-7.2v-49a7.17,7.17,0,0,1,7.2-7.2H520a7.17,7.17,0,0,1,7.2,7.2v49A7.17,7.17,0,0,1,520,439.4Z" fill="none" stroke="#3e3442" stroke-linecap="round" stroke-linejoin="round" stroke-miterlimit="10" stroke-width="6"/>
    <path id="XMLID_196_" d="M478.5,433.4a1.216,1.216,0,0,1-1.2-1.2v-49a1.216,1.216,0,0,1,1.2-1.2H520a1.216,1.216,0,0,1,1.2,1.2v49a1.216,1.216,0,0,1-1.2,1.2Z" fill="none" stroke="#3e3442" stroke-linecap="round" stroke-linejoin="round" stroke-miterlimit="10" stroke-width="2" stroke-dasharray="3 5"/>
    <rect id="XMLID_41_" width="66" height="38.3" transform="translate(466.3 354.9)" fill="#61f2e8"/>
    <rect id="XMLID_37_" width="66" height="38.3" transform="translate(466.3 354.9)" fill="none" stroke="#3e3442" stroke-linecap="round" stroke-linejoin="round" stroke-miterlimit="10" stroke-width="6"/>
    <path id="XMLID_166_" d="M542.1,534.6H453.9a8.237,8.237,0,0,1-8.2-8.2h0a8.237,8.237,0,0,1,8.2-8.2h88.2a8.237,8.237,0,0,1,8.2,8.2h0A8.173,8.173,0,0,1,542.1,534.6Z" fill="#725865"/>
    <path id="XMLID_119_" d="M542.1,534.6H453.9a8.237,8.237,0,0,1-8.2-8.2h0a8.237,8.237,0,0,1,8.2-8.2h88.2a8.237,8.237,0,0,1,8.2,8.2h0A8.173,8.173,0,0,1,542.1,534.6Z" fill="none" stroke="#3e3442" stroke-linecap="round" stroke-linejoin="round" stroke-miterlimit="10" stroke-width="4"/>
    <line id="XMLID_175_" x2="29.6" transform="translate(507.5 526.4)" fill="none" stroke="#3e3442" stroke-linejoin="round" stroke-miterlimit="10" stroke-width="6"/>
    <line id="XMLID_174_" x2="14.8" transform="translate(483.2 526.4)" fill="none" stroke="#3e3442" stroke-linejoin="round" stroke-miterlimit="10" stroke-width="6"/>
    <line id="XMLID_167_" x2="16.3" transform="translate(459 526.4)" fill="none" stroke="#3e3442" stroke-linejoin="round" stroke-miterlimit="10" stroke-width="6"/>
    <rect id="XMLID_42_" width="21.5" height="64.8" transform="translate(488.5 350.1)" fill="#61f2e8"/>
    <rect id="XMLID_38_" width="21.5" height="64.8" transform="translate(488.5 350.1)" fill="none" stroke="#3e3442" stroke-linecap="round" stroke-linejoin="round" stroke-miterlimit="10" stroke-width="4"/>
    <circle id="XMLID_60_" cx="3.8" cy="3.8" r="3.8" transform="translate(496 398.2)" fill="none" stroke="#3e3442" stroke-linecap="round" stroke-linejoin="round" stroke-miterlimit="10" stroke-width="4"/>
    <circle id="XMLID_78_" cx="14.7" cy="14.7" r="14.7" transform="translate(559.1 390.2)" fill="#826776"/>
    <circle id="XMLID_70_" cx="14.7" cy="14.7" r="14.7" transform="translate(559.1 390.2)" fill="none" stroke="#3e3442" stroke-linecap="round" stroke-linejoin="round" stroke-miterlimit="10" stroke-width="2"/>
    <g id="XMLID_216_">
      <path id="XMLID_225_" d="M567.8,411l6-15.1,6,15.1Z" fill="#8ca85e"/>
      <path id="XMLID_223_" d="M567.8,411l6-15.1,6,15.1Z" fill="none" stroke="#3e3442" stroke-linecap="round" stroke-linejoin="round" stroke-miterlimit="10" stroke-width="2"/>
    </g>
    <text id="Semester_3" data-name="Semester 3" transform="translate(414.95 650)" fill="#fff" font-size="34" font-family="SegoeUI-Bold, Segoe UI" font-weight="700"><tspan x="0" y="0">Semester 3</tspan></text>
  </g>
</svg>
