<svg xmlns="http://www.w3.org/2000/svg" xmlns:xlink="http://www.w3.org/1999/xlink" width="34" height="40" viewBox="0 0 34 40">
  <defs>
    <linearGradient id="linear-gradient" x1="36.607" y1="-5.783" x2="36.607" y2="-5.704" gradientUnits="objectBoundingBox">
      <stop offset="0.441" stop-color="#999998"/>
      <stop offset="0.653" stop-color="#c1c1c0"/>
      <stop offset="0.88" stop-color="#e5e5e5"/>
      <stop offset="1" stop-color="#f3f3f3"/>
    </linearGradient>
    <linearGradient id="linear-gradient-2" x1="-0.84" y1="0.114" x2="2.173" y2="0.935" gradientUnits="objectBoundingBox">
      <stop offset="0" stop-color="#0176d0"/>
      <stop offset="1" stop-color="#16538c"/>
    </linearGradient>
    <linearGradient id="linear-gradient-3" x1="0.222" y1="0.029" x2="0.777" y2="1.012" gradientUnits="objectBoundingBox">
      <stop offset="0" stop-color="#33bef0"/>
      <stop offset="1" stop-color="#22a5e2"/>
    </linearGradient>
  </defs>
  <g id="book" transform="translate(-7 -4)">
    <path id="Path_1" data-name="Path 1" d="M41,6V42a2,2,0,0,1-2,2H34V4h5A2,2,0,0,1,41,6Z" fill="#1783bd"/>
    <path id="Path_2" data-name="Path 2" d="M39,6V42a2,2,0,0,1-2,2H31V4h6A2,2,0,0,1,39,6Z" fill="url(#linear-gradient)"/>
    <path id="Path_3" data-name="Path 3" d="M7,6V42a2,2,0,0,0,2,2h2V4H9A2,2,0,0,0,7,6Z" fill="url(#linear-gradient-2)"/>
    <path id="Path_4" data-name="Path 4" d="M35,4H11V44H35a2,2,0,0,0,2-2V6A2,2,0,0,0,35,4Z" fill="url(#linear-gradient-3)"/>
    <rect id="Rectangle_1" data-name="Rectangle 1" width="16" height="2" transform="translate(16 14)" fill="#1b9de2"/>
  </g>
</svg>
