<?xml version="1.0" encoding="utf-8"?>
<svg xmlns="http://www.w3.org/2000/svg" viewBox="0 0 24 24" width="192" height="192">
  <path d="M18,1h-4c-1.657,0-3,1.343-3,3v7c0,0.552-0.448,1-1,1H5c-1.657,0-3,1.343-3,3v4c0,1.657,1.343,3,3,3 h13c1.657,0,3-1.343,3-3V4C21,2.343,19.657,1,18,1z" opacity=".35" fill="#5B5B5B" />
  <path d="M8,14.861v4.278c0,0.427-0.501,0.658-0.825,0.38L4.68,17.38c-0.233-0.2-0.233-0.56,0-0.759l2.494-2.139 C7.499,14.203,8,14.434,8,14.861z" fill="#5B5B5B" />
  <path d="M14,18H7c-0.553,0-1-0.448-1-1s0.447-1,1-1h7c0.552,0,1-0.449,1-1V5c0-0.552,0.447-1,1-1s1,0.448,1,1v10 C17,16.654,15.654,18,14,18z" fill="#5B5B5B" />
</svg>