<svg id="logo" xmlns="http://www.w3.org/2000/svg" xmlns:xlink="http://www.w3.org/1999/xlink" width="500" height="500" viewBox="0 0 500 500">
  <defs>
    <linearGradient id="linear-gradient" x1="-1.094" y1="-2.883" x2="-1.094" y2="-3.132" gradientUnits="objectBoundingBox">
      <stop offset="0" stop-color="#bf360c" stop-opacity="0.2"/>
      <stop offset="1" stop-color="#bf360c" stop-opacity="0.02"/>
    </linearGradient>
    <radialGradient id="radial-gradient" cx="0.034" cy="0.023" r="1.383" gradientTransform="matrix(0.864, 0, 0, -1, 0.031, 1.469)" gradientUnits="objectBoundingBox">
      <stop offset="0" stop-color="#fff" stop-opacity="0.102"/>
      <stop offset="1" stop-color="#fff" stop-opacity="0"/>
    </radialGradient>
  </defs>
  <g id="Google_Classroom_icon">
    <path id="Path_1" data-name="Path 1" d="M52.6,52.6H509.309V447.3H52.6Z" transform="translate(-31.004)" fill="#0f9d58"/>
    <path id="Path_4" data-name="Path 4" d="M342.1,421.1H460.5v26.3H342.1Z" transform="translate(-58.675)" fill="#f1f1f1"/>
    <path id="Path_5" data-name="Path 5" d="M465.889,0H34.111C15.285,0,0,17.7,0,39.5V460.6C0,482.3,15.285,500,34.111,500H465.889C484.715,500,500,482.3,500,460.5V39.5C499.914,17.7,484.715,0,465.889,0Zm-11.4,447.4H45.423V52.6H454.491Z" fill="#f4b400"/>
    <path id="Path_6" data-name="Path 6" d="M465.889,0H34.111C15.285,0,0,17.7,0,39.5v3.3C0,21,15.285,3.3,34.111,3.3H465.889C484.715,3.3,500,21,500,42.8V39.5C499.914,17.7,484.715,0,465.889,0Z" fill="#fff" opacity="0.2"/>
    <path id="Path_7" data-name="Path 7" d="M465.889,496.7H34.111C15.285,496.7,0,479,0,457.2v3.3C0,482.3,15.285,500,34.111,500H465.889C484.715,500,500,482.3,500,460.5v-3.3C499.914,479,484.715,496.7,465.889,496.7Z" fill="#bf360c" opacity="0.2"/>
    <path id="Path_8" data-name="Path 8" d="M460.492,447.4H341.9L394.585,500H513.077Z" transform="translate(-58.475)" fill="url(#linear-gradient)"/>
    <path id="Path_9" data-name="Path 9" d="M52.6,49.3H462.257v3.3H52.6Z" transform="translate(-7.302)" fill="#263238" opacity="0.2"/>
    <path id="Path_10" data-name="Path 10" d="M52.6,447.4H461.9v3.3H52.6Z" transform="translate(-7.302)" fill="#fff" opacity="0.2"/>
    <path id="Path_11" data-name="Path 11" d="M465.889,0H34.111C15.285,0,0,17.7,0,39.5V460.6C0,482.3,15.285,500,34.111,500H465.889C484.715,500,500,482.3,500,460.5V39.5C499.914,17.7,484.715,0,465.889,0Z" fill="url(#radial-gradient)"/>
    <path id="path4698" d="M505.073,436.853a4.8,4.8,0,0,1-.09-1.132,1.69,1.69,0,0,1,.725-.095v1.227h-.634" transform="translate(-284.56 -345.521)" fill="#fff" fill-rule="evenodd"/>
    <path id="path4696" d="M557.777,450.317a55.545,55.545,0,0,1,42.578,56.245c-.924,19.086-14.218,39.685-37.093,48.72-11.9,4.67-23.258,4.107-35.695.173v9.684c-8.635-2.313-15.882-5.425-19.695-8.662V543.156c-7.367-11.866-18.256-28.554-7.69-39.405a16.3,16.3,0,0,1,14.433-5.36c8.935,1.383,11.232,5.295,11.834,10.311.73,6.095.537,14.547.365,25.355,22.98,10.007,37.543-.887,44.953-9.08,10.03-11.024,8.418-34.628-1.118-45.348-5.284-5.944-13.449-9.053-13.107-9.053l.233-20.26Z" transform="translate(-294.53 -329.585)" fill="#fff" fill-rule="evenodd"/>
    <path id="path4694" d="M531.5,434.061l-.023,16.757c-9.514.908-24.052,18.152-8.674,33.629,2.04,2.054,11.34,3.35,11.34,3.35h0l-.235-19.389,18.091.042.214,38.181-.61-.181s-22.271,1.708-29.316-1.858c-6.1-3.07-13.015-6.183-17.246-11.283a33.918,33.918,0,0,1-7.045-26.285c1.782-12.039,5.562-18.331,11.081-23.431,7.325-6.766,16.861-9.532,22.423-9.532" transform="translate(-292.539 -347.22)" fill="#fff" fill-rule="evenodd"/>
    <path id="path4692" d="M558.64,419.094l-.161,19.306c-11.283,3.443-20.157,3.507-33.195,13.536-23.26,17.833-35.309,43.945-35.223,69.6.108,34.152,21.973,67.116,58.828,78.876,12.306,3.89,47.381,9.683,80.283-24.4,38.253-39.752,21.156-112.682-25.666-130.775-.923-.453-1.846-.886-2.77-1.34-.473-.216-.924-.432-1.4-.67-5.841-2.658-16.55-4.474-16.55-4.474l-.065-19.238c50.495,5.036,86.568,51.618,85.473,101.334-1.052,48.959-34.708,98.177-94.459,101.42-51.289,2.723-93.6-41.264-99.355-80.994-4.619-32.034.7-62.648,22.676-89.041,27.614-33.618,62.091-32.992,61.581-33.137" transform="translate(-319.417 -363.454)" fill="#fff" fill-rule="evenodd"/>
    <path id="path4690" d="M515.32,418.8l17.7,0,0,49.105h-17.7V418.8" transform="translate(-273.347 -363.776)" fill="#fff" fill-rule="evenodd"/>
    <path id="path4688" d="M457.25,418.7h22.456c.408,43.956-.68,99.258.113,116.263a97.163,97.163,0,0,0,7.29,31.457c8.4,20.314,20.51,33.523,38.055,47.4,26.511,20.979,74.865,27.883,114.572,3.774,32.531-19.848,48.6-50.995,52.227-85.582,1.108-57.788-.116-113.906-.116-113.906s23.935-.47,23.573-.47c0,20.423-.627,45.888-.791,69.265.181,26.485.221,51.882-5.144,72.506-11.794,45.133-55.351,86.492-103.14,93.2-69.59,9.745-128.9-32.7-144.906-94.13-4.664-17.827-3.465-40.138-3.465-60.207q-.372-39.794-.724-79.566" transform="translate(-336.337 -365.036)" fill="#fff" fill-rule="evenodd"/>
    <path id="Path_12" data-name="Path 12" d="M110.85,103.55a25.321,25.321,0,0,1,14.925,9.225A25.84,25.84,0,0,1,131.1,128.9q0,13.95-9.225,21.525T95.4,158H39.75V51.8H93.9q16.2,0,25.5,7.05t9.3,20.55q0,9.3-4.875,15.675A23.142,23.142,0,0,1,110.85,103.55ZM73.05,93.2h12.9q4.5,0,6.675-1.8T94.8,85.85q0-3.9-2.175-5.775T85.95,78.2H73.05ZM88.2,131.3q4.5,0,6.675-1.725t2.175-5.625q0-7.65-8.85-7.65H73.05v15Zm51.15-26.55q0-15.75,6.375-28.05A46.049,46.049,0,0,1,163.95,57.575q11.85-6.825,27.9-6.825a56.739,56.739,0,0,1,24.675,5.175,45.6,45.6,0,0,1,17.7,14.625A53.005,53.005,0,0,1,243.3,92.6H208.2a19,19,0,0,0-6.825-8.175A17.942,17.942,0,0,0,191.25,81.5a15.885,15.885,0,0,0-13.275,6.3q-4.875,6.3-4.875,16.95t4.875,16.95A15.885,15.885,0,0,0,191.25,128a17.942,17.942,0,0,0,10.125-2.925A19,19,0,0,0,208.2,116.9h35.1a53.005,53.005,0,0,1-9.075,22.05,45.6,45.6,0,0,1-17.7,14.625,56.739,56.739,0,0,1-24.675,5.175q-16.05,0-27.9-6.825A46.049,46.049,0,0,1,145.725,132.8Q139.35,120.5,139.35,104.75Zm184.05,37.2H288L282.75,158H247.8L286.65,51.8h38.4L363.75,158h-35.1Zm-8.1-25.05-9.6-29.55-9.6,29.55Z" transform="translate(52 250)" fill="#fff"/>
  </g>
</svg>
