<svg width="163" height="75" viewBox="0 0 163 75" fill="none" xmlns="http://www.w3.org/2000/svg">
<g filter="url(#filter0_i_6_5)">
<path d="M10.2812 15.7344C7.0625 15.7344 4.54688 15.0156 2.73438 13.5781C0.921875 12.1406 0.015625 10.25 0.015625 7.90625C0.015625 5.9375 1.01562 4.25 3.01562 2.84375C5.14062 1.34375 7.39062 0.59375 9.76562 0.59375C12.1406 0.59375 13.9688 0.828125 15.25 1.29688C16.5625 1.76562 17.6719 2.375 18.5781 3.125C20.3906 4.65625 21.2969 6.4375 21.2969 8.46875C21.2969 10.5 20.2656 12.2188 18.2031 13.625C16.1406 15.0312 13.5 15.7344 10.2812 15.7344ZM0.4375 23.9375H20.5938V74H0.4375V23.9375ZM36.1562 7.67188C44.5938 7.67188 51.2969 7.67188 56.2656 7.67188C61.2656 7.67188 64.2969 7.6875 65.3594 7.71875C69.9844 7.9375 73.25 8.48438 75.1562 9.35938C77.0625 10.2031 78.5781 11.1562 79.7031 12.2188C82.1094 14.5938 83.3125 17.4688 83.3125 20.8438C83.3125 24.1875 82.1406 27.125 79.7969 29.6562C79.0781 30.4375 78.25 31.1094 77.3125 31.6719C82.4062 32.6094 86.5781 34.75 89.8281 38.0938C93.3594 41.7188 95.125 46.1406 95.125 51.3594C95.125 56.6719 93.4844 61.25 90.2031 65.0938C85.6094 70.4062 78.5156 73.3125 68.9219 73.8125C66.4844 73.9375 64.0781 74 61.7031 74H36.1562V7.67188ZM66.9062 30.7344L69.2969 31.0156H70.0469C72.5156 31.0156 74.6562 30.1094 76.4688 28.2969C78.4062 26.3594 79.375 23.9844 79.375 21.1719C79.375 17.7344 77.8906 15.0938 74.9219 13.25C73.4219 12.3125 71.9219 11.7656 70.4219 11.6094C68.9531 11.4219 67.7969 11.2969 66.9531 11.2344C65.2031 11.1094 62.9062 11.0469 60.0625 11.0469V70.5312H65.2656C70.5781 70.5312 74.9062 69.875 78.25 68.5625C82.25 67.1875 85.4219 64.9688 87.7656 61.9062C89.9844 59 91.0938 55.9531 91.0938 52.7656C91.0938 49.5781 90.625 46.8906 89.6875 44.7031C88.75 42.5156 87.3906 40.6562 85.6094 39.125C81.9844 35.9688 76.9375 34.3906 70.4688 34.3906L67.2344 34.6719C66.2344 34.6719 65.5 34.4688 65.0312 34.0625C64.5625 33.6562 64.3281 33.1875 64.3281 32.6562C64.3281 31.375 65.1875 30.7344 66.9062 30.7344ZM160.422 62.8906C161.703 62.8906 162.344 63.6094 162.344 65.0469C162.344 66.2344 161.438 67.4219 159.625 68.6094C156.25 70.8281 153.406 72.2812 151.094 72.9688C146.75 74.25 142.188 74.8906 137.406 74.8906C132.625 74.8906 128.016 74.0469 123.578 72.3594C119.172 70.6406 115.406 68.25 112.281 65.1875C105.75 58.75 102.484 50.4375 102.484 40.25C102.484 35.3438 103.406 30.8438 105.25 26.75C107.094 22.625 109.641 19.0938 112.891 16.1562C119.766 9.9375 128.406 6.82812 138.812 6.82812C144.656 6.82812 149.797 7.82812 154.234 9.82812C158.953 11.9219 161.312 13.7031 161.312 15.1719C161.312 15.7656 161.109 16.2812 160.703 16.7188C160.328 17.1562 159.891 17.375 159.391 17.375C158.391 17.375 157.484 16.9375 156.672 16.0625C155.859 15.1562 154.75 14.3438 153.344 13.625C151.969 12.9062 150.453 12.2812 148.797 11.75C145.422 10.7188 142.344 10.2031 139.562 10.2031C136.812 10.2031 134.531 10.3906 132.719 10.7656V70.8594C134.906 71.2344 136.844 71.4219 138.531 71.4219C140.219 71.4219 141.938 71.3125 143.688 71.0938C145.438 70.875 147.156 70.5156 148.844 70.0156C152.625 68.8906 155.469 67.2344 157.375 65.0469C158.062 64.2344 158.609 63.6719 159.016 63.3594C159.422 63.0469 159.891 62.8906 160.422 62.8906Z" fill="#7303A7"/>
</g>
<defs>
<filter id="filter0_i_6_5" x="0.015625" y="-9.40625" width="172.328" height="84.2969" filterUnits="userSpaceOnUse" color-interpolation-filters="sRGB">
<feFlood flood-opacity="0" result="BackgroundImageFix"/>
<feBlend mode="normal" in="SourceGraphic" in2="BackgroundImageFix" result="shape"/>
<feColorMatrix in="SourceAlpha" type="matrix" values="0 0 0 0 0 0 0 0 0 0 0 0 0 0 0 0 0 0 127 0" result="hardAlpha"/>
<feOffset dx="10" dy="-10"/>
<feGaussianBlur stdDeviation="10"/>
<feComposite in2="hardAlpha" operator="arithmetic" k2="-1" k3="1"/>
<feColorMatrix type="matrix" values="0 0 0 0 0.162781 0 0 0 0 0 0 0 0 0 0.2375 0 0 0 1 0"/>
<feBlend mode="normal" in2="shape" result="effect1_innerShadow_6_5"/>
</filter>
</defs>
</svg>
