<svg enable-background="new 0 0 800 555.958" height="556" viewBox="0 0 800 555.958" width="800" xmlns="http://www.w3.org/2000/svg"><path d="m763.499 455.81c-21.086 35.642 2.395 58.718-36.014 67.019-8.651 4.014-51.62-2.428-54.814-.142-19.234-1.105-38.448.913-57.677 1.121-19.271.208-38.297-2.918-57.506-3.865-38.148-1.882-76.506 3.12-114.319 7.517-38.183 4.44-76.096 10.301-114.057 16.316-37.997 6.021-76.142 11.624-114.684 12.152-10.99.15-21.922-.357-32.898-.766-10.382-.387-20.785-.272-31.151-1.045-15.294-1.142-34.425-3.815-43.445-17.923-36.747 8.432-65.685-48.831-73.712-75.626-.153-1.826-1.706-16.82 2.701-16.284-14.338-14.272-16.93-24.487-10.587-42.182-13.43-12.588-16.164-25.745-8.257-42.324-18.496-11.267-16.141-38.661-15.004-57.18.936-15.254 1.067-29.911-.453-45.138-1.336-13.386-2.484-26.868-.504-40.259.277-1.873 4.105-19.856 5.564-18.66-5.713-14.745-.238-30.445 3.618-44.901 1.893-7.097 4.373-13.636 7.727-20.172 1.785-3.477 3.652-6.909 5.336-10.438 1.02-2.137 3.252-5.335 2.579-7.815-5.132-5.828-2.515-14.449.231-20.734 3.453-7.904 8.177-15.288 13.231-22.25 11.054-15.23 23.946-29.443 37.541-42.436 25.69-24.551 63.334-32.661 97.961-29.463 16.906 1.561 34.965 5.792 49.588 14.735 7.339 4.488 13.078 10.572 19.147 16.563 6.732 6.644 15.389 9.819 22.661 15.633 2.953 2.361 5.299 5.228 6.702 8.76 1.689 4.253 1.976 8.939 4.134 13.025 3.682 6.974 11.217 11.413 17.33 16.026 6.771 5.11 14.397 10.279 18.96 17.623 4.324 6.959 4.051 15.611 2.943 23.427-1.379 9.73-4.138 19.213-5.292 28.98-.793 6.712-1.428 13.284-3.245 19.8-.657 2.358-7.633 25.98-11.312 22.465 1.62 7.441-.725 14.187-4.332 20.637-3.763 6.73-6.282 13.389-6.054 21.223.418 14.382 4.707 29.75 12.901 41.662.864 2.614 5.545 12.063 2.592 14.491 14.272-.12 26.784 8.738 33.805 20.725 14.797-6.059 26.444-3.707 39.667 4.681 9.256-11.32 25.693-13.762 39.125-16.745 9.01-2 17.96-3.906 26.415-7.725 8.03-3.626 15.465-8.396 22.878-13.12 13.866-8.835 28.908-18.55 45.856-19.305 17.162-.764 30.622 9.028 44.771 17.144 12.807 7.346 29.093 13.434 35.245 28.07 1.761-.262 6.978-.536 8.17-2.1 12.949-10.269 19.434-4.921 21.862-24.224-1.542-9.351 14.535-18.712 21.031-20.845-2.52-14.576 8.686-29.316 17.051-40.107 9.019-11.635 19.067-22.629 28.786-33.685 9.235-10.505 19.785-19.512 34.185-21.198 6.678-.782 13.596-.027 19.927 2.255 3.328 1.2 6.498 2.854 9.345 4.959 2.593 1.919 4.259 5.23 6.995 6.823 25.902 21.943 32.201 56.946 34.287 89.102 1.277 19.68 1.302 39.425 3.107 59.074.975 10.615 1.682 20.897.615 31.549-1.047 10.451-3.181 20.765-5.774 30.933-5.694 22.333-13.706 44.287-25.479 64.167z" fill="#f0c418"/><path d="m304.526 186.444c-2.581 7.524-5.556 13.266-8.005 10.926.931 4.274 1.004 8.697-.426 12.872-11.303-.339-22.635.098-33.936.36-10.416.241-21.128 1.348-31.3-1.542-6.274 1.641-12.738 1.791-19.181 1.552-6.699-.249-13.346.177-20.038.37-6.523.188-13.046-.019-19.57-.003-6.206.015-12.682.492-18.587-1.81-12.052 2.647-18.909 2.614-29.179.044-10.379 2.603-18.92 2.515-28.763-.241-7.386 3.178-15.842 1.943-23.642 1.861-7.798-.082-15.562.092-23.331-.751-7.46-.809-14.516.191-21.935-.04-3.953-.123-7.851-.908-11.804-1.054-4.18-.154-8.365.183-12.543.256.164-.941 2.25-12.467 4.397-10.706-1.695-4.375-2.395-8.837-2.439-13.353 11.418-.077 25.777-.744 36.101 2.909 8.629-3.073 20.156-2.297 28.774.328 9.679-2.603 18.559-2.559 28.632.23 11.415-4.374 24.128-2.313 36.014-1.982 13.783.384 27.567-.084 41.35-.182 13.773-.098 27.553.54 41.321-.055 12.597-.544 25.617-2.084 37.893 1.682 8.428-1.814 16.688-1.684 25.219-.955 8.351.718 16.656-1.921 24.978-.716z" fill="#ea472c"/><path d="m307.271 177.399c-.593 2.198-6.586 23.95-10.75 19.971.262 1.203.448 2.329.558 3.412-11.586-.357-23.224-.012-34.806.352-10.452.328-21.209 1.334-31.414-1.565-6.274 1.641-12.738 1.791-19.181 1.552-6.699-.248-13.346.178-20.038.37-6.523.188-13.046-.02-19.57-.004-6.206.015-12.682.492-18.587-1.809-12.052 2.647-18.909 2.614-29.179.044-10.379 2.603-18.92 2.515-28.763-.241-6.46 2.779-13.677 2.079-20.521 1.913-7.795-.189-15.615.209-23.393-.482-3.449-.306-6.875-.903-10.34-1.02-4.147-.139-8.238.651-12.377.682-8.069.061-16.004-1.144-24.131-.898.601-1.192 1.236-1.684 1.903-1.137-2.826-7.293-2.876-15.216-1.717-22.857 11.297-.088 25.274-.656 35.379 2.92 8.629-3.073 20.156-2.297 28.774.328 9.679-2.603 18.559-2.559 28.632.23 11.415-4.374 24.128-2.312 36.014-1.982 13.783.383 27.567-.098 41.35-.191 13.773-.093 27.553.549 41.321-.045 12.597-.544 25.617-2.084 37.893 1.682 4.319-.939 8.743-1.799 13.172-1.957 4.569-.163 9.002.881 13.539 1.148 4.169.245 8.219-.645 12.338-1.108 4.652-.522 9.303-.192 13.894.692z" fill="#fff"/><path d="m71.106 66.818-.707 2.778c7.501 3.248 15.281 5.844 22.414 9.894 6.951 3.946 12.256 9.508 18.766 13.938 1.398 1.981 3.222 3.603 4.796 5.435 1.604 1.867 2.891 4.054 4.794 5.649 1.07 2.039 1.819 3.081 3.095 4.577.782 1.671 1.677 3.202 2.795 4.674.818 3.217 2.882 5.897 4.18 8.911 1.382 3.208 2.054 6.666 3.413 9.883.185 1.281.398 2.543.731 3.795.857-.155 1.711-.335 2.562-.522-.401-4.265-1.96-9.845-4.267-13.476-.277-1.813-1.241-3.618-2.258-5.119-.55-1.817-1.344-3.374-2.57-4.935-1.297-4.901-5.138-8.898-8.274-12.708-3.207-3.896-6.309-8.283-10.704-10.935-2.332-2.531-5.746-5.414-8.847-6.928-3.338-3.702-8.351-5.614-12.727-7.76-5.589-2.743-11.293-5.151-17.192-7.151z" fill="#ea472c"/><path d="m131.879 122.128c.041-1.079.262-4.749 1.547-4.931-.433-.548.343-2.318.899-2.518-.692-.913 1.948-6.583 3.211-6.491-.335-.747-.085-1.125.677-1.135-.362-.713.077-1.191.74-1.117-.127-.077-.161-.284-.099-.623.449-.673 1.434-2.295 2.263-2.277-.119-.064-.083-.299.111-.699 2.539-2.626 6.37-6.839 9.842-8.086.13-.007.22.013.271.06-.275-.12 1.069-.75 1.036-.725.438-.338.433-.833 1.228-.599 1.076.573.873-1.648 2.257-.134.521.569.573 3.181-.308 3.478.624.525.576.987-.149 1.345.542.604.451.96-.304 1.33.146.008.251.196.296.566-.248.755-.66 2.689-1.467 2.87 2.261 3.406-9.172 11.981-10.341 14.25-.151-.017-.37.024-.652.121-1.995 1.985-4.225 3.659-6.898 4.596-.344.121-4.199 1.125-4.16.719z" fill="#4f73b6"/><path d="m120.396 104.281c.048-.82.273-3.608 1.254-3.727-.321-.423.297-1.758.723-1.901-.536-.738 1.643-4.972 2.545-4.888-.243-.573-.047-.857.532-.853-.265-.548.077-.905.58-.838-.095-.061-.118-.219-.066-.476.352-.505 1.126-1.724 1.757-1.697-.09-.05-.059-.228.096-.53 1.967-1.954 4.974-5.11 7.613-5.999.099-.003.168.014.206.05-.208-.095.825-.554.8-.535.339-.25.342-.627.943-.436.713.397.637-.871 1.488-.299.585.393.743 2.622-.058 2.873.466.409.423.76-.135 1.021.403.468.328.737-.252 1.007.111.008.188.153.216.435-.201.571-.544 2.035-1.161 2.16 1.871 2.948-6.945 8.568-8.09 10.681-.115-.015-.282.013-.498.082-1.514 1.446-3.241 2.668-5.234 3.346-.224.076-3.291.795-3.259.524z" fill="#4f73b6"/><path d="m108.685 89.39c-.022-.679-.045-2.992.754-3.162-.296-.325.113-1.47.453-1.619-.496-.568.963-4.217 1.73-4.214-.243-.454-.103-.702.375-.742-.259-.432-.004-.751.415-.733-.083-.043-.114-.172-.09-.387.252-.442.799-1.503 1.32-1.528-.078-.035-.065-.184.039-.444 1.404-1.672 3.597-4.526 5.821-5.503.081-.01.139-.001.173.026-.178-.063.638-.517.619-.5.26-.231.235-.542.744-.429.958.426.272-1.049 1.386-.166.411.325.574 1.935-.016 2.18.415.302.405.595-.035.851.367.355.325.583-.132.848.092-.001.166.112.211.342-.122.485-.296 1.716-.794 1.865 1.747 2.272-5.116 7.658-5.863 9.395-.096-.004-.231.031-.404.105-1.062 1.215-2.027 2.144-3.53 2.948.079-.044-3.19 1.396-3.176.867z" fill="#4f73b6"/><path d="m95.697 80.274c-.139-.495-.577-2.192-.021-2.46-.263-.177-.2-1.089.039-1.272-.388-.272-.092-3.265.506-3.408-.261-.29-.203-.498.141-.613-.269-.271-.14-.552.172-.614-.069-.017-.115-.106-.136-.268.105-.37.314-1.248.693-1.36-.063-.012-.082-.123-.052-.333.719-1.461 1.839-3.986 3.28-5.091l.132-.012c-.142-.015.375-.495.364-.479.149-.217.074-.44.469-.449-.322-.058 3.212-.121 1.373 1.235.36.148.406.365.129.632.334.195.345.37.057.647.067-.017.143.052.217.214-.002.378.094 1.315-.245 1.514 1.737 1.387-2.354 6.451-2.603 7.959-.071.014-.164.064-.278.149-.245.475-4.08 4.72-4.237 4.009z" fill="#4f73b6"/><path d="m83.163 73.561c-.251-.328-1.081-1.462-.746-1.826-.255-.056-.473-.751-.349-.958-.47-.113-.983-2.442-.636-2.686-.281-.139-.299-.311-.077-.497-.281-.123-.268-.37-.054-.507-.056.008-.117-.045-.181-.16-.032-.307-.137-1.021.112-1.216-.051.01-.097-.068-.138-.233.102-1.31.182-3.501.929-4.752l.095-.048c-.11.031.132-.479.129-.463.047-.205-.076-.35.216-.472-.244.049 2.345-1.011 1.389.516.312.005.41.152.284.432.307.047.367.174.235.465.045-.033.122-.003.225.095.111.282.461.951.267 1.199 1.66.51.174 5.533.427 6.689-.049.031-.103.096-.163.193-.035.345-1.569 4.813-1.964 4.229z" fill="#4f73b6"/><path d="m71.452 69.477c-.208-.234-.901-1.046-.669-1.34-.196-.028-.401-.541-.319-.706-.349-.057-.91-1.771-.634-1.997-.22-.09-.244-.218-.087-.372-.219-.077-.224-.265-.07-.381-.042.009-.091-.028-.146-.111-.041-.23-.162-.765.015-.926-.038.01-.078-.046-.117-.169.002-.995-.057-2.669.433-3.649l.069-.041c-.082.03.073-.37.071-.358.024-.158-.077-.26.136-.369-.516.143 1.78-1.019 1.081.313.236-.014.319.092.239.311.235.019.288.111.204.339.032-.027.092-.009.176.06.1.207.403.694.271.892 1.314.298.436 4.138.704 5.038l-.112.155c-.01.471-1.018 3.597-1.245 3.311z" fill="#4f73b6"/><path d="m132.435 121.844c-.907-.594-4.039-2.551-4.936-1.618-.196-.669-2.097-1.071-2.583-.738-.361-1.142-6.572-2.172-7.181-1.18-.416-.705-.871-.724-1.323-.114-.373-.708-1.02-.631-1.345-.052.01-.147-.139-.296-.452-.443-.813-.028-2.712-.176-3.18.505.017-.133-.196-.241-.637-.317-3.628.523-9.275 1.152-12.344 3.251-.081.101-.117.186-.109.254.062-.292-1.236.428-1.196.416-.532.158-.934-.135-1.204.644-.17 1.288-1.933-.259-1.504 1.776.154.732 2.397 2.252 3.107 1.745.067.809.473 1.04 1.188.662.179.79.523.923 1.265.528-.078.123.014.317.291.569.762.239 2.584 1.031 3.202.484 1.435 3.711 15.35-.412 17.679-.068.074-.132.235-.285.479-.457 2.813-.463 5.589-1.3 7.933-2.963.432-.307 3.181-2.693 2.85-2.884z" fill="#4f73b6"/><path d="m121.298 101.688c-.744-.358-3.304-1.521-3.886-.727-.216-.485-1.69-.598-2.023-.299-.388-.824-5.17-.996-5.535-.173-.385-.49-.73-.459-1.009.047-.353-.497-.833-.374-1.019.095-.007-.112-.135-.209-.386-.289-.616.06-2.063.138-2.348.698-.001-.102-.172-.162-.513-.175-2.624.74-6.929 1.841-8.98 3.686-.051.084-.07.152-.057.203.017-.227-.889.446-.86.433-.385.172-.718-.008-.843.606.001.813-1.069.124-.987 1.144.057.707 1.94 1.923 2.552 1.351.132.604.462.737.963.38.215.578.488.644 1.008.272-.047.1.043.238.277.4.599.104 2.054.519 2.464.045 1.708 3.113 10.873-1.854 13.327-1.818.043-.107.148-.239.315-.392 2.004-.608 3.92-1.509 5.491-2.914.176-.157 2.298-2.47 2.049-2.573z" fill="#4f73b6"/><path d="m110.369 88.53c-.619-.288-2.749-1.222-3.221-.56-.184-.398-1.404-.477-1.676-.225-.308-.634-4.256-.838-4.579-.083-.324-.401-.609-.371-.834.049-.297-.407-.693-.3-.842.09-.007-.093-.114-.171-.322-.235-.508.056-1.705.136-1.934.603-.002-.085-.144-.132-.426-.14-2.132.632-5.596 1.491-7.386 3.144l-.045.168c.012-.188-.73.379-.706.368-.316.146-.594.001-.691.51.011.787-1.154.289-.526 1.448.194.357 1.474.958 1.848.598.116.498.39.604.8.304.184.475.41.527.836.214-.038.083.038.196.233.328.496.079 1.704.407 2.038.011 1.416 2.503 9.086-1.65 11-1.646.034-.089.12-.199.256-.328 1.543-.49 2.782-1.005 4.119-2.06-.069.054 2.553-2.362 2.058-2.558z" fill="#4f73b6"/><path d="m96.72 79.364c-.492-.161-2.177-.672-2.472-.132-.166-.27-1.085-.248-1.28-.019-.256-.397-3.278-.239-3.449.348-.28-.272-.491-.225-.622.112-.26-.279-.548-.164-.625.143-.014-.069-.101-.119-.264-.147-.377.088-1.269.255-1.399.626-.009-.063-.12-.087-.333-.067-1.501.647-4.09 1.645-5.266 3.025l-.018.13c-.008-.142-.515.35-.498.34-.225.138-.446.054-.473.445-.043-.322-.277 3.193 1.179 1.419.132.364.348.419.629.157.181.341.356.359.648.086-.021.066.046.144.205.225.38.015 1.318.153 1.533-.175 1.324 1.797 6.582-2.044 8.119-2.224.017-.07.072-.16.163-.269.49-.22 4.931-3.836 4.223-4.023z" fill="#4f73b6"/><path d="m83.885 73.183c-.397-.119-1.756-.497-1.982-.059-.141-.218-.873-.179-1.025.009-.271-.399-2.646-.065-2.755.343-.229-.213-.398-.171-.496.101-.214-.219-.442-.121-.497.126-.012-.055-.083-.093-.214-.113-.3.077-1.011.228-1.108.528-.008-.051-.098-.067-.268-.047-1.189.546-3.243 1.394-4.159 2.521l-.012.105c-.009-.114-.405.29-.392.281-.177.115-.356.051-.37.365-.046-.286-.174 2.578.971 1.115.113.289.287.329.507.114.152.27.292.281.52.057-.015.053.04.114.169.177.305.005 1.058.098 1.224-.168 1.064 1.376 5.275-1.766 6.458-1.932.013-.056.055-.13.125-.219.312-.154 3.992-3.139 3.304-3.304z" fill="#4f73b6"/><path d="m72.216 68.544c-.301-.092-1.33-.385-1.504-.054-.106-.166-.662-.14-.778.002-.196-.293-1.999-.095-2.092.248-.173-.163-.301-.131-.377.075-.161-.167-.335-.094-.378.094-.009-.042-.063-.071-.162-.087-.228.057-.768.169-.843.396-.006-.038-.074-.051-.203-.037-.911.412-2.471 1.048-3.168 1.894l-.01.079c-.006-.086-.309.218-.299.212-.135.087-.271.037-.282.276-.081-.526-.202 2.032.732.85.084.22.216.251.384.089.114.205.22.215.395.045-.012.04.03.087.127.135.231.005.802.079.929-.122.819 1.073 3.97-1.312 4.909-1.437l.096-.165c.072-.036 3.046-2.365 2.524-2.493z" fill="#4f73b6"/><path d="m217.618 68.338.526 2.929c-5.821 3.57-12.067 6.54-17.327 10.956-4.997 4.195-8.656 9.668-13.334 14.179-1.864 3.74-4.458 8.506-7.14 11.69-.797 2.15-1.355 3.249-2.305 4.827-.582 1.762-1.248 3.378-2.081 4.93-.626 3.483-2.323 6.645-3.304 10.024-.937 3.228-1.389 6.575-2.35 9.798-.138 1.351-.296 2.682-.545 4.003-.638-.163-1.274-.353-1.908-.55.301-4.547 1.305-10.039 3.177-14.212.206-1.912.924-3.816 1.682-5.399.409-1.916 1.001-3.559 1.914-5.205.934-4.998 3.914-9.427 6.371-13.78 2.203-3.902 4.293-8.192 7.76-11.156 1.625-2.499 4.124-5.602 6.588-7.306 2.208-3.469 5.999-5.743 9.294-8.053 4.132-2.897 8.43-5.489 12.982-7.675z" fill="#382d16"/><g fill="#fff"><path d="m172.368 126.672c-.031-1.138-.195-5.008-1.152-5.201.299-.535-.153-2.393-.669-2.655.417-.779-1.289-6.96-2.391-6.845.249-.787.064-1.186-.504-1.197.27-.752-.057-1.257-.551-1.178.094-.082.12-.3.074-.657-.335-.71-1.067-2.42-1.685-2.401.089-.067.062-.315-.083-.738-1.729-2.536-4.52-7.1-7.328-8.527-.097-.007-.164.014-.202.063.205-.126-.796-.791-.772-.764-.326-.356-.322-.879-.914-.631-.708.532-.406-2.085-1.799.02-.388.586-.395 3.153.348 3.507-.464.554-.429 1.041.111 1.418-.404.637-.336 1.012.226 1.403-.109.008-.187.206-.22.597.185.796.491 2.836 1.092 3.026-1.892 4.037 6.461 11.621 7.699 15.029.113-.018.276.025.486.128 1.34 1.889 2.884 3.66 4.964 4.746.239.125 3.303 1.349 3.27.857z"/><path d="m180.918 105.565c-.036-.865-.203-3.806-.934-3.931.219-.409-.141-1.816-.538-2.005.322-.628-1.097-5.261-1.895-5.155.181-.604.035-.904-.396-.9.197-.578-.057-.955-.432-.884.071-.064.088-.231.049-.502-.262-.533-.839-1.818-1.309-1.79.067-.053.044-.241-.071-.559-1.367-1.921-3.478-5.283-5.668-6.326-.074-.003-.125.014-.153.052.154-.101-.615-.584-.595-.565-.252-.264-.255-.661-.702-.46-.379.299-.443-1.076-1.386.135-.293.377-.173 2.359.322 2.579-.347.431-.315.802.1 1.077-.3.493-.244.777.187 1.062-.083.009-.14.161-.161.459.149.602.405 2.146.864 2.278-1.419 3.162 5 8.592 6.023 11.264.086-.016.21.013.371.087 1.016 1.374 2.193 2.669 3.737 3.449.206.103 2.614.957 2.587.635z"/><path d="m189.637 92.143c.016-.716.034-3.156-.561-3.335.194-.302 0-1.498-.337-1.708.29-.47-.564-4.448-1.288-4.444.181-.479.077-.741-.279-.783.193-.455.003-.792-.309-.773.062-.045.085-.181.067-.408-.188-.466-.595-1.585-.983-1.611.058-.037.049-.194-.029-.468-.994-1.676-2.507-4.666-4.334-5.804l-.129.027c.133-.067-.475-.546-.461-.527-.194-.244-.175-.571-.554-.453-.385.243-.295-.615-.595-.579-.726.087-1.047 2.336-.425 2.704-.309.319-.301.627.026.897-.273.375-.242.615.098.894-.068-.001-.124.118-.157.361.091.511.22 1.81.591 1.967-1.57 2.891 3.591 7.365 4.366 9.908.071-.004.172.033.301.11.775 1.256 1.504 2.323 2.758 3.205-.038-.026 2.243 1.286 2.234.82z"/><path d="m199.308 82.53c.104-.522.429-2.312.015-2.595.217-.207.165-1.13-.029-1.341.264-.263.147-3.416-.377-3.595.194-.306.152-.525-.105-.646.2-.286.104-.582-.128-.647.051-.018.085-.111.101-.283-.078-.391-.234-1.316-.516-1.434.047-.012.061-.13.039-.352-.541-1.557-1.242-4.065-2.442-5.369l-.098-.013c.106-.015-.279-.522-.271-.505-.111-.228-.055-.465-.349-.474-.115-.237-.237-.471-.365-.702-.297-.326-1.006 1.641-.657 2.004-.268.156-.302.384-.096.666-.249.206-.257.39-.042.683-.05-.018-.106.055-.162.226.001.399-.07 1.387.182 1.596-1.606 1.816 1.709 6.429 1.938 8.394.053.015.122.068.207.157.12.33 3.11 4.513 3.155 4.23z"/><path d="m208.64 75.45c.187-.346.805-1.542.556-1.925.232-.072.339-.824.26-1.011.421-.143.723-2.585.474-2.833.209-.147.223-.328.058-.525.209-.13.199-.39.04-.535.042.008.087-.047.135-.169.024-.323.102-1.077-.083-1.282.038.01.072-.072.103-.246-.081-1.477-.087-3.578-.692-5.012l-.07-.05c.082.033-.098-.505-.096-.488-.035-.216.056-.369-.161-.498-.098-.027.003-.995-.367-.774-.378.361-.6.801-.667 1.319-.232.005-.306.161-.211.456-.229.05-.273.184-.175.49-.033-.035-.091-.003-.168.101-.083.298-.343 1.003-.199 1.264-1.52.661-.12 5.784-.318 7.054l.121.203c.037.554 1.431 4.523 1.46 4.461z"/><path d="m217.36 71.143c.155-.247.671-1.103.498-1.413.18-.036.287-.604.237-.744.321-.074.666-1.881.472-2.106.164-.095.182-.23.065-.392.163-.081.167-.279.052-.402.031.009.068-.029.109-.117.031-.243.12-.807-.011-.977.028.011.058-.048.087-.178-.002-1.147.077-2.718-.322-3.848l-.051-.044c.061.031-.054-.39-.053-.377-.018-.166.057-.275-.102-.39.044-.259-.038-.464-.247-.615-.3.248-.486.563-.558.945-.176-.015-.238.097-.178.328-.175.02-.214.117-.152.357-.024-.029-.068-.009-.131.063-.074.219-.3.732-.201.941-1.153.372-.325 4.371-.525 5.313l.083.163c.011.646.992 3.377.928 3.493z"/><path d="m171.954 126.372c.676-.627 3.007-2.691 3.675-1.707.123-.594 1.527-1.164 1.923-.779.23-1.028 4.88-2.322 5.346-1.245.31-.743.649-.763.985-.12.277-.747.759-.666 1.001-.054-.008-.155.104-.312.337-.467.605-.03 2.019-.186 2.368.532-.013-.141.146-.254.474-.334 2.529.517 7.303 1.6 9.19 3.429.06.107.087.196.081.268-.046-.308.92.451.891.439 4.339 1.821-.261 4.428-.297 4.392-.05.854-.352 1.097-.884.698-.133.833-.389.974-.942.557.058.129-.01.334-.217.6-.568.252-1.924 1.087-2.384.511-1.078 3.95-10.87-.552-13.163-.071-.055-.14-.175-.301-.356-.482-.55-.128-9.847-4.682-8.028-6.167z"/><path d="m180.246 105.115c.554-.377 2.46-1.604 2.894-.767.144-.457 1.252-.639 1.506-.315.268-.808 3.857-1.027 4.121-.182.287-.517.544-.484.751.049.263-.524.62-.395.759.101.005-.118.1-.221.287-.304.458.063 1.536.146 1.748.737 0-.108.128-.171.382-.185 1.962.784 5.38 2.223 6.686 3.887.038.089.052.16.042.214-.013-.239.662.471.64.457 2.981 1.889-.417 3.431-.538 3.271-.099.637-.344.777-.717.401-.16.609-.363.679-.75.287.035.106-.032.251-.206.422-.446.11-1.529.547-1.835.048-1.034 2.671-8.48-1.948-9.923-1.917-.032-.113-.11-.252-.234-.414-.195-.084-7.108-4.919-5.613-5.79z"/><path d="m188.384 91.237c.461-.303 2.047-1.289 2.399-.59.123-.378 1.042-.507 1.248-.238.23-.669 3.198-.786 3.409-.088.241-.423.453-.392.621.052.221-.429.516-.317.627.095.005-.098.085-.181.24-.247.379.059 1.269.144 1.44.636.001-.089.107-.14.317-.147 1.541.647 4.323 1.777 5.499 3.316l.033.177c-.009-.198.544.399.526.388 2.577 1.69-.374 2.826-.47 2.696-.086.525-.29.637-.596.321-.137.501-.306.556-.623.226.028.088-.028.207-.174.345-.37.084-1.268.429-1.517.012-.898 2.249-6.908-1.739-8.19-1.736-.025-.094-.089-.21-.191-.346-.443-.201-5.774-4.212-4.598-4.872z"/><path d="m198.546 81.57c.366-.169 1.621-.709 1.841-.139.121-.279.82-.242.953-.02.243-.533 2.471-.103 2.568.367.208-.287.366-.237.463.118.194-.294.408-.173.465.151.01-.073.075-.125.196-.155.281.092.945.269 1.041.661.007-.067.09-.091.248-.07 1.14.696 3.129 1.875 3.921 3.191l.014.137c.006-.15.383.369.37.358 1.504 1.314-.39 2.202-.526 1.967-.099.384-.259.442-.468.165-.135.36-.265.379-.482.091.015.07-.034.152-.153.238-.283.016-.981.162-1.141-.184-.781 1.503-5.204-2.206-6.045-2.346-.013-.074-.054-.169-.121-.284-.399-.258-4.019-3.919-3.144-4.246z"/><path d="m208.103 75.051c.295-.126 1.307-.524 1.476-.063.1-.218.654-.181.763.009.198-.413 1.974-.049 2.051.362.171-.225.296-.18.369.107.159-.231.329-.127.37.133.009-.058.062-.098.159-.119.224.081.753.241.825.557.006-.053.073-.071.199-.05.916.596 2.478 1.579 3.097 2.659l.009.11c.007-.12.302.306.292.297 1.121 1.031-.31 1.81-.447 1.561-.084.305-.213.347-.377.12-.113.284-.218.297-.387.06.011.056-.03.121-.125.186-.227.005-.788.103-.911-.178-.655 1.2-4.084-1.893-4.809-2.038l-.093-.231c-.284-.194-3.208-3.229-2.461-3.482z"/><path d="m216.791 70.158c.224-.097.99-.406 1.12-.057.075-.165.496-.142.579.002.148-.314 1.498-.051 1.558.262.129-.171.224-.138.281.079.12-.176.249-.099.282.099.007-.044.047-.075.12-.092.17.06.572.178.628.417.005-.041.055-.054.151-.039.694.444 1.89 1.191 2.358 1.998l.007.084c.005-.091.23.23.222.223.843.765-.215 1.402-.335 1.187-.063.232-.161.265-.286.093-.085.216-.164.226-.294.048.009.043-.022.092-.095.142-.172.005-.597.083-.692-.129-.492.912-3.145-1.419-3.655-1.516l-.071-.174c-.31-.209-2.348-2.463-1.878-2.627z"/><path d="m116.975 19.055-2.522 2.842c6.786 8.256 14.311 15.91 20.193 24.876 2.816 4.292 5.436 8.783 7.638 13.423 2.247 4.736 3.592 9.87 6.101 14.485.442 3.196 1.677 6.203 2.379 9.339.707 3.156.89 6.452 2.155 9.463.018 3.041.265 4.717.855 7.244-.098 2.435.023 4.775.443 7.178-1.011 4.35-.186 8.873-.525 13.28-.347 4.507-1.629 8.884-1.981 13.391-.562 1.618-1.079 3.23-1.449 4.904 1.102.333 2.216.635 3.331.927 2.136-5.285 3.689-12.713 3.183-18.415.778-2.299.742-5.002.459-7.378.459-2.468.473-4.777-.02-7.35 1.477-6.641-.747-13.779-2.068-20.267-1.307-6.421-2.368-13.277-5.866-18.949-1.199-4.36-3.477-9.838-6.191-13.466-1.774-6.747-6.814-12.308-10.943-17.729-4.734-6.215-9.73-12.187-15.172-17.798z"/></g><path d="m154.796 120.64c.705-1.244 3.198-5.428 4.821-4.87-.174-.894 1.739-2.53 2.589-2.421-.262-1.514 6.298-6.572 7.728-5.704.061-1.079.584-1.375 1.487-.929.008-1.057.815-1.355 1.55-.869-.102-.167-.016-.431.263-.793.938-.522 3.083-1.838 4.048-1.318-.101-.147.084-.401.557-.756 4.857-1.656 11.25-4.266 16.498-3.595.157.07.251.148.283.233-.251-.306 1.715-.24 1.66-.23.721-.134 1.016-.72 1.808.034 1.022 1.468 2.331-1.903 2.932 1.014.198.961-1.473 4.268-2.675 4.09.414.992.076 1.507-.994 1.492.271 1.036-.053 1.4-1.167 1.382.167.097.176.381.004.844-.751.739-2.413 2.766-3.471 2.494.287 2.623-6.911 4.989-8.562 5.768-2.213 1.044-4.463 2.354-6.773 3.154-1.793.62-3.896.479-5.503 1.626-.168-.111-.45-.194-.841-.249-3.627 1.159-7.47 1.841-11.265 1.231-.46-.075-5.27-1.174-4.977-1.628z" fill="#ea472c"/><path d="m153.469 90.199c.556-.936 2.518-4.08 3.743-3.631-.12-.691 1.42-1.889 2.008-1.802-.173-1.137 4.894-4.903 5.968-4.22.063-.82.466-1.037 1.145-.683.022-.804.642-1.018 1.193-.637-.075-.129-.006-.328.212-.599.722-.382 2.374-1.35 3.1-.94-.075-.113.07-.304.435-.566 3.511-1.119 8.924-3.029 12.606-2.48.118.056.189.117.212.182-.186-.237 1.308-.156 1.267-.149.551-.091.784-.532 1.375.054.88 1.318 1.537-1.43 2.118.942.193.786-1.097 3.097-2.003 2.945.299.761.034 1.148-.78 1.12.19.793-.063 1.064-.909 1.033.125.076.128.293-.01.642-.583.551-1.879 2.067-2.68 1.843.359 4.056-13.908 6.261-16.016 7.701-.126-.087-.339-.155-.636-.203-2.732.812-5.575 1.221-8.407.776-.537-.084-4.157-1.008-3.941-1.328z" fill="#ea472c"/><path d="m147.439 68.191c.388-.812 1.768-3.546 2.811-3.267-.15-.56 1.028-1.661 1.518-1.632-.221-.896 3.671-4.396 4.599-3.917-.01-.68.306-.888.892-.648-.042-.663.452-.886.935-.613-.071-.1-.029-.27.13-.509.566-.368 1.854-1.288 2.483-1.003-.07-.088.035-.256.316-.499 2.827-1.188 7.078-3.156 10.196-2.974.101.037.164.082.188.134-.171-.181 1.066-.225 1.032-.216.447-.115.606-.496 1.137-.058.576.715.981-.719 1.64.276.434.656-.323 2.99-1.254 2.917.304.605.114.943-.558.98.215.639.028.881-.671.918.109.054.127.232.04.529-.439.497-1.392 1.841-2.069 1.716.685 3.785-10.525 5.806-12.613 7.526-.11-.062-.291-.102-.539-.12-1.992.792-3.74 1.275-5.947 1.346.007.001-4.577-.321-4.266-.886z" fill="#ea472c"/><path d="m137.71 49.663c.138-.666.655-2.925 1.473-2.906-.212-.385.454-1.406.82-1.473-.351-.668 1.923-3.885 2.67-3.705-.131-.498.064-.708.538-.636-.151-.48.171-.733.576-.618-.071-.061-.071-.193.003-.398.349-.372 1.129-1.279 1.643-1.183-.067-.052-.021-.194.142-.423 1.759-1.304 4.562-3.578 6.956-4.017.081.009.136.031.162.065-.159-.103.743-.357.719-.344.308-.165.356-.473.825-.246.834.636.509-.96 1.389.158.325.414.105 2.017-.525 2.12.333.39.255.673-.232.821.274.431.181.643-.327.795.09.02.136.147.125.382-.233.444-.689 1.603-1.209 1.633 1.211 2.703-6.669 6.137-7.906 7.797-.092-.026-.232-.023-.418.009-1.319.939-2.475 1.62-4.128 2.056.088-.023-3.433.626-3.296.113z" fill="#ea472c"/><path d="m127.053 34.233c-.095-.537-.381-2.37.233-2.596-.259-.214-.098-1.168.173-1.337-.381-.327.241-3.451.886-3.542-.245-.333-.163-.546.212-.632-.255-.313-.09-.596.245-.629-.071-.025-.11-.123-.116-.297.149-.38.46-1.284.872-1.363-.066-.019-.073-.138-.02-.357.909-1.466 2.352-4.014 3.985-5.031l.14.001c-.149-.03.447-.483.433-.467.18-.213.124-.457.541-.425-.272-.077 3.392.209 1.32 1.442.364.193.39.426.071.679.332.24.326.425-.007.688.073-.012.145.07.207.248-.041.399-.037 1.396-.415 1.571 1.7 1.652-3.147 6.551-3.569 8.125-.077.008-.18.051-.309.129-.316.487-4.788 4.591-4.882 3.793z" fill="#ea472c"/><path d="m115.763 22.391c-.103-.401-.423-1.772.029-1.978-.214-.151-.142-.878.055-1.021-.39-.287.053-2.64.469-2.73-.205-.238-.154-.404.124-.49-.211-.223-.102-.446.15-.49-.055-.015-.09-.087-.105-.218.091-.296.275-.997.582-1.08-.051-.011-.063-.101-.036-.269.604-1.161 1.551-3.17 2.729-4.032l.106-.007c-.114-.014.311-.391.301-.378.124-.171.068-.353.385-.352-.286-.059 2.599-.049 1.081 1.018.286.125.319.3.092.51.265.163.271.304.034.521.054-.013.114.045.171.176-.009.304.052 1.058-.225 1.212 1.333 1.115-2.02 5.187-2.239 6.349-.057.01-.133.049-.226.115-.164.303-3.341 3.837-3.477 3.144z" fill="#ea472c"/><path d="m155.622 120.64c-.705-1.244-3.198-5.428-4.821-4.87.174-.894-1.739-2.53-2.589-2.421.262-1.514-6.298-6.572-7.728-5.704-.061-1.079-.584-1.375-1.487-.929-.008-1.057-.815-1.355-1.55-.869.102-.167.016-.431-.263-.793-.938-.522-3.083-1.838-4.048-1.318.101-.147-.084-.401-.557-.756-4.857-1.656-11.25-4.266-16.498-3.595-.157.07-.251.148-.283.233.251-.306-1.715-.24-1.66-.23-.721-.134-1.016-.72-1.808.034-1.022 1.468-2.331-1.903-2.932 1.014-.198.961 1.473 4.268 2.675 4.09-.414.992-.076 1.507.994 1.492-.271 1.036.053 1.4 1.167 1.382-.167.097-.176.381-.004.844.751.739 2.413 2.766 3.471 2.494-.287 2.623 6.911 4.989 8.562 5.768 2.213 1.044 4.463 2.354 6.773 3.154 1.793.62 3.896.479 5.503 1.626.168-.111.45-.194.841-.249 3.627 1.159 7.469 1.841 11.265 1.231.46-.075 5.27-1.173 4.977-1.628z" fill="#ea472c"/><path d="m154.789 90.239c-.658-.868-2.961-3.775-4.129-3.192.041-.7-1.624-1.72-2.198-1.567.044-1.149-5.415-4.328-6.406-3.53-.155-.808-.58-.978-1.215-.552-.113-.796-.752-.941-1.257-.501.06-.136-.031-.327-.278-.572-.761-.3-2.511-1.078-3.186-.589.062-.121-.104-.294-.496-.514-3.615-.722-9.208-2.016-12.807-1.062-.111.069-.174.137-.19.204.158-.256-1.317-.009-1.275-.007-.558-.029-.839-.441-1.361.206-.725 1.408-1.685-1.252-1.998 1.172-.104.803 1.438 2.956 2.321 2.703-.212.79.095 1.145.901 1.026-.099.809.182 1.051 1.02.926-.116.09-.094.305.082.637.641.482 2.1 1.845 2.871 1.534.099 4.046 14.567 4.698 16.782 5.872.115-.101.32-.191.609-.272 2.806.503 5.677.594 8.443-.163.524-.144 4.018-1.464 3.767-1.759z" fill="#ea472c"/><path d="m149.943 68.192c-.553-.711-2.489-3.089-3.448-2.595.026-.579-1.361-1.405-1.834-1.272.023-.922-4.531-3.515-5.335-2.85-.137-.666-.49-.803-1.011-.443-.102-.657-.632-.77-1.045-.4.048-.113-.029-.27-.236-.47-.632-.24-2.088-.864-2.641-.453.05-.1-.089-.242-.416-.42-3.016-.561-7.591-1.581-10.601-.741-.091.058-.143.115-.155.171.128-.213-1.089.006-1.055.008-.461-.018-.699-.356-1.123.185-.526 1.055-1.646-.812-1.673 1.195-.007.538 1.376 2.187 1.983 2.006-.167.655.091.945.756.839-.073.67.162.867.853.754-.095.076-.075.253.075.526.536.392 1.756 1.503 2.39 1.238.147 3.899 11.504 3.426 13.94 4.676.094-.084.262-.162.501-.232 2.116.351 3.927.451 6.099.052-.008 0 4.401-1.289 3.976-1.774z" fill="#ea472c"/><path d="m139.468 49.208c-.481-.484-2.152-2.099-2.828-1.641-.033-.438-1.151-.934-1.494-.792-.072-.75-3.741-2.219-4.269-1.664-.163-.489-.441-.559-.8-.242-.136-.485-.545-.522-.822-.207.026-.089-.047-.2-.22-.332-.497-.124-1.648-.462-2.026-.104.028-.08-.089-.174-.351-.278-2.223-.145-5.776-.538-8.035.393l-.101.142c.077-.172-.818.102-.792.1-.348.028-.558-.205-.827.24-.337.946-.969-.494-1.097.971-.045.51 1.154 1.609 1.62 1.407-.066.508.154.702.644.563.006.51.2.637.71.491-.064.065-.033.197.104.388.438.247 1.456.972 1.909.716.452 2.837 9.114 1.6 10.902 2.264.063-.072.182-.145.355-.219 1.62.074 2.964.02 4.589-.508-.084.028 3.224-1.333 2.829-1.688z" fill="#ea472c"/><path d="m128.132 34.222c-.394-.379-1.763-1.64-2.295-1.261-.033-.333-.919-.735-1.211-.606-.072-.599-3.037-1.706-3.449-1.252-.14-.388-.364-.44-.645-.179-.118-.386-.446-.408-.662-.151.019-.072-.041-.16-.183-.262-.4-.09-1.328-.339-1.624-.045.021-.065-.074-.138-.286-.216-1.732-.072-4.663-.31-6.426.465l-.078.116c.058-.139-.653.097-.632.095-.278.029-.45-.154-.658.207-.188.57-.733-.19-.947.628-.111.425 1.061 1.429 1.411 1.266-.043.408.137.559.527.438.014.408.173.506.578.379-.05.053-.023.158.091.309.356.189 1.184.751 1.542.537.429 2.335 7.22 1.073 8.772 1.609.049-.059.143-.12.28-.182.582.015 6.507-1.37 5.895-1.895z" fill="#ea472c"/><path d="m117.23 21.752c-.297-.289-1.33-1.253-1.736-.967-.024-.259-.693-.562-.917-.465-.054-.48-2.324-1.279-2.612-.966-.105-.295-.274-.335-.489-.139-.088-.293-.337-.311-.502-.117.015-.055-.03-.121-.137-.199-.303-.07-1.006-.263-1.233-.042.016-.049-.056-.105-.216-.165-1.325-.063-3.532-.259-4.879.324l-.06.088c.045-.105-.496.071-.48.069-.211.021-.341-.119-.5.154.079-.234-1.313 2.197.343 1.44-.034.309.101.425.398.335.009.31.129.385.437.291-.038.04-.018.12.067.235.269.145.895.575 1.168.415.304 1.713 5.526.864 6.65 1.26.038-.044.109-.09.214-.137.35.01 5.02-.949 4.484-1.414z" fill="#ea472c"/><path d="m127.196 154.804c-.881-.319.46-9.249 2.342-9.604-1.85-2.121 1.068-2.036.518-3.578-.928-.372-2.837-2.226-1.549-3.192-1.165-.615-.993-1.966.283-2.285-.459-1.212.366-2.062 1.681-1.635-.139-.162-.013-.521.614-.897 1.085-.259 4.339-.445 4.983.427 1.234-1.951 7.05-.681 8.95-.69 1.903-.009 7.59-1.248 8.892.619l.253-.022c.434-.661 2.914-.202 3.676.078l.155-.032c1.461-1.069 2.937.117 4.424-.524.153.166.438.331.853.492 5.489-.399 11.287-.619 16.927-.496 1.739.746 3.395 1.081 4.192 3.006.421 1.017.82 3.34-.948 3.257.325.786-.147 1.632-.799 1.674.7 1.026.974 2.259 1.029 3.484-.068.28-.169.457-.299.531-.544.627 2.226 4.228.938 5.742.258-.114.592.302.914 1.262l-.472 1.835c.094 1.536 1.285 7.319-1.272 7.903 1.223 1.293.979 2.274-.656 2.886 1.002 1.435.728 2.208-1.004 2.821.321.059.481.488.464 1.307-.668 1.483-2.362 5.741-4.219 5.769.435 1.124-.34 1.864-.97 2.707-8.001.236-15.995-.098-23.99-.355-1.792-.058-2.929-.064-4.583-.202-2.145-.179-6.809-.391-8.875.501-.222-.242-.637-.481-1.241-.716-.353.026-2.704 1.69-3.126.662-5.067-6.174-8.345-14.377-8.128-22.415.025-.059.043-.32.043-.32z" fill="#382d16"/><path d="m489.75 303.259c-.052-.504-.243-.909-.826-1.091.786-.714-.129-3.179-.946-3.501 1.162-1.51-4.378-8.506-6.112-7.559-.034-1.095-.633-1.415-1.516-.956-.066-1.052-.961-1.337-1.641-.773.546-1.161-4.146-1.81-4.698-1.325.04-.113-6.863-.42-7.481-.44-2.617-.081-5.231-.009-7.848-.079-1.454-.039-4.925-.866-6.003.449-.255.763-2.032 1.356-2.433 2.424-.346.92-.533 3.533.591 4.033-.888.605-.891 1.134-.048 1.759-.837.645-.833 1.063.008 1.777-.981-.194-.518 4.43-.086 4.747-3.359 2.113 2.072 5.418 4.004 5.698 4.507.651 9.505-.805 14.095-.67.93.027 18.399 1.464 18.026-.762l.029-.003c.038 1.423 1.144.983 1.894.427 1.265-.936 1.024-2.81.991-4.155z" fill="#ea472c"/><path d="m465.434 188.694-2.399-.515v-.001c-.014-.002-.029-.005-.043-.009l.231-2.262c-.006-.026-1.888-.254-2.05-.291-.621-.089-1.596-.463-2.301-.366-1.53.031-3.046-.074-4.548-.377-.72 2.039-2.969 6.835-.72 8.685-2.148.776-1.095 1.723-1.387 3.456-.323 1.917-1.953 2.478-.567 4.451-3.656 1.169-3.222 7.289-3.903 10.229-.648 2.799-4 8.911-1.013 11.309-2.305.963-2.582 2.245-.933 3.911-2.335.752-2.45 2.639-.894 3.97-.437-.122-.982.226-1.626 1.037-.499 2.01-.713 3.36-.863 5.434-.099 1.361-1.205 2.85-.264 4.121-.37-.183-.897.315-1.558 1.472-.815 3.533-1.246 7.131-1.871 10.699-.522 2.977-1.927 5.531-2.53 8.443-.633 3.057-.693 6.062-1.644 9.06-.982 3.094-2.402 6.073-2.346 9.398.12.373.274.609.462.705.33.339.297.454-.122.638-1.213.638-2.233 6.032-1.491 7.13-.346-.202-.856.307-1.503 1.501-.28 1.12-.074 2.287-.307 3.417-.299 1.448-1.81 2.663-.715 4.204 1.651-.575 3.555.228 5.2.374 2 .177 4.189.061 6.088-.642.033-1.085-.146-2.088-.678-2.866.553-.247 1.031-.596 1.432-1.049 1.157-.939.441-2.296-.324-3.198 2.22-1.01 2.433-1.953.916-4 .41.186.947-.169 1.596-1.056.447-1.977 2.438-8.007 1.095-9.571 3.074-1.062 2.641-7.538 3.275-10.112.975-3.954 2.371-7.79 3.1-11.802.285-1.57 1.131-13.497 2.259-13.881 2.688-1.278.261-2.052.53-3.676-.026.159 1.463-2.265 1.51-2.363-.35-.433-.521-.92-.512-1.461 3.213-1.883 1.264-6.001 3.183-8.588-.26-.378-.457-1.017-.587-1.911l1.686-2.611c1.707-4.43 2.026-9.895 3.203-14.53 1.363-5.365 2.797-10.717 3.941-16.134-.011-.085-.018-.181-.008-.372z" fill="#ea472c"/><path d="m615.694 202.313c-.246-.375-3.601-.526-3.833-.558l.051-.189c-4.976-.467-9.968-.628-14.893-1.543-3.72-.691-8.221-2.038-11.69.205-2.543-1.976-5.583-1.296-8.545-1.488-3.324-.215-6.635-1.669-9.952-.596-2.909-2.432-7.046-2.25-10.603-2.48-5.204-.337-10.354-1.197-15.544-1.682-4.469-.418-8.935-.674-13.359-1.468-3.382-.607-7.583-1.73-10.695.356-3.121-2.195-6.106-2.495-9.133-1.003-2.658-2.212-6.929-2.375-9.244-.96.086-.403-.918-.926-3.001-1.561-3.688-.414-7.404-.427-11.096-.777-3.482-.33-7.286-1.762-10.737-.57.249-.343-1.081-.858-3.945-1.509-2.761-.292-5.548-.592-8.301-.875-.777 3.483-.654 7.073-1.788 10.487-.876 2.639-.784 5.248-1.574 7.804-.455 1.47-1.233 2.482-1.473 4.053-.227 1.487-.046 2.968-.389 4.457-.821 3.57-2.659 6.838-3.483 10.434-1.689 7.375-2.718 14.867-4.707 22.178-2.01 7.389-4.361 14.718-5.368 22.336.009.789.086 1.269.24 1.423.443 1.295-1.071 2.535-1.468 3.637-.564 1.564-.255 3.321-.533 4.935-.532 3.087-2.545 5.864-1.959 9.11-.283-.343-.935.943-1.938 3.773-.12.489-.163.943-.172 1.363-.677.24-1.303.918-1.887 2.007-1.835-2.615-4.228-2.032-5.291.42-.017-.592-.66-1.141-1.912-1.629-2.572.147-4.441.415-6.894 1.071-1.855.496-4.121-.589-5.446 1.218.086-.532-.737-.995-2.435-1.372-2.936.215-5.706 1.363-8.41 1.357-1.257-.003-1.997.489-3.183.595-1.199.107-3.031-.262-4.351-.332-.327.494-.753.845-1.277 1.053-.656.428-1.262.152-1.819-.828-2.851-.166-5.688.536-8.538.514-.9-.007-1.76-.352-2.663-.052-.702.234-.842 1.197-1.676 1.262-.83-.642-1.767-.99-2.813-1.046-2.729.26-5.398 1.007-8.131 1.193-2.399.164-4.859-.42-7.202.35-.42.292-.652.575-.703.84-.519.959-1.727-.758-2.452-1.004-1.402-.701-2.888 1.169-4.151 1.466-2.009.472-3.907-.771-5.891-.814.412 1.346 1.835 3.336 3.91 5.12-.695-.326-.806.643.094 3.825l.077.172.146.232c.154.196.337.359.549.489 1.204 1.279 1.936 1.659 2.075 3.422 1.152.78 2.589 1.103 3.945.66 3.058-1.529 10.105 2.656 11.766-1.14 1.835 2.667 3.404 2.418 5.274-.129 1.955 2.513 2.633 2.736 4.768.197-.112.575 1.081.472 2.401 1.029 2.582-.027 5.109-.763 7.698-.628 1.927.1 3.401 1.007 4.77-.873 1.346 2.097 3.986 1.71 6.09 1.602 3.125-.16 6.23-.308 9.361-.3 6.744.018 13.566.977 20.283.018l4.176-.017c1.865.443 4.603.746 6.389-.094l.009-.009c.502-.269 1.047-2.101 1.698-1.081.84 1.037 2.284 1.745 3.516.798 1.458.16 2.535.461 3.97.123.818-.193 2.046-1.611 2.976-.878l.24-.12c3.404 1.767 5.608 1.758 9.382-.017-.311.622 2.999 1.17 3.173 1.201 4.099-.009 8.241.523 12.203-.232 1.39.347 2.865.457 4.288.292 1.475.172 2.839-.026 4.09-.497 15.768 1.547 31.653.757 47.465.711 7.756-.023 15.483-.678 23.226.02 2.867.258 5.783.764 8.63.19 1.43-.288 4.683-2.185 6.091-1.272 3.336 1.686 7.581.11 11.225.728 1.241.098 2.514.232 3.756.129.258-1.213.401-2.459.472-3.696-.199-3.554 2.169-6.646 3.218-9.891 1.312-4.059 1.48-8.406 3.299-12.319-.12-.763-.069-2.127.146-4.065.798-2.674 2.27-5.084 3.091-7.754.94-3.056 1.418-6.27 2.206-9.367 1.697-6.67 3.59-13.299 5.609-19.877 3.918-12.761 7.141-25.714 10.506-38.628.017-.171.06-.429.12-.772l.171-2.513z" fill="#4f73b6"/><path d="m550.213 248.383c.738-.62.709-1.081-.034-1.749.166.029.339-.178.452-.629-.083-.822-.239-3.597-1.096-4.009 1.693-2.091-3.41-7.134-4.687-8.203-.209-.145-.4-.311-.597-.5-.94-.617-1.954-1.062-3.044-1.335-.525-.229-1.099-.213-1.672-.278-.045-.001-1.074.397-1.101.361-.495-.488-3.798.515-4.359.767-.358.208-.995.445-1.375.795-.357.379-.72.696-1.231.838-.027.19-.144.454-.343.785-.168.125-.593-.011-.856.228-3.265 3.586-5.606 7.527-6.76 12.28l-.003.15.902.205-.003.018-.917-.189-.047.108c-.223.988-1.373 4.928-.108 5.647-.795.581-.57 2.882.167 3.467-.398.52-.487 1.081-.267 1.683.257 1.267 1.953 7.375 3.812 6.996-.157.953.274 1.482 1.208 1.26-.09.771.523 1.515 1.421 1.061-.093.132-.031.415.273.759.749.594 1.6.854 2.552.782.812-.309.657.978 1.69-.012-.049.151.211.305.809.449.511.026 4.241-1.422 4.237-1.425 1.102.568 4.336-2.694 4.696-3.045 1.188-.786 3.484-4.146 3.844-5.704-.002-.164-.033-.272-.093-.325-.085-.163-.061-.207.117-.253.558-.192 1.31-2.434 1.092-2.919.121.094.341-.108.653-.607.222-.76 1.398-5.198.537-5.735.807-.524.833-1.093.131-1.722z" fill="#ea472c"/><path d="m528.943 209.026c-2.569 2.459-4.861 5.267-7.351 7.819l-.207.252c-2.389 1.87-9.043 6.891-9.696 10.056-1.884.685-5.116 4.191-5.941 5.926-3.864 1.24-5.913 5.387-8.684 8.03-2.524 2.409-6.546 4.392-7.386 8.085-1.514.553-2.438 1.457-2.995 2.89-1.293.42-2.665 1.52-3.025 2.889-1.737.446-2.65 1.977-3.847 3.152-1.283 1.26-3.153 2.168-4.176 3.662l3.863 4.08c.934-.487 1.633-1.214 2.096-2.181 2.733-.943 4.265-3.719 6.344-5.536 1.72-1.503 4.53-2.743 4.96-5.25 1.486-.536 2.382-1.396 3.01-2.904 1.496-.611 2.21-1.308 3.005-2.992 2.917-.619 3.573-3.876 5.692-5.349 1.043-.58 1.833-1.482 2.276-2.591 2.563-.905 4.241-3.556 6.013-5.473 2.281-2.467 4.737-4.82 7.159-7.148 4.391-4.222 9.767-7.766 13.142-12.928z" fill="#fff"/><path d="m477.858 246.724c.71-.165 1.129-.627 1.258-1.386 1.247-.023 7.345-5.114 7.09-6.564 1.207-.045 1.769-.569 1.878-1.777 1.194-.111 1.637-.54 1.845-1.861 2.128.268 2.27-2.582 3.595-3.23.784-.22 1.233-.817 1.296-1.711.482-.014.863-.17 1.105-.468 2.833-2.967 6.171-5.41 8.957-8.42 1.699-1.835 5.38-4.507 6.303-6.803l-5.34-5.465c-1.581 1.472-2.87 3.427-4.358 5.017l-.113.171c-1.25.774-6.067 4.689-5.829 6.378-1.195.047-3.471 2.613-3.645 3.689-2.317-.022-4.019 3.197-5.334 4.675-1.235 1.387-4.75 3.272-4.499 5.384-1.228.051-1.801.609-1.868 1.769-1.186.018-1.818.605-1.897 1.759-2.097-.166-2.548 2.586-4.031 2.928-.725.26-1.048.464-1.265.949z" fill="#fff"/><path d="m663.256 329.205c.155.941.341 1.969.512 2.942v.011c-6.934.718-13.871-.694-20.812-.175-3.214.24-6.314.507-9.546.196-.306-.029-4.684-.931-4.702-.918-6.754 1.536-13.676-.112-20.499.222-3.368.165-6.799.874-10.178.602-2.827-.228-5.827-1.539-8.651-.616-1.349 1.131-3.636.734-5.244.765-2.8.053-5.598.199-8.399.24-5.665.083-11.313-.094-16.972-.341-11.536-.505-23.078.356-34.616-.143-11.114-.481-22.172.422-33.28.475-10.996.053-22.142-2.628-33.085-.612-3.244-.076-6.503-.12-9.778-.12-2.986-.49-5.746-.483-8.738.043-4.144.044-8.288.131-12.447.219-7.972-.742-15.968.223-23.943.396-3.699.08-7.439.137-11.128-.201-.504-.046-5.072-1.02-5.127-.972-7.322 1.819-15.025.726-22.479.878-8.314.17-16.618.267-24.935.237-4.641-.47-6.922-.941-6.829-1.411-4.687 1.892-13.937 2.231-20.192.022-6.177 2.078-12.68 2.111-19.912-.022-7.433 3.277-16.012 2.158-23.868 1.74-9.773-.52-19.555-.176-29.334-.091-9.821.085-19.641-.26-29.461-.095-8.863.149-18.326 1.572-26.876-1.468-6.685 1.586-13.502.369-20.269.415-6.699.045-13.572 1.607-20.114-.536-6.225 2.671-13.278 1.897-19.858 1.728-8-.206-16.013-.534-24.016-.449-.207-4.098-.681-8.169-1.111-12.247-.283-2.682-.83-6.035.848-8.401l-.279-2.942c29.639.492 59.275-.615 88.917-.111 14.677.25 29.359.391 44.039.365 6.842-.012 13.679-.208 20.519-.293 7.598-.094 15.135.956 22.725 1.068 4.175-.339 7.062-.689 8.598-1.05 10.497.984 21.05-.34 31.558.517 10.656.869 21.236 2.117 31.938 2.284 20.393.317 41.104 1.591 61.222-2.57 24.167-.07 48.334-.427 72.501-.333 11.863.046 23.742.685 35.602.191 10.809-.451 22.153-2.403 32.663 1.137 7.436-2.141 15.306-.885 22.913-1.058 8.182-.186 16.349-.091 24.532-.101 5.013.438 7.325.908 6.891 1.367 8.179-2.034 12.975-2.045 20.362-.022 7.139-2.034 13.208-2.023 20.13.12 5.634-2.679 14.698-1.575 21.107-1.564.023 3.792.299 7.631-.148 11.41-.36 3.087-1.444 6.145-.751 9.272z" fill="#382d15"/><path d="m219.575 446.499c-1.095-8.709-.202-17.546.437-26.254.241-3.287.702-6.709.035-9.96-.206-1.005-1.971-4.838-1.255-5.724 1.202-1.909.185-3.691-.119-5.655-.412-2.667.334-5.328.41-8 .148-5.242-.609-10.513.516-15.698-.298-.545-.593-1.561-.883-3.041.735-19.95 1.11-40.213.89-60.35-.028-.131-.056-.331-.081-.594l-2.153-.001v-.001h-.075l-.075-2.179c-.931-1.365-10.974.213-12.88.181-.07 4.032-2.267 11.308 1.039 14.584-1.712 2.218-.497 4.633-.45 7.116.048 2.505-.971 4.806.351 7.174-3.843 4.582-1.56 12.244-1.303 17.617.19 3.977.4 8.008.114 11.984-.206 2.861-1.098 6.887 1.266 9.159-1.778 2.561-1.76 4.863-.021 7.054-1.846 2.212-1.569 5.483.024 7.14-.398-.035-.794.776-1.183 2.418-.023 3.204.035 6.332.242 9.524.145 2.234-.501 5.221.693 7.254-.353-.166-.704.894-1.039 3.133.005 5.911 1.234 11.746.495 17.62-.264 2.102.144 3.868.062 5.955-.113 2.889-.63 5.738-.669 8.646-.075 5.657.299 11.297.109 16.956-.206 6.138-.465 12.301.299 18.414.177.59.355.931.534 1.022.855 1.097-.537 4.456-.689 5.69-.317 2.571-.412 5.88.853 8.226-.336-.208-.67.865-.986 3.161-.026 2.944-.498 7.24.238 10.053 4.898-.941 10.321.209 15.334.263.008-1.002.264-3.642-.247-4.816-.2-.742-.542-1.371-1.091-1.86 1.798-2.45 1.804-4.595.098-7.126 1.694-2.611 1.688-4.306-.017-7.199.388.154.775-.666 1.153-2.441-.016-4.225 1.442-13.241-.978-16.789 2.014-2.534 1.247-6.141 1.076-9.091-.264-4.518.492-9.062-.074-13.565z" fill="#382d15"/><path d="m557.224 446.499c-1.066-8.484.2-17.104.126-25.618-.03-3.388.421-6.956.053-10.315-.127-1.162-1.748-5.033-.962-6.006 1.479-2.347-.109-4.6.021-7.054.062-1.174.752-2.26.666-3.448-.075-1.033-.736-1.9-.881-2.922-.348-2.447.951-4.996 1.043-7.446.107-2.856-.662-5.625-.042-8.484-.298-.545-.593-1.561-.883-3.041.079-2.157.809-4.229.944-6.382.158-2.52-.255-5.081-.304-7.603-.093-4.818-.004-9.662.182-14.476.412-10.635.184-21.251.069-31.889-.028-.131-.056-.331-.081-.594l-2.153-.001v-.001h-.075l-.075-2.179c-.932-1.366-10.973.213-12.88.181-.068 3.889-2.168 11.406 1.039 14.584-1.71 2.216-.494 4.635-.45 7.116.044 2.508-.973 4.803.351 7.174-1.938 2.311-1.362 5.603-1.257 8.365.147 3.868-.089 7.734-.055 11.603.031 3.472.158 6.932.011 10.403-.114 2.683-.805 6.291 1.377 8.387-1.778 2.561-1.76 4.863-.021 7.054-1.846 2.212-1.569 5.483.024 7.14-.398-.035-.794.776-1.183 2.418-.024 3.204.033 6.332.242 9.524.146 2.232-.5 5.224.693 7.254-.353-.166-.704.894-1.039 3.133.003 3.12.979 6.208.812 9.327-.123 2.305-.388 3.961-.124 6.204.565 4.806-.598 9.888-.874 14.705-.333 5.83.657 11.651.475 17.486-.207 6.635-.82 13.248.008 19.87.177.59.355.931.534 1.022.685.88-.354 1.723-.405 2.549-.075 1.22.093 2.109.203 3.335.232 2.566-.925 5.64.364 8.032-.336-.208-.67.865-.986 3.161-.025 2.979-.51 7.195.238 10.054 4.935-.948 10.284.209 15.334.263.01-1.373.326-3.5-.247-4.816-.2-.742-.542-1.371-1.091-1.86 1.798-2.45 1.804-4.595.098-7.126 1.694-2.611 1.688-4.306-.017-7.199.388.154.775-.666 1.153-2.441-.012-3.03-.28-6.06-.201-9.091.066-2.529.765-5.438-.777-7.698 2.178-2.739 1.118-6.953 1.062-10.135-.073-4.174.465-8.357-.059-12.519z" fill="#382d15"/><path d="m664.516 334.422v.197c-6.845.575-13.717.137-20.574.176-3.26.019-6.523.102-9.777-.165-.44-.036-4.472-.924-4.758-.762-6.762 1.281-13.605-.036-20.411.128-3.293.079-6.593.655-9.887.55-2.973-.095-6.14-1.302-9.085-.504-1.705 1.18-4.413.654-6.351.639-3.766-.031-7.528.013-11.295-.077-6.613-.158-13.223-.419-19.838-.273-6.831.151-13.655.63-20.49.609-6.902-.02-13.782-.71-20.683-.759-14.149-.1-28.277 1.011-42.428.37-13.917-.631-27.765-.694-41.693-.324-7.461.198-14.921.438-22.384.557-3.948.063-7.904.131-11.849-.095-.622-.036-5.608-1.146-6.003-.856-7.625 1.565-15.527.714-23.25.858-8.08.15-16.152.099-24.233.066-4.642-.393-6.93-.785-6.838-1.178-4.694 1.582-13.951 1.859-20.211.023-6.193 1.732-12.702 1.755-19.948-.023-12.561 4.603-26.855 1.078-39.86 1.134-14.866.064-29.734-.098-44.598.193l-4.429 1.097c-7.379.23-13.665-.211-20.791-2.344-6.714 1.328-13.531.31-20.302.347-6.699.037-13.545 1.346-20.132-.45-6.573 2.341-13.733 1.604-20.565 1.427-7.79-.202-15.587-.414-23.38-.364-.064-1.479-.14-2.956-.223-4.434-.292-2.166-.489-4.225-.401-6.411 28.39-.085 56.754.025 85.142.447 14.061.209 28.12.186 42.182.113 6.895-.036 13.836-.598 20.723-.293 6.598.292 13.137 1.36 19.744 1.515 4.195-.531 7.074-1.074 8.613-1.628 7.564 1.066 15.196.08 22.781-.131 3.698-.103 7.483-.288 11.176.041 3.326.296 6.462 1.57 9.772 1.857 3.375.293 6.149-1.192 9.422-1.598 3.456-.429 6.61.979 10.005 1.286 6.696.605 13.444-2.654 19.974.035 2.23 1.182 5.439.016 7.69-.52 2.854-.68 5.664-1.059 8.605-1.124 7.958-.178 15.957.427 23.923.435 16.802.017 33.594-.629 50.398-.594 16.542.034 33.085.836 49.622.767 13.485-.057 30.108-5.052 42.71 1.442 6.923-3.078 14.743-1.405 22.04-1.591 8.514-.217 16.989-.221 25.508-.221 5.023.704 7.337 1.42 6.903 2.136 8.192-3.152 12.992-3.164 20.395-.035 7.166-3.152 13.241-3.141 20.171.185 4.206-3.091 9.927-3.042 14.907-2.945 3.039.059 6.064.367 9.096.478.907.033 1.683.224 2.576-.095.445-.159 1.27-1.115 1.687-1.106l.629 2.023c-.676 3.413-.205 6.373.273 9.769z" fill="#f0c418"/><path d="m162.486 419.519c-.039 3.067-.605 6.017-.821 9.056v.011c-.228 2.56.092 5.045-.394 7.601v.011c-1.173 5.8-.77 11.714-1.157 17.579-.184 2.78-.619 5.513-.724 8.301-.103 2.74-.969 5.024-1.248 7.662l.098.755v.011c.084.586.23 1.155.438 1.707-.714 2.417-.204 4.892-.47 7.349-.212 1.962-1.185 3.835-1.273 5.801-.028.639.565 1.306.528 1.921-.057.94-.51 1.608-.616 2.498-.245 2.064.809 4.369-.564 6.218-.572.615.398 1.525.461 2.108.147 1.352.026 2.672-.097 4.019-.276 3.028-.796 6.027-.837 9.075-7.323.467-14.718-.137-22.052-.123-3.618.007-7.223-.099-10.837.147-2.528.172-5.656.769-7.872-.834-1.788 1.239-4.124.608-6.138.612-2.511.005-5.028.176-7.543.186-1.444-.306-2.111-.623-1.99-.941-2.362 1.389-3.74 1.4-5.873.011-1.659 1.124-4.724 1.594-6.409.109l.12-.481.011-.011.011-.066c-.481-.153-.842-1.006-1.105-2.111-.987-2.905-.181-5.945-.375-8.92-.187-2.867-1.079-5.681-1.299-8.524.098-1.892.295-2.789.58-2.636-1.226-1.856-.44-3.597-.667-5.625-.115-1.026-.841-1.85-.83-2.921.009-.86 1.127-1.987.372-2.794-.153-.066-.317-.328-.503-.798-1.909-8.729-1.202-17.966-2.453-26.797-.283-2.001-.661-3.947-.502-5.972.073-.928.593-1.866.483-2.808-.086-.736-.777-1.362-.891-2.07-.504-3.148.479-6.97-.784-10.09v-.011c-.915-1.881-.672-4.893-.853-6.966l.022.131-.022-.186c-.005-.19.675-3.558 1.116-3.073-.546-4.782 7.227-8.2 10.717-9.58 1.411-.208 2.154-.109 2.231.208.973-1.943 3.795-2.594 5.654-1.673.689-.875 1.509-1.433 2.439-1.63h.011c.973-.219 2.056-.055 3.248.503 2.265-3.293 11.99-2.366 15.271-2.419 3.231-.053 6.467.232 9.696.339 2.233.074 5.152-.045 6.781 1.794 2.304-.877 4.01.274 6.257.682 2.082.379 3.809-.017 5.193 1.976 5.178-2.71 15.419 6.791 15.461 11.679z" fill="#382d15"/><path d="m161.622 431.112c.123 1.695-.032 3.42-.35 5.086-2.153 2.039-4.244 4.503-6.857 5.949-1.212 2.222-3.384 4.143-5.534 5.424-1.407 2.216-3.276 4.015-5.49 5.414-1.553 2.965-4.279 5.047-6.667 7.297-2.64 2.488-5.156 5.111-7.673 7.722-4.923 5.108-9.236 11.179-15.397 14.903-2.546 3.637-7.191 8.612-10.98 11.013-1.575 3.078-4.414 5.205-6.888 7.514-2.929 2.734-5.667 5.665-8.554 8.443l.011-.066c-1.571-.5-1.484-4.582-1.586-5.851 5.202-5.203 10.447-10.373 15.556-15.667 4.361-4.519 8.188-9.822 13.601-13.172 1.891-2.946 4.672-5.147 7.057-7.663 2.391-2.523 4.489-5.479 7.664-7.09 1.881-2.712 3.193-4.014 5.556-5.567 1.456-2.208 3.278-4.044 5.523-5.446 2.035-4.281 6.265-6.858 9.614-9.997 3.67-3.44 6.718-7.606 11.056-10.28.131-.175.252-.339.383-.492-.077.863-.099 1.716-.045 2.526z" fill="#fff"/><path d="m158.309 476.968c.044.798-.011 1.717-.098 2.592-4.294 4.423-8.848 8.592-13.096 13.06-3.517 3.699-6.608 8.033-11.085 10.661-2.046 2.962-4.853 5.101-7.163 7.82-2.613-.203-5.234.287-7.863.186 2.821-2.959 5.854-5.705 8.661-8.677 2.369-2.508 4.566-5.266 7.536-7.105 1.914-2.954 4.699-5.175 7.097-7.708 2.376-2.509 4.467-5.443 7.623-7.045 1.881-2.712 3.193-4.014 5.556-5.567.93-1.422 1.892-2.57 3.008-3.565.066.241.131.438.197.591-.461 1.553-.461 3.128-.373 4.757z" fill="#fff"/><path d="m113.808 439.04c-3.954 3.95-8.029 7.787-11.864 11.854-3.272 3.469-6.206 7.45-10.348 9.954-2.283 3.262-5.86 6.967-8.924 9.515-.137-2.424-.286-4.597-.525-6.988 3.425-3.341 6.505-7.773 10.608-10.313 1.892-2.962 4.687-5.17 7.084-7.693 2.336-2.458 4.395-5.304 7.44-6.951 2.156.368 4.337.651 6.529.622z" fill="#fff"/><path d="m156.231 505.13c-.354 1.993-.389 4.05-.416 6.07-.383.038-.758.051-1.148.066-6.415-6.213-12.506-12.755-18.82-19.069-2.77-2.769-5.447-5.636-8.325-8.294-2.789-2.575-5.878-4.966-7.874-8.258-3.139-2.023-5.498-4.971-8.172-7.527-2.347-2.244-5.057-4.254-6.592-7.194-2.712-1.881-4.014-3.193-5.567-5.556-2.216-1.454-4.019-3.286-5.435-5.523-3.003-1.423-4.954-4.275-7.18-6.618-2.272-2.391-4.826-4.523-6.84-7.151.256-.6.472-1.215.649-1.843-.33-.732-.693-1.446-1.09-2.144-.338-1.461.421-2.92-.15-4.347 2.53 2.449 5.702 5.191 7.393 8.301 2.223 1.197 4.158 3.391 5.435 5.534 2.242 1.422 3.937 3.128 5.414 5.49 6.159 3.082 9.893 9.256 14.66 13.966 5.201 5.138 11.453 9.37 15.252 15.77 3.622 2.521 8.649 7.197 11.013 10.98 3.509 1.783 5.871 5.075 8.466 7.911 2.987 3.264 6.249 6.26 9.327 9.436z" fill="#fff"/><path d="m121.835 511.32c-2.118.073-4.981.372-6.781-.93-.394.273-.809.492-1.247.634-4.679-4.679-11.016-9.378-14.546-14.994-2.983-1.94-5.238-4.744-7.795-7.172-2.482-2.356-5.368-4.446-6.97-7.559-.252-.175-.492-.339-.711-.503-1.069-2.06.596-3.514-.069-4.224-.793-.339-.738-3.391-.817-3.967 4.538 4.482 8.893 9.154 13.515 13.55 3.683 3.503 7.987 6.593 10.622 11.036 3.628 2.526 8.645 7.191 11.013 10.98 1.446.721 2.669 2.008 3.786 3.149z" fill="#fff"/><path d="m159.041 467.235c-.061 1.265-.983 1.968-.798 3.259-2.985-2.772-5.685-5.831-8.646-8.627-2.763-2.609-5.89-4.985-7.89-8.28-2.813-1.804-4.941-4.419-7.323-6.717-2.51-2.422-5.423-4.567-7.222-7.621 2.049-.127 4.243-.125 6.059-1.236 3.125 2.943 6.006 6.132 9.127 9.079 2.534 2.393 5.332 4.615 7.135 7.654 3.328 2.317 7.334 6.137 9.843 9.329-.099 1.279-.252 2.493-.285 3.16z" fill="#fff"/><path d="m152.662 417c-3.837-4.138-9.957-5.519-15.297-6.354-4.423-.691-12.338-2.968-16.585-.636-2.58-1.042-4.942-.978-7.354.129-2.252-.819-5.399-.796-7.425.624-5.683-1.84-19.855 2.647-20.106 9.744l.079.609c-.019 8.212 14.465 10.866 20.7 10.959 4.612 1.117 9.469.76 14.171 1.054 3.345.209 7.727.904 10.644-1.217 2.901.821 5.733-.449 8.542-1.048 2.523-.538 4.816-.916 6.975-2.457 5.141-.721 10.114-6.792 5.656-11.407z" fill="#fff"/><path d="m176.179 293.705c1.22-.277.981-.883-.043-.999.258-.021.494-.158.705-.444-.1-.864-.496-2.271-1.298-2.2.21-.076.361-.318.378-.726-.225-.359-.972-1.393-1.275-1.667-.288-.002-.566.048-.834.15.107-.285.14-.578.097-.881-.284.046-.562.116-.833.212.228-1.718-2.469-1.359-2.453-1.308-.206-.582-.288-.632-.891-.717 1.095-1.213-.523-6.04.298-7.932-1.133-1.054-.836-3.239-1.798-4.529-1.076-1.442-3.179-2.454-4.784-3.214-3.305-1.564-6.919-2.168-10.519-2.61-2.42-.297-12.003-1.995-12.922 1.441-1.005-1.004-4.683.217-5.157 1.468-4.28-3.096-11.389 9.59-6.839 11.776-1.303.938-1.289 1.781-.015 2.583-1.352.81-1.149 2.008.018 2.615-1.602-.057-.996 6.339-.182 7.031-.956-.228-.649 5.61-.695 6.449.267.279.519.57.758.872-.233.232-.446.482-.639.749.632 4.543 2.286 8.882 5.893 11.889 1.757 1.465 8.98 5.461 11.176 3.093.168-.519 8.819 1.816 9.767-.257.926 1.199 2.061 1.061 2.728-.223 1.233.974 2.138.506 2.646-.819.234 1.279 6.425-2.266 6.052-4.19 3.492.359 3.979-7.639 4.369-9.636.799-.425 2.228.292 1.865-1.312 1.118 1.312.573.027 1.029-.232.235.127.484.197.748.212.147-.328.13-.66-.051-.996 1.456 1.034 4.269-4.024 2.595-4.664.401.017.708-.126.922-.43-.158-.327-.429-.511-.816-.554z" fill="#4f73b6"/><path d="m174.727 294.051c-.782.321-.644 1.406-1.027 1.515.162.127.287.294.387.518-1.016 1.355-2.884 1.641-4.04 2.698-.57-2.173-1.464-6.08-.421-8.219 1.03-2.111 2.785-1.397 4.161.659-.194-.289.945 2.165.931 1.23-.246.126-.473.282-.681.468.252.122.507.235.767.338-.069.193-.63.081-.719.369z" fill="#4f73b6"/><path d="m167.687 277.82c.021-1.12-1.586-5.41-3.37-4.24.242-1.023-1.72-2.145-2.557-1.601.081-1.578-7.003-3.557-7.711-2.122-.371-1.14-.884-1.194-1.438-.187-.339-1.166-1.066-1.05-1.463-.107.023-.24-.128-.49-.459-.745-.911-.07-3.072-.238-3.485.536.11-.864-4.667.082-5.139.066l-.221.381c-.207.266-.421.191-.641-.224-1.361.333-11.518 3.117-10.406 5.874-.951-.967-.713 1.386-.709 1.368-.24.249-.461.514-.663.795.081.246.21.458.385.637-.094.822-.076 3.693 1.713 2.938-.477 1.135.006 1.578 1.075 1.117-.2 1.152.201 1.435 1.265.872-.837 1.015 3.012 2.371 3.617 1.775.193 2.597 8.151 2.125 9.731 2.183.986.036 1.928-.202 2.804-.24.796-.035 1.811.203 2.728.172 1.309-.044 2.605-1.168 4.04-.667.073-.203.242-.423.499-.665 3.181-.461 11.245-2.533 10.397-7.434-.001-.001-.012-.223.008-.482z" fill="#382d16"/><path d="m168.617 246.519c-1.146-.273-3.425-4.298-4.116-1.768.322.252.644.504.967.756-.223-.115-1.19-.326-1.297-.521.212.198.435.382.67.553-.277-.098-.557-.189-.839-.272.23.014.789.689.995.833-1.322-.649-.837-.38-1.179.141-.168.017-.33.054-.488.113.045.182.117.353.216.512-.287.555-1.115.119.574 1.061-1.673-.679-1.715-.549-.178.321-1.734-.711-1.562-.421-.138.345-.364-.174-.746-.308-1.14-.396-.237.356-.711.091.148.667-.039-.025-.55-.021-.551-.022.279.214.577.398.895.552-.323-.153-.671-.247-1.028-.274-.274.828.408.253.566.82l-.822-.197c.087.004.764.728.956.641-.246.112-.872-.488-1.118-.27.031-.028.811.549.902.574-.957-.257-1.457.661-.557.862-1.681-.367-.432.444-.505.52-.22-.006-.439-.001-.658.013-.295.123.916.916.926.817-.354-.105-.716-.158-1.086-.157.252.14.507.276.763.408-.1-.096-.906-.068-.928-.124.285.206.594.369.927.491-.318-.122-.657-.181-.999-.171.235.165.482.309.74.434-.044-.043-.838-.14-.883-.112.057-.035.623.414.664.422-1.573-.293-.407.548.355.834-1.773-.441-1.816-.329-.207.319-1.678-.392-1.701-.298-.097.358-.373-.124-.76-.201-1.154-.226-.213.905.657.263-.298.623.268.27.6.436.997.499-1.477-.337-.719-.026-.982.424-.168.04-.326.104-.473.193.094.154.198.3.312.439-.176.055-.348.12-.517.195l.333.437c-.162.059-.32.129-.473.21.087.147.184.286.293.418-.162.104-.286.243-.371.416.303.271.656.425 1.059.462-.12.145-1.129-.342-1.181-.108-.024.109 1.007.497 1.103.462-.272.101-.9-.329-1.145-.099.056-.053.867.414.975.425-1.435-.132-.816.569-1.178.571.288.095.567.213.837.353-.304.005-.608-.007-.911-.037-.083.227-.031.416.158.568-.167.052-.325.124-.474.216.092.154.201.295.328.422-.161.07-.318.146-.472.229.108.145.225.284.349.415-.168.062-.327.141-.477.238l.33.405c-.153.41-.353-.018-.347.467 1.241.569 3.104.567 4.465.768-.043.064.09-1.034.099-.964-.39-.12-.781-.241-1.171-.361.289.039 1.173-.101 1.391.074-.289-.114-.58-.224-.872-.33l.928.045c.043-.009-1.526-.564-1.204-.466 1.431.214.906.119 1.085-.433.153-.052.297-.122.432-.21-.096-.154-.212-.29-.348-.41.117-.574 1.06-.313-.816-.855 1.783.293 1.79.184.102-.338 1.843.334 1.61.117.062-.353.391.098.791.156 1.194.173.161-.38.689-.178-.284-.593.052.021.532-.069.546-.058-.312-.16-.637-.289-.975-.389.344.098.701.137 1.057.117.141-.802-.449-.187-.684-.694l.838.091c-.107.007-.851-.61-1.036-.499.232-.139.919.376 1.138.139-.037.04-.871-.439-.97-.454.906.139 1.417-.734.465-.868 1.711.239.381-.443.451-.524.216-.005.432-.017.648-.037.236-.103-.957-.86-.963-.748.358.088.721.13 1.089.125l-.777-.377c.112.098.894.038.927.11-.293-.193-.607-.348-.941-.463.32.116.659.171.997.163-.24-.157-.49-.296-.75-.418.047.044.83.144.877.116-.064.038-.62-.402-.667-.411 1.569.309.404-.511-.344-.811 1.76.488 1.798.4.211-.302 1.66.456 1.679.384.103-.344.367.142.749.237 1.137.288.221-.839-.638-.309.326-.555-.254-.28-.574-.467-.959-.563 1.435.444.708.093.998-.301.166-.019.325-.061.479-.126-.079-.153-.167-.302-.263-.445.179-.026.356-.061.531-.103l-.28-.455c.164-.029.326-.067.486-.116-.068-.151-.146-.297-.235-.438.17-.063.311-.165.424-.308.042-.153-.852-.721-.957-.64.141-.109 1.045.547 1.133.346.042-.096-.895-.676-.993-.663.295-.039.799.505 1.095.344-.086.046-.751-.575-.867-.612 1.269.416.985-.305 1.248-.234-.255-.161-.498-.34-.725-.537.294.08.582.174.866.284.133-.186.127-.368-.018-.547.168.004.334-.012.498-.046-.051-.166-.12-.325-.206-.476l.506-.036c-.062-.161-.13-.318-.206-.473.171.009.342.001.512-.023.135-.195-.56-.592.096-.476z" fill="#382d16"/><path d="m152.675 238.185c-1.029.297-5.164-2.138-4.576.321.41.081.819.162 1.229.243-.286-.006-1.196.236-1.422.088.285.083.574.152.866.206-.298.024-.594.058-.89.102.249-.091 1.005.284 1.279.333-1.484-.04-.94-.007-1.047.591-.148.077-.285.171-.411.282.119.146.257.271.413.375-.041.611-1.025.493.949.761-1.849-.028-1.841.093-.053.363-1.918-.052-1.646.142-.007.371-.411-.038-.824-.031-1.234.019-.046.193-.533.938.441.595-.053.019-.624.112-.6.126.342.11.691.187 1.049.229-.364-.04-.732-.017-1.088.069.002.855.485.111.815.592l-.861.064c.099-.026.971.462 1.134.317-.206.184-.997-.207-1.172.076.027-.043.96.281 1.06.278-.969.036-1.263 1.041-.296.982-1.761.113-.294.538-.347.634-.217.052-.431.113-.643.182-.234.175 1.146.66 1.129.548-.377-.011-.749.029-1.116.121l.861.204c-.129-.071-.908.165-.951.108.336.129.684.211 1.044.248-.346-.041-.696-.016-1.033.075.275.103.556.184.844.244-.056-.032-.864.06-.903.099l.804.215c-.975-.326-1.098.561.505.772-1.869-.035-1.885.075-.133.359-1.763-.017-1.764.071-.015.373-.4-.043-.804-.035-1.202.023-.009.926.716.125-.167.665.326.21.694.307 1.103.29-1.545-.037-.725.116-.897.607-.159.071-.305.163-.437.277.124.133.256.257.396.373-.166.086-.328.18-.484.282l.416.37c-.152.086-.297.181-.437.286.113.13.236.25.367.362-.208.088-.31.244-.305.468.352.222.733.319 1.145.291-.095.16-1.198-.159-1.21.076-.005.114 1.098.34 1.189.289-.264.145-.955-.194-1.173.074.054-.067.935.282 1.051.276-1.435.08-.773.686-1.106.733.305.055.606.134.899.237-.308.046-.618.074-.929.084-.053.237.026.417.237.54-.162.072-.312.162-.452.271.113.141.242.267.385.377l-.452.279c.128.131.263.255.404.371-.163.078-.316.171-.459.281l.38.365c-.114.413-.367.004-.306.469 1.359.442 3.185.328 4.617.422-.039.084.007-1.074.011-1.057-.41-.081-.82-.162-1.23-.243.29.006 1.192-.236 1.422-.088-.285-.083-.574-.152-.866-.206.298-.024.594-.058.89-.102-.249.091-1.005-.284-1.279-.333 1.491.041.937.005 1.047-.593.149-.076.286-.17.412-.281-.116-.147-.252-.273-.408-.377.034-.608 1.03-.492-.951-.76 1.849.028 1.841-.093.053-.363 1.918.052 1.646-.142.007-.371.411.037.824.031 1.234-.019.046-.192.532-.938-.441-.595.053-.019.624-.112.6-.126-.342-.11-.691-.187-1.049-.229.364.04.732.017 1.088-.069-.003-.855-.484-.111-.815-.592l.861-.064c-.099.026-.971-.462-1.134-.317.206-.184.998.207 1.172-.076-.027.043-.96-.281-1.06-.278.969-.035 1.263-1.041.296-.982 1.761-.113.294-.538.347-.634.217-.052.431-.113.643-.182.234-.175-1.146-.657-1.129-.549.377.008.749-.034 1.115-.125l-.861-.204c.129.071.908-.165.951-.108-.336-.129-.684-.211-1.044-.248.346.041.697.016 1.033-.075-.275-.102-.556-.184-.844-.244.056.032.864-.059.903-.099l-.804-.215c.975.326 1.099-.561-.505-.773 1.869.035 1.885-.075.133-.359 1.763.017 1.764-.071.015-.373.4.043.804.035 1.202-.023.009-.926-.715-.125.167-.665-.326-.21-.694-.307-1.103-.29 1.545.028.723-.115.897-.605.159-.072.305-.165.436-.28-.124-.132-.256-.256-.396-.371.166-.086.328-.18.484-.282l-.416-.37c.152-.086.297-.181.436-.286-.113-.13-.236-.25-.367-.362.208-.088.31-.244.305-.468-.352-.222-.733-.319-1.145-.291.097-.162 1.196.162 1.21-.076.005-.115-1.097-.339-1.189-.289.263-.145.956.193 1.173-.074-.054.067-.935-.282-1.051-.276 1.436-.08.772-.686 1.106-.733-.305-.055-.605-.133-.898-.233.308-.043.618-.071.929-.084.053-.237-.026-.417-.236-.54.162-.072.312-.162.452-.271-.113-.141-.242-.267-.385-.377l.452-.279c-.128-.131-.263-.255-.404-.371.163-.078.316-.171.459-.281.036-.267-.784-.283-.128-.517z" fill="#382d16"/><path d="m137.888 247.732c-.75.289-1.49-.638-2.223-.291-.186.088-.809.762-.699.783.272.018.543.036.815.054-.313-.006-.617.034-.915.121.202.053.408.091.615.116-.201-.001-.387.045-.56.139l.793.099c-.742.044-.817 1.223-.782 1.23.277.019.555.038.832.058-1.182.085-1.17.162-.014.234-1.227.073-1.043.182.016.237-.264-.001-.528.026-.787.08-.041.271-.404.232.276.34-.088.086-.2.129-.338.13l.682.088c-.234-.006-.468.03-.69.104.05.546.316.043.553.332-.194.029-.386.068-.576.119.257.042.514.078.772.109-.122.128-.648-.076-.744.113.017-.035.619.127.692.118-1.077.134-.351.427-.671.531.105-.04.411.131.536.112-.195.004-.38.045-.556.122-.001-.004.276.513.37.302-.154.047-.297.118-.43.211.025.344.744.086.781.229-.25.029-.5.065-.748.11.199.049.4.087.603.112-.186.041-.374.071-.563.091.141.184.355.228.642.132-.223-.007-.446.029-.655.105.181.05.365.086.552.109l-.571.113c.03-.036.472.124.501.12-1.26.172.102.426.39.438-1.195.081-1.199.153-.065.237-1.126.087-1.122.143.011.239-.258-.005-.515.022-.766.081.045.592.464.04-.07.434.22.116.46.157.72.124-.887.056-.776.585-.672 1.173-.069-.394.174 2.049.707.956-.258.023-.514.061-.768.116.257.047.516.087.775.119-.161.108-.62-.071-.745.112.035-.052.602.13.686.118-.912.131-.456.481-.666.529.198.018.394.052.587.101-.464.625-.78 1.146-.592 2.006.904.209 2.04.025 2.971.013.012-.034-.263-.752-.033-.708-.272-.018-.545-.036-.817-.054.313.006.617-.034.914-.121-.202-.053-.408-.091-.615-.116.201.001.387-.045.56-.139l-.793-.099c.714-.042.809-1.227.786-1.232-.278-.019-.556-.039-.834-.058 1.182-.085 1.17-.162.014-.234 1.227-.074 1.043-.182-.016-.237.264.001.528-.026.787-.08.04-.271.405-.232-.276-.34.088-.086.2-.13.337-.13l-.682-.088c.234.006.468-.03.69-.104-.049-.546-.314-.045-.553-.332.194-.029.386-.068.576-.119-.257-.042-.514-.078-.772-.109.121-.128.649.076.744-.113-.017.035-.619-.127-.692-.118 1.077-.134.351-.427.671-.531-.105.04-.411-.131-.536-.112.195-.004.38-.045.556-.122.001.005-.276-.513-.37-.302.154-.047.297-.118.43-.211-.025-.346-.742-.083-.781-.229l.747-.112c-.199-.049-.4-.087-.603-.112.186-.041.373-.071.563-.091-.141-.184-.355-.228-.642-.132.223.007.446-.028.655-.105-.181-.05-.365-.086-.552-.109l.571-.113c-.03.036-.472-.124-.501-.12 1.26-.172-.102-.425-.39-.438 1.195-.081 1.199-.153.065-.237 1.126-.087 1.122-.143-.011-.239.258.005.515-.022.766-.081-.045-.592-.464-.04.07-.434-.22-.116-.46-.157-.72-.124.885-.061.777-.581.672-1.173.069.394-.175-2.049-.707-.956.258-.023.514-.061.768-.116-.257-.047-.516-.087-.775-.119.16-.107.621.071.745-.112-.035.052-.601-.13-.686-.118.913-.131.454-.481.666-.529-.198-.018-.393-.051-.586-.099.43-.506.631-1.024.578-1.801z" fill="#382d16"/><path d="m700.341 186.827c-.098 3.62-4.265 8.968-7.874 9.427-2.198 3.762-9.285 3.04-12.73 2.439-4.464 8.113-9.791 15.716-14.52 23.673-2.091 3.518-4.312 6.972-6.178 10.617-1.688 3.297-3.03 7.246-6.239 9.412-.487 3.814-3.277 6.921-5.013 10.219-1.47 2.794-2.651 6.338-5.672 7.848-.645 3.412-1.608 5.009-4.025 6.813-.437 3.018-1.651 4.987-4.079 6.649.205 4.85-4.576 9.129-7.127 12.811-2.405 3.47-4.567 9.713-8.262 11.96-.514 1.936-1.29 3.554-2.756 4.932l-8.235-5.162h-.011l-.645-.405c1.214-3.359 3.743-6.055 5.603-9.051 1.581-2.547 2.927-5.536 5.706-7.014.011-2.603 2.001-5.293 4.112-6.639.304-2.768 1.775-5.041 4.057-6.617-.1-3.434 2.466-6.268 4.28-8.923 2.411-3.529 4.464-7.319 6.439-11.105 2.965-5.684 5.069-13.003 10.783-16.609.545-2.824 2.62-4.99 3.964-7.438 1.176-2.141 1.876-4.591 3.998-6.047-.211-4.143 3.193-7.396 5.371-10.542 2.709-3.912 4.541-8.372 7.436-12.162.405-.897.875-1.772 1.4-2.614-3.15-3.161-5.315-8.093-5.381-12.555 1.279.033 2.57.044 3.85.066l.011-.164c-1.312-.033-2.625-.055-3.937-.109-.317-3.008 1.411-7.36 3.117-9.766-2.133-.787-3.806-2.822-4.495-4.921-2.406-.93-3.937-2.472-4.867-5.009-6.173-1.378-9.397-8.223-13.551-12.336-4.627-4.582-11.48-7.959-13.627-14.524-3.139-1.476-8.782-6.671-9.985-9.93-3.443-.702-5.488-4.188-7.644-6.619-2.958-3.336-6.536-6.079-9.308-9.589-.722-.569-1.4-1.192-2.045-1.87l-.066.022c-3.423 5.84-16.175 2.493-19.937-.93-4.626-2.712-7.71-9.383-7.787-14.589 1.29.033 2.57.044 3.861.066v-.164c-1.312-.033-2.625-.055-3.937-.109-.208-1.968.634-3.401 1.039-5.249-1.531-1.258-7.48-2.308-7.677-4.681-1.05.35-3.981-.973-4.134-2.209-1.312.908-6.092-2.144-7.109-3.27l-.186-.044c-1.651-.798-4.025-1.367-5.556-2.319l5.031-9.055c3.828-.259 6.869 3.878 10.032 5.445 2.083 1.032 7.315 2.045 7.641 4.934.919-.405 1.575-.208 1.881.58.755 1.105 3.718.109 3.664 2.395.973-.339 1.487-.284 1.805.241.416-.23.82-.35 1.181-.438.919-1.936 3.412-3.084 5.479-2.92 1.717-1.422 3.915-1.772 6.07-.908 9.799-4.943 23.962 16.23 16.514 23.798-.022.984-.273 1.859-.547 2.614 5.947 5.783 11.478 11.976 17.373 17.812 2.811 2.783 5.528 5.678 8.473 8.321 2.198 1.973 4.878 3.819 5.913 6.721 3.16 1.251 5.189 4.281 7.63 6.487 2.172 1.963 5.097 3.753 5.756 6.834 2.833 1.323 4.014 2.515 5.053 5.02 2.526 1.05 3.981 2.548 4.889 5.031 4.014.678 7.043 6.912 9.602 9.46 1.017-.623 2.33-1.017 3.532-.93 1.728-1.411 3.926-1.761 6.081-.897 9.776-4.93 24.044 16.169 16.515 23.785z" fill="#4f73b6"/><path d="m628.86 283.505c0 .175-.022.35-.044.525-2.011 2.71-3.948 5.526-5.624 8.46-1.266 2.215-2.29 4.818-4.57 6.206-.514 1.936-1.29 3.554-2.756 4.932l-8.235-5.162h-.011l-.645-.405c1.15-3.182 3.531-5.726 5.311-8.55 1.627-2.582 2.933-5.535 5.582-7.264.284.099.591.142 1.017.175.886 0 1.838.273 2.505.623 1.716.743 4.507-.474 5.644 1.345.732-.95 1.279-1.289 1.826-.885z" fill="#382d15"/><path d="m654.011 306.824c.01-3.888.411-7.576-1.915-10.936-.812-1.173-3.666-4.702-5.139-2.65l.021 1.759-.021-.002v-1.781l-.083-.021c-1.896-.069-8.245-.976-9.239 1.032-.848-1.308-4.864-1.079-5.759-.08-1.015-1.703-14.734-1.812-15.633.058-1.032-1.433-1.96-1.419-2.843-.017-.891-1.488-2.21-1.265-2.878.02.011-.321-.315-.64-.975-.954-1.593-.024-5.812-.363-6.762.753.068-.284-.359-.568-1.263-.837-6.128.011-26.879-2.806-23.9 9.108.142.237.286.375.431.412.398.255-.859 5.834-.555 6.55.584-.133 1.253-.362 1.906-.688-.446.41 1.71.719 1.881.795 1.62.028 8.779.462 9.455-1.058.987 1.449 1.852 1.454 2.872.079 1.053 1.366 1.735 1.361 2.901-.014-.06.313.27.625.984.929 1.34-.01 5.939.341 6.766-.789 2.614 3.787 10.709 1.367 14.387.988 3.757-.388 7.574-.443 11.347-.63 3.835-.191 8.475-1.115 12.132.471.224-.24.623-.477 1.195-.711 1.606.135 4.725.221 6.341.659.259.2 3.111.233 4.528.025-.103-.815-.184-1.65-.182-2.47z" fill="#ea472c"/><path d="m561.764 54.254c-.022-.12-.033-.241-.022-.361-.196-2.732 2.565-3.55-.448-5.763 6.781-5.436-13.113-25.701-17.838-19.762-1.323-2.767-3.565-2.997-5.129-.536-1.684-2.614-4.571-1.717-5.173.7-.109-.547-.82-.951-2.209-1.05-2.964.809-10.324 4.451-9.81 8.071-.262-.394-1.192-.153-2.592 1.028-.605.961-1.272 1.882-1.804 2.887v.011c-.244.409-.431.846-.559 1.312l-.055 2.844c-.524 1.17-1.579 1.307-2.02 2.642.274.475.393.983.358 1.525-.539.314-1.079.628-1.619.941-.13.506-.205 1.02-.226 1.542-.255.819.039 2.308-1.152 2.559-.448-.044-.426-.175-.733-.23-.165-.22-1.79 1.06-2.001 1.246v.011c-2.117 1.536-3.989 3.4-6.102 4.932-1.869 1.779-5.132 2.931-7.356 4.387-2.43 1.592-5.162 2.805-7.145 4.996-.197.427-.262.755-.175.995.022 1.17-1.049.104-1.445.285-.977.444-1.307 1.134-2.193 1.8-1.629 1.224-3.852 1.013-4.245 3.449-.131-.459-.995-.437-2.559.088-.957.603-.983 1.872-1.816 2.581-.862.733-2.196.727-3.191 1.163-1.532.672-2.373 2.721-3.458 3.103-.142 2.373 9.602 6.748 12.008 4.615.514 2.953 1.848 3.576 4.407 2.165.667 2.865 1.728 3.347 4.517 2.034-.317.448-.022 1.17.864 2.144 2.151.964 4.534 1.338 6.634 2.42 1.582.814 2.559 2.214 4.433 1.167.476 2.66 3.573 3.555 5.718 4.419 3.774 1.52 7.344 3.424 11.037 5.123 3.681 1.693 7.532 3.006 11.188 4.748 3.478 1.657 6.801 3.926 10.631 4.706.481-.317.995-.558 1.542-.733 1.047.55.945 1.867 2.055 2.494.795.449 1.696-.011 2.505.295 1.091.412 2.395 1.36 3.376 1.92.76.433.39-1.055 1.479.749 2.078 2.329 7.262 4.2 10.171 4.987-.634-2.811-.984-4.768-.7-6.748-.536-.951-1.116-2.34-1.706-3.828-.1-1.349.686-2.634.715-3.994.029-1.342-.465-2.639-.728-3.941-.621-3.078-.676-6.225-.947-9.344-.6-6.905-1.477-13.795-2.432-20.66h-.011c-.131-1.148-.316-2.292-.493-3.434 1.35-2.513 2.265-5.228 3.513-7.79.964-1.979 2.949-4.658 1.069-6.756 2.88-.657 2.155-1.902 1.872-4.154z" fill="#ea472c"/><path d="m552.118 72.507-.011-.055.087.044z" fill="#ea472c"/><path d="m561.764 54.254c-.26-2.787 2.572-3.889-.47-6.124 6.781-5.436-13.113-25.701-17.838-19.762-1.323-2.767-3.565-2.997-5.129-.536-1.684-2.614-4.571-1.717-5.173.7-.109-.547-.82-.951-2.209-1.05-2.964.809-10.324 4.451-9.81 8.071-.262-.394-1.192-.153-2.592 1.028-.605.961-1.272 1.882-1.804 2.887v.011c-.232.418-.418.855-.558 1.312l-.055 2.844c-.524 1.17-1.579 1.307-2.02 2.642.274.475.393.983.358 1.525-.539.314-1.079.628-1.619.941-.13.506-.205 1.02-.226 1.542-.255.819.039 2.308-1.152 2.559-.448-.044-.426-.175-.733-.23.374.499-22.128 15.047-22.604 15.572-.197.427-.262.755-.175.995.022 1.17-1.049.104-1.445.285-.977.444-1.307 1.134-2.193 1.8-1.629 1.224-3.852 1.013-4.245 3.449-.131-.459-.995-.437-2.559.088-.957.603-.983 1.872-1.816 2.581-.862.733-2.196.727-3.191 1.163-1.532.672-2.373 2.721-3.458 3.103-.142 2.373 9.602 6.748 12.008 4.615.514 2.953 1.848 3.576 4.407 2.165.667 2.865 1.728 3.347 4.517 2.034-.317.448-.022 1.17.864 2.144 2.151.964 4.534 1.338 6.634 2.42 1.582.814 2.559 2.214 4.433 1.167.476 2.66 3.573 3.555 5.718 4.419 3.774 1.52 7.344 3.424 11.037 5.123 3.681 1.693 7.532 3.006 11.188 4.748 3.478 1.657 6.801 3.926 10.631 4.706.481-.317.995-.558 1.542-.733 1.047.55.945 1.867 2.055 2.494.795.449 1.696-.011 2.505.295 1.091.412 2.395 1.36 3.376 1.92.76.433.39-1.055 1.479.749 2.078 2.329 7.262 4.2 10.171 4.987-.634-2.811-.984-4.768-.7-6.748-.536-.951-1.116-2.34-1.706-3.828-.132-1.786.877-3.328.701-5.186-.13-1.372-.759-2.711-1.008-4.066-.628-3.426-.58-6.974-.915-10.432-.703-7.241-1.561-14.499-2.673-21.689 1.35-2.513 2.265-5.228 3.513-7.79.964-1.979 2.949-4.658 1.069-6.756 2.881-.657 2.153-1.902 1.87-4.154z" fill="#ea472c"/><path d="m552.118 72.507-.011-.055.087.044z" fill="#ea472c"/><path d="m561.972 55.271c-.132-.48-.215-.903-.23-1.378-.558-.152-1.13-.252-1.705-.295h-.219c-.497.04-.88.295-1.149.765-.583-1.126-3.862-1.374-4.713-.667-.532-1.33-11.595-3.903-12.59-2.81-.47-1.389-1.181-1.597-2.231-.711-.317-1.411-1.378-1.575-2.253-.755.099-.252-.066-.591-.492-1.017-1.15-.451-4.3-2.029-5.402-1.465.142-.197-.088-.558-.678-1.061-2.746-1.182-5.272-2.023-7.851-3.547-1.426-.842-4.788-1.738-5.371-3.495-.366.602-.715 1.281-.909 1.957l-.055 2.844c-.524 1.17-1.579 1.307-2.02 2.642.274.475.393.983.358 1.525-.539.314-1.079.628-1.619.941-.13.506-.205 1.02-.226 1.542-.255.819.039 2.308-1.152 2.559-.448-.044-.426-.175-.733-.23-.165-.22-1.79 1.06-2.001 1.246v.011c.674 1.154 3.07 2.762 4.309 1.673.23 1.444.886 1.75 2.133 1.072.317 1.4.831 1.64 2.198 1.006-.153.219-.022.569.415 1.05 1.039.47 1.914 1.323 3.183 1.181.864-.174.779 1.375 2.199.601.229 1.744 3.626 2.316 4.997 2.976 2.04.982 4.018 2.083 6.095 2.984.954.414 8.394 2.608 8.482 3.313.093.378 2.156 1.576 2.767 1.914l1.367-.131c1.123 1.899 3.245 1.395 4.561 2.865.252-.098.645-.131 1.181-.098 1.041.543 1.863 1.611 3.183 2.11h.011c-.152-1.147-.327-2.291-.504-3.434 1.35-2.513 2.265-5.228 3.513-7.79.964-1.979 2.949-4.658 1.069-6.756 2.782-.632 2.432-1.737 2.082-3.137z" fill="#382d15"/><path d="m517.165 40.463v-.011l.066-.011z" fill="#382d15"/><path d="m514.211 47.69-.003-.001-.012-.005z" fill="#382d15"/><path d="m431.67 128.042-3.372-6.244c1.685-2.17 4.966-3 7.345-4.105 3.497-1.625 6.846-3.644 10.172-5.589.293-.205.672-.247 1.107-.136.285-.782.839-1.2 1.595-1.197 1.272-.221 2.375-2.674 4.035-1.966.524-1.127 1.029-1.397 2.124-1.191.406-1.051 1.041-1.376 2.131-1.107.143-1.368 6.866-4.353 8.009-4.05.309-.645.801-.95 1.477-.916l3.064 5.675c-.318.378-.659.477-1.373.524-1.48-.072-2.552 2.257-4.348 1.586-.201 1.005-1.256 1.344-2.143 1.087-.357 1.019-1.01 1.37-2.121 1.102-.251 1.546-9.944 6.888-11.351 6.47-.458.975-3.182 2.609-4.198 2.363-.238 1.7-5.222 3.443-6.594 4.108l-.241.096-.144.124c-1.739 1.042-3.39 2.457-5.174 3.366z" fill="#f0c418"/><path d="m479.42 151.354-7.553-4.896c0-1.306 1.73-2.399 2.195-3.54.647-1.995 2.512-3.471 3.689-5.149 1.232-1.756 2.152-3.727 3.241-5.572.122-.279.44-.429.917-.452-.298-.821-.089-1.376.606-1.594.072-.042.108-.113.102-.204.02-.979 1.013-2.934 2.192-2.828-.325-1.215-.055-1.617 1.095-1.743-.379-1.109-.029-1.601 1.161-1.667-.781-1.229 3.505-6.124 4.445-6.16-.057-.443-.042-.747.114-.958.137-.152.335-.265.585-.337l6.864 4.45c-.021.449-.262.643-.883.896-.118.031-.184.094-.198.19-.257 1.138-1.403 2.638-2.653 2.575.588 1.107-.331 1.636-1.188 1.651.401 1.064.053 1.587-1.156 1.659.852 1.486-3.887 7.521-4.74 8.956-.146.293-.503.455-1.042.462.264 1.004-1.162 3.396-2.158 3.454.817 1.369-2.307 4.748-3.106 5.801l-.152.161-.044.159c-.837 1.468-1.38 3.349-2.333 4.686z" fill="#f0c418"/><path d="m539.998 165.784-8.74 1.375c-.858-.95-.311-2.893-.718-4.03-.761-1.713-.447-3.788-.629-5.593-.232-2.301-.882-4.535-1.337-6.798-.094-.284.04-.603.374-.933-.757-.405-.968-.948-.603-1.564.025-.078.005-.154-.059-.216-.628-.729-1.185-2.811-.253-3.508-1.036-.675-1.102-1.147-.343-1.994-1.005-.563-1.072-1.152-.244-1.982-1.376-.386-1.454-6.783-.791-7.425-.332-.287-.521-.519-.545-.776 0-.201.071-.413.206-.63l7.943-1.25c.279.342.23.642-.058 1.235-.066.1-.073.19-.02.269.566 1.016.732 2.831-.251 3.626 1.026.377.905 1.347.215 1.988.992.515 1.08 1.126.243 1.972 1.599.529 2.093 8.051 2.411 9.662.086.31-.069.663-.459 1.022.852.562 1.38 3.248.688 3.944 1.496.464 1.429 4.991 1.534 6.284l-.005.218.072.145c.35 1.622 1.191 3.357 1.369 4.959z" fill="#f0c418"/><path d="m732.177 400.021c-.161-2.27.12-5.071-2.5-6.132 2.717-2.287 2.637-4.265-.418-5.77 2.782-2.1 2.019-4.815-.703-5.816.636-.055 1.235-.805 1.629-2.239-.513-3.531-.837-11.639-4.013-13.354.597.004.963-.974 1.02-2.906-.719-2.639-3.402-4.807-3.49-7.633-.027-.881.859-1.606.634-2.507-.191-.764-1.107-.993-1.494-1.604-1.133-1.786-1.817-4.713-2.624-6.611-.898-2.114-.378-4.427-1.096-6.699-.629-1.991-1.632-4.292-2.997-5.879-.752-.874-1.908-1.23-2.459-2.205-.528-.934-.302-2.377-.594-3.417-1.426-5.064-5.174-10.777-9.004-14.321-.512-.244-.921-.304-1.202-.2 1.27-.041-3.128-4.775-3.044-4.635-1.356-2.254-.522-4.15-4.056-4.385.533-.211.396-1.236-.425-3.044-2.346-3.024-5.739-4.865-7.912-8.071-1.599-2.359-3.546-5.998-7.016-4.493.495-3.514-.905-4.77-4.289-3.997.006-2.482-2.75-6.924-5.869-4.616.381-3.96-4.892-6.164-7.738-7.535-1.858-.896-3.801-1.691-5.476-2.912-1.194-.87-3.072-3.304-4.79-2.927 1.642 2.551 4.17 5.962 6.895 9.215-.502-.572-1.102-.818-1.798-.74-1.217 1.361 2.071 6.533 2.671 7.836 2.39 5.189 4.715 10.49 6.472 15.93 1.858 5.751 3.264 11.701 4.344 17.646.472 2.598.636 5.315 1.397 7.852.643 2.142 2.974 4.453 3.159 6.597-.543.695-1.021 1.435-1.435 2.218-.153 1.358.419 2.331 1.715 2.92.026 1.044-.369 3.062-.419 4.355.669.419 1.12.993 1.353 1.722-.825.934-1.285 2.022-1.38 3.263.124 2.937 1.797 6.832.734 9.652.507.41 1.03 1.201 1.564 2.372-.034 1.579-1.159 2.955-1.294 4.576-.153 1.85.441 3.78.582 5.618.325 4.243-.157 8.562-.338 12.804-.365 8.537-1.088 17.052-1.496 25.586.038.109.071.274.098.489l3.486.316v.001l.061.005.061 3.539c.49 1.416 17.804.591 19.08-1.985 1.862 2.873 3.197.755 5.785.732 2.594-.023 3.676 1.838 5.833-.57 2.61 4.376 21.925-.299 22.61 1.471-.373-3.24.412-6.336.186-9.512z" fill="#4f73b6"/><path d="m760.275 244.969c1.543-6.647 4.599-13.154 7.137-19.598-3.302 3.688-8.174 12.184-12.86 13.863l-.676-.678c-.27.399-.491.795-.687 1.192-3.208 1.354-5.478 3.879-7.262 6.705-.192.672-.194 1.168-.01 1.488.291 1.457-1.597.485-2.229.781-1.528.715-1.541 2.283-2.475 3.488-1.899 2.45-5.145 2.322-4.782 6.173-.358-.599-1.593-.245-3.605 1.117-.489 1.158-.783 2.362-.882 3.613-1.158.562-2.331 1.092-3.52 1.588-1.034 1.199-.711 2.996-1.607 4.304-.895 1.307-2.585 2.024-3.768 3.025-2.341 1.98-4.528 4.848-2.659 7.919-3.996.001-5.544 2.11-4.14 5.878-4.299.375-5.215 1.942-3.795 6.193-.583-.529-1.682-.222-3.258.953-2.036 3.704-8.25 12.193-6.249 15.973-4.317.504-6.103 6.347-7.359 9.757-2.395 6.502-4.335 13.194-6.236 19.854-1.991 6.975-3.494 14.085-5.637 21.017-1.081 3.495-1.76 5.353-.642 8.858.957 3.002-1.277 3.58-2.004 6.255-.01-.258.088-.397.294-.416 2.202 1.606-.294 6.125-.666 7.768l.966 1.449c.571 1.157.137 2.049-1.302 2.678-.587 3.845.086 11.172-1.385 14.348 1.033 1.008 1.381 3.247 1.675 4.358-.135 1.986-1.54 3.836-1.833 5.843 4.133 1.714 9.309.177 13.614.073 5.399-.13 10.807.068 16.206.099 10.772.064 21.547.155 32.318-.081.131-.056.331-.111.594-.163l.001-4.304h.001l-.001-.006v-.069l4.289-.719c1.707-.878-2.419-21.735-5.366-22.823 3.224-2.591.529-3.995.211-7.132-.328-3.228 1.955-4.582-1.281-7.052 4.856-3.388 2.25-12.296 1.781-17.082-.409-4.177-.632-8.424-.47-12.62.116-3 .815-7.143-2.447-8.805 3.611-2.445 3.686-4.653.307-7.001 3.798-2.009 3.436-5.199.39-7.08.8.094 1.616-.655 2.55-2.199.425-3.55-.433-7.127.288-10.659.479-2.345 1.623-3.88-.278-5.999.665.264 1.52-.67 2.55-2.725.343-2.294.743-4.577 1.201-6.85-.119-1.129-.468-2.166-1.047-3.112.283-1.121 1.866-2.619 2.393-3.964-.535-.895-1.022-1.814-1.46-2.758.751-.426 1.487-.875 2.209-1.348.192-2.34-.589-4.098.651-6.279 1.176-2.069 2.662-3.693 3.59-5.949.885-2.152 3.977-7.576 2.248-9.761-.056-1.113.575-1.758 1.893-1.933 1.264-2.376 3.443-4.49 4.425-7.132l.226-.181z" fill="#ea472c"/><path d="m800 349.33c-9.092.017-19.168-3.57-28.075-.17-.297.233-.458.45-.483.65-.251.526-6.612-.081-7.546 1.4.049-.38-.598-.626-1.92-.719-2.206.45-11.873 2.287-12.098 4.763-1.893-1.384-3.101-1.027-3.709 1.244-1.994-1.151-2.959-.832-3.641 1.549-.098-.418-.678-.611-1.75-.563-1.878.833-7.518 3.444-7.66 5.448-6.374-2.656-12.813 8.92-15.391 13.062-6.177 9.922-8.779 20.871-8.554 32.528.432.046.846.123 1.265.237.813-.322 1.964-.642 3.198-.956.161.009.331.075.525.168 2.107 1.787 32.173 2.206 32.952.737l-.041-2.363c.812-.015 1.625-.032 2.437-.048l.03-.108c.106-2.317 1.727-10.585-.633-12.192 1.788-.841 2.651-5.957 1.69-7.411 1.623-.444 10.137-16.432 9.399-18.1 1.857.178 3.123-.369 2.549-2.729 2.209.556 3.216-.674 2.749-2.599.264.333.881.395 1.803.193 1.71-1.33 6.385-3.918 6.715-5.714.105.376.787.449 1.978.231 2.93-1.501 9.454-3.286 10.876-5.135.318.018.688.04 1.078.05 1.256.411 2.522.413 3.797.009z" fill="#382d16"/><path d="m707.213 409.298c-.764-2.297-1.13-4.537-3.627-5.601 2.772-.876 1.185-3.223-.936-3.209 2.315-1.633 1.504-2.75-.897-2.524.549-.187 1.02-.682 1.309-1.469-.684-1.813-2.119-5.395-3.817-5.325.492-.172.788-.763.847-1.77-2.444-4.387-1.321-.961-2.941-2.773.216-.588.33-1.201.342-1.837-.702-.112-1.406-.157-2.113-.134.395-.599.604-1.271.628-2.017-.687-.067-1.373-.14-2.058-.219 1.16-3.012-2.068-4.127-3.976-5.519-3.267-2.384-5.542-5.898-8.714-8.408.152-.438-2.092-.616-2.41-1.387l-1.74.783c.296-.406.151-1.024-.466-1.838-1.956-.998-7.802-3.89-9.157-1.322-.21-2.803-1.128-3.036-2.591-.771-.45-2.666-1.213-2.759-2.687-.48.147-.556-.071-1.162-.682-1.808-1.889-.254-5.967-.617-6.575.932-1.211-3.886-18.262 2.121-21.352 2.842 6.562.795 13.265.283 19.284 3.489 2.708 1.442 5.16 3.289 7.458 5.306.733.643 1.421 1.545 2.404 1.839.453.135 2.111-.229 2.365.066-.251.655-.376 1.34-.375 2.055.707-.037 1.406-.123 2.099-.257-.321.603-.479 1.257-.473 1.961.648-.052 1.296-.055 1.943-.008-.834 2.698 2.327 3.491 1.835 5.357.471-.057 1.02.032 1.65.282 2.471 6.938 2.484 14.219 2.425 21.463.039.048 2.128 1.103 2.138 1.104-1.649 5.428 9.257 2.579 9.982-.347l.997 1.874c.519.424 3.893-.904 4.262-1.728.954 3.197 13.227 1.873 15.734 1.862.032-.1-.078-.31-.115-.464z" fill="#382d16"/><path d="m797.464 278.925c-.525.321-1.007.386-1.217-.02-1.222.569-6.858 3.607-7.261 5.002.24-.909-7.736 2.452-8.589 2.896-5.353 2.789-11.624 5.357-15.807 9.839-.257.515-.336.92-.238 1.211-.002-1.261-5.045 3.251-4.961 3.206-2.355 1.287-4.047-.358-4.566 3.639-.178-.561-1.228-.483-3.11.241-3.324 2.354-5.572 5.564-9.203 7.556-2.465 1.352-5.91 2.985-4.835 6.452-3.491-.878-4.917.345-4.548 3.868-3.497-.555-4.597.468-4.348 4.184-.364-.549-1.298-.52-2.798.104-2.438 2.537-9.2 8.043-8.391 11.538-3.557-.321-5.599 3.643-7.17 6.166-2.62 4.205-5.486 8.253-8.061 12.486-5.076 8.344-9.042 17.439-11.157 26.995.464.514.854 1.077 1.169 1.689-.487.289-.934.631-1.342 1.027-.004.077-.053 4.804.021 4.518-.327 1.268-1.953 1.516-2.094 2.915-.104 1.026.72 1.453.853 2.295.462 2.93-1.695 4.949-2.268 7.751-1.401 6.858 5.149 4.068 9.054 5.56.461-.494 1.284-.984 2.464-1.465 1.966.166 3.649 1.386 5.631 1.593 2.362.247 4.894-.281 7.265-.339 5.287-.131 10.613.128 15.9.256 4.953.12 9.921.15 14.871.337 1.354.051 6.566 1.03 7.362-.46l3.111-.564.606-3.31c.178-3.809 2.138-16.673-1.608-18.846 2.974-1.637 1.133-2.802 1.176-5.384.046-2.706 2.301-3.801.105-6.321 5.049-2.173 3.691-10.68 4.613-14.991.899-4.201 5.863-12.565 1.752-16.285 3.47-1.168 3.987-2.9 1.788-5.529 2.937-.649 3.978-3.293 1.893-5.567.613.249 1.466-.15 2.539-1.17 1.329-3.385 5.303-10.096 3.863-13.264.47.372 1.383-.163 2.684-1.557 1.339-2.701 1.582-5.475 2.505-7.889.742-.418 1.486-.834 2.231-1.248.761-.984.837-2.043.228-3.178 3.5-4.786 6.896-9.641 10.825-14.093 3.732-4.229 7.777-8.205 10.983-12.87-.771.449-1.393.777-1.92 1.026z" fill="#4f73b6"/><path d="m776.91 453.801c.362-3.208 1.59-5.933 1.187-9.224-.385-3.141-1.357-6.28-2.226-9.311-1.924-6.709-4.635-13.097-7.59-19.41-2.364-5.05-5.306-8.203-9.996-11.198-1.993-1.273-7.863-5.541-9.88-2.481.03 1.419-8.462.218-9.482.109-3.679-.393-10.508-2.02-12.613 2.229-2.217-3.421-3.76-.871-6.888-.896-3.01-.024-4.235-2.117-6.763.706-3.431-5.754-13.904-2.451-19.2-2.515-4.642-.056-15.482-3.007-17.975 2.697-2.633-2.904-6.511-2.281-7.199 1.825-3.347-1.985-7.604 1.168-5.901 4.939-1.17-.899-2.602.809-3.377 1.404-1.747 3.762-6.659 11.689-4.903 15.364-5.285-.167-4.151 10.21-5.234 13.205-.396 1.094-1.58 2.056-1.452 3.314.136 1.337 1.498 1.389 1.336 2.896-.067.617-1.564 1.147-1.729 2.247-.19 1.267.871 2.69 1.016 3.946.393 3.422-1.239 6.65-.653 10.152.656 3.921 2.506 7.906 4.444 11.343 1.813 3.215 4.148 6.104 5.936 9.334 1.754 3.168 2.841 6.803 5.514 9.375.585.297 1.047.392 1.384.285 1.371.014.194 1.817.335 2.467.322 1.483 1.792 1.764 2.645 2.913 1.706 2.296.877 5.111 4.384 5.779-.654.164-.651 1.373.007 3.559.549.911 2.564 2.688 3.194 3.429-.405 1.385.006 2.325 1.232 2.821 2.653-.007 3.467 6.395 4.682 8.282 3.155-.001 8.421 1.117 10.031-2.505 2.341 3.435 4.39 3.448 6.807.187 2.495 3.237 4.113 3.225 6.877-.032-.143.741.64 1.481 2.332 2.202 3.989-.031 13.724 1.287 16.038-1.869 1.91 2.768 5.703 2.441 8.622 2.233 4.148-.296 8.228.087 12.376.073 4.445-7.148 8.698-14.412 12.94-21.682 1.909-3.271 3.822-6.518 6.148-9.516 1.024-1.321 2.47-2.634 2.869-4.328.243-1.033-.502-2.325-.08-3.276.762-1.716 2.831-1.473 3.654-3.417.396-.936.291-2.001.773-2.931.755-1.457 2.208-2.378 2.914-3.908 1.072-2.323 2.747-4.728 3.39-7.224.893-3.471.06-7.21 1.652-10.536-.506-.597-1.066-1.634-1.578-3.056z" fill="#ea472c"/></svg>