<svg enable-background="new 0 0 420.04 533.115" height="533.115" viewBox="0 0 420.04 533.115" width="420.04" xmlns="http://www.w3.org/2000/svg"><path d="m410.563 36.135-360.793-36.135-11.86 118.414c.971 1.495 2.584 2.554 4.496 2.746l22.528 2.256c.843.084 1.678-.098 2.401-.498.151-.237.301-.475.471-.698 2.063-2.727 5.465-4.338 9.121-3.972 5.599.561 9.687 5.548 9.126 11.146-.562 5.598-5.557 9.676-11.155 9.115-2.828-.283-5.265-1.691-6.915-3.741-.767-.953-1.362-2.05-1.746-3.23-.646-.59-1.471-.971-2.366-1.061l-21.759-2.177c-2.173-.218-4.188.741-5.429 2.354l-11.203 111.858c.971 1.495 2.584 2.555 4.496 2.746l22.529 2.256c.751.075 1.494-.063 2.16-.376.226-.396.469-.778.743-1.137 2.063-2.727 5.465-4.338 9.121-3.972 5.599.561 9.687 5.548 9.126 11.146s-5.557 9.676-11.155 9.115c-2.828-.283-5.264-1.691-6.915-3.741-.639-.794-1.143-1.697-1.521-2.656-.677-.736-1.604-1.215-2.624-1.317l-21.758-2.179c-2.174-.218-4.188.741-5.429 2.354l-11.201 111.859c.971 1.495 2.584 2.554 4.496 2.746l22.528 2.256c.688.069 1.369-.042 1.99-.3.276-.538.584-1.056.946-1.53 2.062-2.727 5.464-4.338 9.12-3.972 5.599.561 9.687 5.548 9.126 11.146s-5.557 9.676-11.155 9.115c-2.828-.283-5.264-1.691-6.915-3.741-.021-.025-.036-.054-.057-.079l-.028.272-.577-1.127c-.194-.306-.365-.626-.526-.952-.682-.993-1.771-1.647-2.987-1.769l-21.759-2.179c-2.173-.218-4.188.741-5.428 2.354l-11.826 118.077 360.793 36.135c5.785.579 10.943-3.64 11.522-9.425l47.672-475.979c.579-5.785-3.639-10.943-9.424-11.523z" fill="#fff"/><g fill="#36f"><path d="m127.539 68.95h.957v.999h-.957z" transform="matrix(.995 .1 -.1 .995 7.5874 -12.4547)"/><path d="m357.695 92.955-.7-.07.1-.994.7.07zm-2.688-.269-1.988-.199.1-.994 1.988.199zm-3.977-.399-1.988-.198.1-.994 1.988.198zm-3.975-.397-1.988-.199.1-.994 1.988.199zm-3.977-.399-1.988-.199.1-.994 1.988.199zm-3.976-.398-1.988-.199.1-.994 1.988.199zm-3.977-.398-1.987-.199.1-.994 1.987.199zm-3.976-.399-1.988-.198.1-.994 1.988.198zm-3.976-.397-1.988-.199.1-.994 1.988.199zm-3.977-.399-1.988-.199.1-.994 1.988.199zm-3.975-.398-1.988-.199.1-.994 1.988.199zm-3.977-.399-1.988-.199.1-.994 1.988.199zm-3.976-.398-1.988-.199.1-.994 1.988.199zm-3.977-.398-1.987-.199.1-.994 1.987.199zm-3.976-.398-1.988-.199.1-.994 1.988.199zm-3.976-.398-1.988-.199.1-.994 1.988.199zm-3.977-.399-1.988-.199.1-.994 1.988.199zm-3.975-.398-1.988-.199.1-.994 1.988.199zm-3.977-.398-1.988-.199.1-.994 1.988.199zm-3.976-.398-1.988-.199.1-.994 1.988.199zm-3.977-.399-1.987-.199.1-.994 1.987.199zm-3.976-.398-1.988-.199.1-.994 1.988.199zm-3.976-.398-1.988-.199.1-.994 1.988.199zm-3.977-.399-1.988-.198.1-.994 1.988.198zm-3.975-.397-1.988-.199.1-.994 1.988.199zm-3.977-.399-1.988-.199.1-.994 1.988.199zm-3.976-.398-1.988-.199.1-.994 1.988.199zm-3.977-.399-1.987-.199.1-.994 1.987.199zm-3.976-.398-1.988-.198.1-.994 1.988.198zm-3.976-.398-1.988-.199.1-.994 1.988.199zm-3.977-.398-1.988-.199.1-.994 1.988.199zm-3.975-.398-1.988-.199.1-.994 1.988.199zm-3.977-.399-1.988-.199.1-.994 1.988.199zm-3.976-.398-1.988-.199.1-.994 1.988.199zm-3.977-.398-1.987-.199.1-.994 1.987.199zm-3.976-.398-1.988-.199.1-.994 1.988.199zm-3.976-.399-1.988-.199.1-.994 1.988.199zm-3.977-.398-1.988-.199.1-.994 1.988.199zm-3.975-.399-1.988-.199.1-.994 1.988.199zm-3.977-.398-1.988-.198.1-.994 1.988.198zm-3.976-.397-1.988-.199.1-.994 1.988.199zm-3.977-.399-1.987-.199.1-.994 1.987.199zm-3.976-.398-1.988-.199.1-.994 1.988.199zm-3.976-.399-1.988-.199.1-.994 1.988.199zm-3.977-.398-1.988-.198.1-.994 1.988.198zm-3.976-.398-1.987-.199.1-.994 1.987.199zm-3.976-.398-1.988-.199.1-.994 1.988.199zm-3.976-.399-1.988-.199.1-.994 1.988.199zm-3.977-.398-1.988-.199.1-.994 1.988.199zm-3.975-.398-1.988-.199.1-.994 1.988.199zm-3.977-.398-1.988-.199.1-.994 1.988.199zm-3.977-.398-1.988-.199.1-.994 1.988.199zm-3.976-.399-1.987-.199.1-.994 1.987.199zm-3.976-.398-1.988-.199.1-.994 1.988.199zm-3.976-.399-1.988-.199.1-.994 1.988.199zm-3.977-.397-1.988-.199.1-.994 1.988.199zm-3.975-.399-1.988-.199.1-.994 1.988.199zm-3.977-.398-1.988-.199.1-.994 1.988.199z"/><path d="m358.693 92.101h.957v.999h-.957z" transform="matrix(.995 .1 -.1 .995 11.0616 -35.4561)"/><path d="m123.666 107.634h.957v.999h-.957z" transform="matrix(.995 .1 -.1 .995 11.4368 -11.8734)"/><path d="m353.82 131.64-.699-.07.1-.994.699.07zm-2.687-.27-1.988-.199.1-.994 1.988.199zm-3.976-.397-1.988-.199.1-.994 1.988.199zm-3.976-.399-1.988-.199.1-.994 1.988.199zm-3.977-.398-1.988-.199.1-.994 1.988.199zm-3.976-.398-1.988-.199.1-.994 1.988.199zm-3.976-.399-1.988-.199.1-.994 1.988.199zm-3.977-.397-1.988-.199.1-.994 1.988.199zm-3.976-.399-1.988-.199.1-.994 1.988.199zm-3.977-.398-1.987-.199.1-.994 1.987.199zm-3.975-.399-1.988-.199.1-.994 1.988.199zm-3.977-.398-1.988-.199.1-.994 1.988.199zm-3.976-.398-1.988-.198.1-.994 1.988.198zm-3.976-.398-1.988-.199.1-.994 1.988.199zm-3.977-.398-1.988-.199.1-.994 1.988.199zm-3.976-.399-1.988-.199.1-.994 1.988.199zm-3.977-.398-1.987-.199.1-.994 1.987.199zm-3.975-.399-1.988-.199.1-.994 1.988.199zm-3.977-.397-1.988-.199.1-.994 1.988.199zm-3.976-.399-1.988-.199.1-.994 1.988.199zm-3.976-.398-1.988-.199.1-.994 1.988.199zm-3.977-.398-1.988-.199.1-.994 1.988.199zm-3.976-.399-1.988-.199.1-.994 1.988.199zm-3.977-.397-1.987-.199.1-.994 1.987.199zm-3.975-.399-1.988-.199.1-.994 1.988.199zm-3.977-.398-1.988-.199.1-.994 1.988.199zm-3.976-.399-1.988-.199.1-.994 1.988.199zm-3.977-.398-1.987-.199.1-.994 1.987.199zm-3.976-.399-1.988-.198.1-.994 1.988.198zm-3.976-.397-1.988-.199.1-.994 1.988.199zm-3.977-.398-1.988-.199.1-.994 1.988.199zm-3.975-.399-1.988-.199.1-.994 1.988.199zm-3.977-.398-1.988-.199.1-.994 1.988.199zm-3.976-.399-1.988-.199.1-.994 1.988.199zm-3.977-.397-1.987-.199.1-.994 1.987.199zm-3.976-.399-1.988-.199.1-.994 1.988.199zm-3.976-.398-1.988-.199.1-.994 1.988.199zm-3.977-.399-1.988-.199.1-.994 1.988.199zm-3.975-.398-1.988-.199.1-.994 1.988.199zm-3.977-.397-1.988-.199.1-.994 1.988.199zm-3.976-.399-1.988-.199.1-.994 1.988.199zm-3.977-.398-1.987-.199.1-.994 1.987.199zm-3.976-.399-1.988-.199.1-.994 1.988.199zm-3.976-.398-1.988-.199.1-.994 1.988.199zm-3.977-.399-1.988-.198.1-.994 1.988.198zm-3.975-.397-1.988-.199.1-.994 1.988.199zm-3.977-.399-1.988-.199.1-.994 1.988.199zm-3.976-.398-1.988-.199.1-.994 1.988.199zm-3.977-.398-1.988-.199.1-.994 1.988.199zm-3.976-.399-1.988-.199.1-.994 1.988.199zm-3.976-.397-1.988-.199.1-.994 1.988.199zm-3.977-.399-1.988-.199.1-.994 1.988.199zm-3.976-.398-1.987-.199.1-.994 1.987.199zm-3.976-.399-1.988-.199.1-.994 1.988.199zm-3.976-.398-1.988-.199.1-.994 1.988.199zm-3.977-.398-1.988-.199.1-.994 1.988.199zm-3.975-.398-1.988-.199.1-.994 1.988.199zm-3.977-.398-1.988-.199.1-.994 1.988.199z"/><path d="m354.82 130.786h.957v.999h-.957z" transform="matrix(.995 .1 -.1 .995 14.911 -34.8749)"/><path d="m119.791 146.319h.957v.999h-.957z" transform="matrix(.995 .1 -.1 .995 15.2861 -11.292)"/><path d="m349.946 170.323-.7-.07.1-.994.7.07zm-2.688-.269-1.988-.199.1-.994 1.988.199zm-3.977-.398-1.988-.198.1-.994 1.988.198zm-3.975-.398-1.988-.199.1-.994 1.988.199zm-3.977-.398-1.988-.199.1-.994 1.988.199zm-3.976-.399-1.988-.199.1-.994 1.988.199zm-3.977-.398-1.987-.199.1-.994 1.987.199zm-3.976-.398-1.988-.199.1-.994 1.988.199zm-3.976-.398-1.988-.199.1-.994 1.988.199zm-3.977-.399-1.988-.199.1-.994 1.988.199zm-3.975-.398-1.988-.199.1-.994 1.988.199zm-3.977-.398-1.988-.199.1-.994 1.988.199zm-3.976-.398-1.988-.199.1-.994 1.988.199zm-3.977-.398-1.987-.199.1-.994 1.987.199zm-3.976-.399-1.988-.199.1-.994 1.988.199zm-3.976-.398-1.988-.199.1-.994 1.988.199zm-3.977-.399-1.988-.198.1-.994 1.988.198zm-3.975-.397-1.988-.199.1-.994 1.988.199zm-3.977-.399-1.988-.199.1-.994 1.988.199zm-3.976-.398-1.988-.199.1-.994 1.988.199zm-3.977-.398-1.987-.199.1-.994 1.987.199zm-3.976-.399-1.988-.198.1-.994 1.988.198zm-3.976-.397-1.988-.199.1-.994 1.988.199zm-3.977-.399-1.988-.199.1-.994 1.988.199zm-3.975-.398-1.988-.199.1-.994 1.988.199zm-3.977-.399-1.988-.199.1-.994 1.988.199zm-3.976-.398-1.988-.198.1-.994 1.988.198zm-3.977-.398-1.987-.199.1-.994 1.987.199zm-3.976-.398-1.988-.199.1-.994 1.988.199zm-3.976-.398-1.988-.199.1-.994 1.988.199zm-3.977-.399-1.988-.199.1-.994 1.988.199zm-3.975-.397-1.988-.199.1-.994 1.988.199zm-3.977-.399-1.988-.199.1-.994 1.988.199zm-3.976-.398-1.988-.199.1-.994 1.988.199zm-3.977-.399-1.987-.199.1-.994 1.987.199zm-3.976-.398-1.988-.199.1-.994 1.988.199zm-3.976-.398-1.988-.199.1-.994 1.988.199zm-3.977-.398-1.988-.199.1-.994 1.988.199zm-3.975-.398-1.988-.199.1-.994 1.988.199zm-3.977-.399-1.988-.199.1-.994 1.988.199zm-3.976-.398-1.988-.199.1-.994 1.988.199zm-3.977-.398-1.987-.199.1-.994 1.987.199zm-3.976-.398-1.988-.199.1-.994 1.988.199zm-3.976-.399-1.988-.199.1-.994 1.988.199zm-3.977-.398-1.988-.199.1-.994 1.988.199zm-3.976-.399-1.987-.198.1-.994 1.987.198zm-3.976-.397-1.988-.199.1-.994 1.988.199zm-3.976-.398-1.988-.199.1-.994 1.988.199zm-3.977-.399-1.988-.199.1-.994 1.988.199zm-3.976-.398-1.988-.199.1-.994 1.988.199zm-3.976-.399-1.988-.198.1-.994 1.988.198zm-3.977-.397-1.988-.199.1-.994 1.988.199zm-3.976-.399-1.987-.199.1-.994 1.987.199zm-3.976-.398-1.988-.199.1-.994 1.988.199zm-3.976-.398-1.988-.199.1-.994 1.988.199zm-3.977-.399-1.988-.198.1-.994 1.988.198zm-3.975-.397-1.988-.199.1-.994 1.988.199zm-3.977-.399-1.988-.199.1-.994 1.988.199z"/><path d="m350.945 169.47h.957v.999h-.957z" transform="matrix(.995 .1 -.1 .995 18.7604 -34.2934)"/><path d="m115.916 185.004h.957v.999h-.957z" transform="matrix(.995 .1 -.1 .995 19.1355 -10.7105)"/><path d="m346.072 209.008-.7-.07.1-.994.7.07zm-2.688-.269-1.988-.199.1-.994 1.988.199zm-3.977-.399-1.988-.198.1-.994 1.988.198zm-3.975-.397-1.988-.199.1-.994 1.988.199zm-3.977-.399-1.988-.199.1-.994 1.988.199zm-3.976-.398-1.988-.199.1-.994 1.988.199zm-3.977-.399-1.987-.199.1-.994 1.987.199zm-3.976-.397-1.988-.199.1-.994 1.988.199zm-3.976-.399-1.988-.199.1-.994 1.988.199zm-3.977-.398-1.988-.199.1-.994 1.988.199zm-3.975-.398-1.988-.199.1-.994 1.988.199zm-3.977-.399-1.988-.199.1-.994 1.988.199zm-3.976-.397-1.988-.199.1-.994 1.988.199zm-3.977-.399-1.987-.199.1-.994 1.987.199zm-3.976-.398-1.988-.199.1-.994 1.988.199zm-3.976-.399-1.988-.199.1-.994 1.988.199zm-3.977-.398-1.988-.198.1-.994 1.988.198zm-3.975-.398-1.988-.199.1-.994 1.988.199zm-3.977-.398-1.988-.199.1-.994 1.988.199zm-3.976-.398-1.988-.199.1-.994 1.988.199zm-3.977-.399-1.987-.199.1-.994 1.987.199zm-3.976-.398-1.988-.198.1-.994 1.988.198zm-3.976-.398-1.988-.199.1-.994 1.988.199zm-3.977-.398-1.988-.199.1-.994 1.988.199zm-3.975-.399-1.988-.199.1-.994 1.988.199zm-3.977-.398-1.988-.199.1-.994 1.988.199zm-3.976-.399-1.988-.198.1-.994 1.988.198zm-3.976-.397-1.988-.199.1-.994 1.988.199zm-3.977-.398-1.988-.199.1-.994 1.988.199zm-3.976-.399-1.988-.199.1-.994 1.988.199zm-3.977-.398-1.988-.199.1-.994 1.988.199zm-3.975-.398-1.988-.199.1-.994 1.988.199zm-3.977-.398-1.988-.199.1-.994 1.988.199zm-3.976-.399-1.988-.199.1-.994 1.988.199zm-3.977-.398-1.987-.199.1-.994 1.987.199zm-3.976-.399-1.988-.199.1-.994 1.988.199zm-3.976-.397-1.988-.199.1-.994 1.988.199zm-3.977-.398-1.988-.199.1-.994 1.988.199zm-3.975-.399-1.988-.199.1-.994 1.988.199zm-3.977-.398-1.988-.199.1-.994 1.988.199zm-3.976-.399-1.988-.199.1-.994 1.988.199zm-3.977-.397-1.987-.199.1-.994 1.987.199zm-3.976-.399-1.988-.199.1-.994 1.988.199zm-3.976-.398-1.988-.199.1-.994 1.988.199zm-3.977-.398-1.988-.199.1-.994 1.988.199zm-3.976-.399-1.987-.198.1-.994 1.987.198zm-3.976-.397-1.988-.199.1-.994 1.988.199zm-3.976-.399-1.988-.199.1-.994 1.988.199zm-3.977-.398-1.988-.199.1-.994 1.988.199zm-3.976-.399-1.988-.199.1-.994 1.988.199zm-3.976-.398-1.988-.198.1-.994 1.988.198zm-3.977-.398-1.988-.199.1-.994 1.988.199zm-3.976-.398-1.987-.199.1-.994 1.987.199zm-3.976-.398-1.988-.199.1-.994 1.988.199zm-3.976-.399-1.988-.199.1-.994 1.988.199zm-3.977-.398-1.988-.198.1-.994 1.988.198zm-3.976-.398-1.988-.199.1-.994 1.988.199zm-3.976-.398-1.988-.199.1-.994 1.988.199z"/><path d="m347.07 208.154h.957v.999h-.957z" transform="matrix(.9951 .099 -.099 .9951 22.3637 -33.3818)"/><path d="m112.041 223.688h.957v.999h-.957z" transform="matrix(.9951 .099 -.099 .9951 22.7469 -10.038)"/><path d="m342.197 247.693-.699-.07.1-.994.699.07zm-2.687-.27-1.988-.199.1-.994 1.988.199zm-3.976-.397-1.988-.199.1-.994 1.988.199zm-3.976-.399-1.988-.199.1-.994 1.988.199zm-3.977-.398-1.988-.199.1-.994 1.988.199zm-3.977-.399-1.988-.199.1-.994 1.988.199zm-3.975-.398-1.988-.199.1-.994 1.988.199zm-3.977-.398-1.988-.199.1-.994 1.988.199zm-3.976-.398-1.988-.199.1-.994 1.988.199zm-3.977-.398-1.987-.199.1-.994 1.987.199zm-3.975-.399-1.988-.199.1-.994 1.988.199zm-3.977-.398-1.988-.199.1-.994 1.988.199zm-3.976-.399-1.988-.198.1-.994 1.988.198zm-3.976-.397-1.988-.199.1-.994 1.988.199zm-3.977-.399-1.988-.199.1-.994 1.988.199zm-3.976-.398-1.988-.199.1-.994 1.988.199zm-3.977-.399-1.987-.199.1-.994 1.987.199zm-3.975-.398-1.988-.199.1-.994 1.988.199zm-3.977-.397-1.988-.199.1-.994 1.988.199zm-3.976-.399-1.988-.199.1-.994 1.988.199zm-3.976-.398-1.988-.199.1-.994 1.988.199zm-3.977-.399-1.988-.199.1-.994 1.988.199zm-3.976-.398-1.988-.199.1-.994 1.988.199zm-3.977-.398-1.987-.199.1-.994 1.987.199zm-3.975-.398-1.988-.199.1-.994 1.988.199zm-3.977-.399-1.988-.199.1-.994 1.988.199zm-3.976-.398-1.988-.199.1-.994 1.988.199zm-3.977-.398-1.987-.199.1-.994 1.987.199zm-3.976-.399-1.988-.198.1-.994 1.988.198zm-3.976-.397-1.988-.199.1-.994 1.988.199zm-3.977-.399-1.988-.199.1-.994 1.988.199zm-3.975-.398-1.988-.199.1-.994 1.988.199zm-3.977-.399-1.988-.199.1-.994 1.988.199zm-3.976-.398-1.988-.199.1-.994 1.988.199zm-3.977-.398-1.987-.199.1-.994 1.987.199zm-3.976-.398-1.988-.199.1-.994 1.988.199zm-3.976-.398-1.988-.199.1-.994 1.988.199zm-3.977-.399-1.988-.199.1-.994 1.988.199zm-3.975-.398-1.988-.199.1-.994 1.988.199zm-3.977-.398-1.988-.199.1-.994 1.988.199zm-3.976-.398-1.988-.199.1-.994 1.988.199zm-3.977-.399-1.987-.199.1-.994 1.987.199zm-3.976-.398-1.988-.199.1-.994 1.988.199zm-3.976-.398-1.988-.199.1-.994 1.988.199zm-3.977-.399-1.988-.198.1-.994 1.988.198zm-3.975-.397-1.988-.199.1-.994 1.988.199zm-3.977-.399-1.988-.199.1-.994 1.988.199zm-3.976-.398-1.988-.199.1-.994 1.988.199zm-3.977-.399-1.988-.199.1-.994 1.988.199zm-3.976-.398-1.988-.199.1-.994 1.988.199zm-3.976-.398-1.988-.199.1-.994 1.988.199zm-3.977-.398-1.988-.199.1-.994 1.988.199zm-3.976-.398-1.987-.199.1-.994 1.987.199zm-3.976-.399-1.988-.199.1-.994 1.988.199zm-3.976-.398-1.988-.199.1-.994 1.988.199zm-3.977-.398-1.988-.199.1-.994 1.988.199zm-3.976-.398-1.988-.199.1-.994 1.988.199zm-3.976-.399-1.988-.199.1-.994 1.988.199z"/><path d="m343.195 246.839h.957v.999h-.957z" transform="matrix(.9951 .099 -.099 .9951 26.1744 -32.8082)"/><path d="m108.168 262.372h.957v.999h-.957z" transform="matrix(.9951 .099 -.099 .9951 26.5576 -9.4645)"/><path d="m338.323 286.377-.7-.07.1-.994.7.07zm-2.688-.269-1.988-.199.1-.994 1.988.199zm-3.977-.399-1.988-.198.1-.994 1.988.198zm-3.975-.397-1.988-.199.1-.994 1.988.199zm-3.977-.399-1.988-.199.1-.994 1.988.199zm-3.977-.398-1.988-.199.1-.994 1.988.199zm-3.976-.399-1.987-.199.1-.994 1.987.199zm-3.976-.398-1.988-.198.1-.994 1.988.198zm-3.976-.397-1.988-.199.1-.994 1.988.199zm-3.977-.399-1.988-.199.1-.994 1.988.199zm-3.975-.398-1.988-.199.1-.994 1.988.199zm-3.977-.399-1.988-.199.1-.994 1.988.199zm-3.976-.398-1.988-.199.1-.994 1.988.199zm-3.977-.398-1.987-.199.1-.994 1.987.199zm-3.976-.398-1.988-.199.1-.994 1.988.199zm-3.976-.399-1.988-.199.1-.994 1.988.199zm-3.977-.398-1.988-.199.1-.994 1.988.199zm-3.975-.398-1.988-.199.1-.994 1.988.199zm-3.977-.398-1.988-.199.1-.994 1.988.199zm-3.976-.398-1.988-.199.1-.994 1.988.199zm-3.977-.399-1.987-.199.1-.994 1.987.199zm-3.976-.398-1.988-.199.1-.994 1.988.199zm-3.976-.399-1.988-.199.1-.994 1.988.199zm-3.977-.398-1.988-.198.1-.994 1.988.198zm-3.975-.398-1.988-.199.1-.994 1.988.199zm-3.977-.398-1.988-.199.1-.994 1.988.199zm-3.976-.398-1.988-.199.1-.994 1.988.199zm-3.977-.399-1.987-.199.1-.994 1.987.199zm-3.976-.398-1.988-.198.1-.994 1.988.198zm-3.976-.398-1.988-.199.1-.994 1.988.199zm-3.977-.398-1.988-.199.1-.994 1.988.199zm-3.975-.399-1.988-.199.1-.994 1.988.199zm-3.977-.398-1.988-.199.1-.994 1.988.199zm-3.976-.398-1.988-.199.1-.994 1.988.199zm-3.977-.398-1.987-.199.1-.994 1.987.199zm-3.976-.398-1.988-.199.1-.994 1.988.199zm-3.976-.399-1.988-.199.1-.994 1.988.199zm-3.977-.398-1.988-.199.1-.994 1.988.199zm-3.975-.399-1.988-.199.1-.994 1.988.199zm-3.977-.398-1.988-.198.1-.994 1.988.198zm-3.976-.398-1.988-.199.1-.994 1.988.199zm-3.977-.398-1.987-.199.1-.994 1.987.199zm-3.976-.398-1.988-.199.1-.994 1.988.199zm-3.976-.399-1.988-.199.1-.994 1.988.199zm-3.977-.398-1.988-.198.1-.994 1.988.198zm-3.976-.398-1.987-.199.1-.994 1.987.199zm-3.976-.398-1.988-.199.1-.994 1.988.199zm-3.976-.399-1.988-.199.1-.994 1.988.199zm-3.977-.398-1.988-.199.1-.994 1.988.199zm-3.976-.399-1.988-.199.1-.994 1.988.199zm-3.976-.397-1.988-.199.1-.994 1.988.199zm-3.977-.398-1.988-.199.1-.994 1.988.199zm-3.976-.399-1.987-.199.1-.994 1.987.199zm-3.976-.398-1.988-.199.1-.994 1.988.199zm-3.976-.399-1.988-.199.1-.994 1.988.199zm-3.977-.397-1.988-.199.1-.994 1.988.199zm-3.976-.399-1.988-.199.1-.994 1.988.199zm-3.976-.398-1.988-.199.1-.994 1.988.199z"/><path d="m339.322 285.523h.957v.999h-.957z" transform="matrix(.995 .1 -.1 .995 30.3084 -32.5491)"/><path d="m104.293 301.056h.956v.999h-.956z" transform="matrix(.995 .1001 -.1001 .995 30.7153 -8.9738)"/><path d="m334.448 325.062-.699-.07.1-.994.699.07zm-2.687-.27-1.988-.199.1-.994 1.988.199zm-3.977-.397-1.987-.199.1-.994 1.987.199zm-3.975-.399-1.988-.199.1-.994 1.988.199zm-3.977-.398-1.988-.199.1-.994 1.988.199zm-3.977-.399-1.988-.199.1-.994 1.988.199zm-3.975-.398-1.988-.199.1-.994 1.988.199zm-3.977-.397-1.988-.199.1-.994 1.988.199zm-3.976-.399-1.988-.199.1-.994 1.988.199zm-3.977-.398-1.987-.199.1-.994 1.987.199zm-3.975-.399-1.988-.199.1-.994 1.988.199zm-3.977-.398-1.988-.199.1-.994 1.988.199zm-3.977-.399-1.988-.198.1-.994 1.988.198zm-3.975-.397-1.988-.199.1-.994 1.988.199zm-3.977-.399-1.988-.199.1-.994 1.988.199zm-3.976-.398-1.988-.199.1-.994 1.988.199zm-3.977-.398-1.987-.199.1-.994 1.987.199zm-3.975-.399-1.988-.199.1-.994 1.988.199zm-3.977-.397-1.988-.199.1-.994 1.988.199zm-3.976-.399-1.988-.199.1-.994 1.988.199zm-3.976-.398-1.988-.199.1-.994 1.988.199zm-3.977-.399-1.988-.199.1-.994 1.988.199zm-3.976-.398-1.988-.199.1-.994 1.988.199zm-3.977-.398-1.988-.199.1-.994 1.988.199zm-3.975-.398-1.988-.199.1-.994 1.988.199zm-3.977-.398-1.988-.199.1-.994 1.988.199zm-3.976-.399-1.988-.199.1-.994 1.988.199zm-3.977-.398-1.987-.199.1-.994 1.987.199zm-3.976-.399-1.988-.198.1-.994 1.988.198zm-3.976-.397-1.988-.199.1-.994 1.988.199zm-3.977-.399-1.988-.199.1-.994 1.988.199zm-3.975-.398-1.988-.199.1-.994 1.988.199zm-3.977-.398-1.988-.199.1-.994 1.988.199zm-3.976-.399-1.988-.199.1-.994 1.988.199zm-3.977-.397-1.987-.199.1-.994 1.987.199zm-3.976-.399-1.988-.199.1-.994 1.988.199zm-3.976-.398-1.988-.199.1-.994 1.988.199zm-3.977-.399-1.988-.199.1-.994 1.988.199zm-3.975-.398-1.988-.199.1-.994 1.988.199zm-3.977-.398-1.988-.199.1-.994 1.988.199zm-3.976-.398-1.988-.199.1-.994 1.988.199zm-3.977-.398-1.987-.199.1-.994 1.987.199zm-3.976-.399-1.988-.199.1-.994 1.988.199zm-3.976-.398-1.988-.199.1-.994 1.988.199zm-3.977-.399-1.988-.198.1-.994 1.988.198zm-3.975-.397-1.988-.199.1-.994 1.988.199zm-3.977-.399-1.988-.199.1-.994 1.988.199zm-3.976-.398-1.988-.199.1-.994 1.988.199zm-3.977-.399-1.988-.199.1-.994 1.988.199zm-3.976-.398-1.988-.199.1-.994 1.988.199zm-3.976-.397-1.988-.199.1-.994 1.988.199zm-3.977-.399-1.988-.199.1-.994 1.988.199zm-3.976-.398-1.987-.199.1-.994 1.987.199zm-3.976-.399-1.988-.199.1-.994 1.988.199zm-3.976-.398-1.988-.199.1-.994 1.988.199zm-3.977-.398-1.988-.199.1-.994 1.988.199zm-3.976-.398-1.988-.199.1-.994 1.988.199zm-3.976-.399-1.988-.199.1-.994 1.988.199z"/><path d="m335.447 324.208h.958v.999h-.958z" transform="matrix(.995 .0999 -.0999 .995 34.1214 -31.9369)"/><path d="m100.418 339.741h.957v.999h-.957z" transform="matrix(.995 .1 -.1 .995 34.5329 -8.3848)"/><path d="m330.574 363.746-.7-.07.1-.994.7.07zm-2.688-.269-1.988-.199.1-.994 1.988.199zm-3.977-.399-1.988-.198.1-.994 1.988.198zm-3.975-.397-1.988-.199.1-.994 1.988.199zm-3.977-.399-1.988-.199.1-.994 1.988.199zm-3.977-.398-1.988-.199.1-.994 1.988.199zm-3.976-.398-1.987-.199.1-.994 1.987.199zm-3.976-.399-1.988-.198.1-.994 1.988.198zm-3.976-.397-1.988-.199.1-.994 1.988.199zm-3.977-.399-1.988-.199.1-.994 1.988.199zm-3.975-.398-1.988-.199.1-.994 1.988.199zm-3.977-.399-1.988-.199.1-.994 1.988.199zm-3.977-.398-1.988-.199.1-.994 1.988.199zm-3.976-.398-1.987-.199.1-.994 1.987.199zm-3.976-.398-1.988-.199.1-.994 1.988.199zm-3.976-.398-1.988-.199.1-.994 1.988.199zm-3.977-.399-1.988-.199.1-.994 1.988.199zm-3.975-.398-1.988-.199.1-.994 1.988.199zm-3.977-.398-1.988-.199.1-.994 1.988.199zm-3.976-.398-1.988-.199.1-.994 1.988.199zm-3.977-.399-1.987-.199.1-.994 1.987.199zm-3.976-.398-1.988-.199.1-.994 1.988.199zm-3.976-.398-1.988-.199.1-.994 1.988.199zm-3.977-.399-1.988-.198.1-.994 1.988.198zm-3.975-.397-1.988-.199.1-.994 1.988.199zm-3.977-.399-1.988-.199.1-.994 1.988.199zm-3.976-.398-1.988-.199.1-.994 1.988.199zm-3.977-.399-1.987-.199.1-.994 1.987.199zm-3.976-.398-1.988-.198.1-.994 1.988.198zm-3.976-.398-1.988-.199.1-.994 1.988.199zm-3.977-.398-1.988-.199.1-.994 1.988.199zm-3.975-.398-1.988-.199.1-.994 1.988.199zm-3.977-.399-1.988-.199.1-.994 1.988.199zm-3.976-.398-1.988-.199.1-.994 1.988.199zm-3.977-.398-1.987-.199.1-.994 1.987.199zm-3.976-.398-1.988-.199.1-.994 1.988.199zm-3.976-.399-1.988-.199.1-.994 1.988.199zm-3.977-.398-1.988-.199.1-.994 1.988.199zm-3.975-.399-1.988-.199.1-.994 1.988.199zm-3.977-.398-1.988-.198.1-.994 1.988.198zm-3.976-.397-1.988-.199.1-.994 1.988.199zm-3.977-.399-1.987-.199.1-.994 1.987.199zm-3.976-.398-1.988-.199.1-.994 1.988.199zm-3.976-.399-1.988-.199.1-.994 1.988.199zm-3.977-.398-1.988-.198.1-.994 1.988.198zm-3.976-.398-1.987-.199.1-.994 1.987.199zm-3.976-.398-1.988-.199.1-.994 1.988.199zm-3.976-.399-1.988-.199.1-.994 1.988.199zm-3.977-.398-1.988-.199.1-.994 1.988.199zm-3.976-.398-1.988-.199.1-.994 1.988.199zm-3.976-.398-1.988-.199.1-.994 1.988.199zm-3.977-.398-1.988-.199.1-.994 1.988.199zm-3.976-.399-1.987-.199.1-.994 1.987.199zm-3.976-.398-1.988-.199.1-.994 1.988.199zm-3.976-.399-1.988-.199.1-.994 1.988.199zm-3.977-.397-1.988-.199.1-.994 1.988.199zm-3.976-.399-1.988-.199.1-.994 1.988.199zm-3.976-.398-1.988-.199.1-.994 1.988.199z"/><path d="m331.572 362.892h.957v.999h-.957z" transform="matrix(.995 .1 -.1 .995 38.0071 -31.3862)"/><path d="m96.545 378.425h.957v.999h-.957z" transform="matrix(.995 .1 -.1 .995 38.3823 -7.8035)"/><path d="m326.699 402.43-.699-.07.1-.994.699.07zm-2.687-.27-1.988-.198.1-.994 1.988.198zm-3.976-.397-1.988-.199.1-.994 1.988.199zm-3.976-.398-1.988-.199.1-.994 1.988.199zm-3.977-.399-1.988-.199.1-.994 1.988.199zm-3.977-.398-1.988-.199.1-.994 1.988.199zm-3.975-.399-1.988-.198.1-.994 1.988.198zm-3.977-.397-1.988-.199.1-.994 1.988.199zm-3.976-.399-1.988-.199.1-.994 1.988.199zm-3.977-.398-1.987-.199.1-.994 1.987.199zm-3.975-.399-1.988-.199.1-.994 1.988.199zm-3.977-.398-1.988-.198.1-.994 1.988.198zm-3.977-.397-1.988-.199.1-.994 1.988.199zm-3.975-.399-1.988-.199.1-.994 1.988.199zm-3.977-.398-1.988-.199.1-.994 1.988.199zm-3.976-.399-1.988-.199.1-.994 1.988.199zm-3.977-.398-1.987-.198.1-.994 1.987.198zm-3.975-.398-1.988-.199.1-.994 1.988.199zm-3.977-.398-1.988-.199.1-.994 1.988.199zm-3.977-.399-1.988-.199.1-.994 1.988.199zm-3.975-.398-1.988-.199.1-.994 1.988.199zm-3.977-.397-1.988-.199.1-.994 1.988.199zm-3.976-.399-1.988-.199.1-.994 1.988.199zm-3.977-.398-1.987-.199.1-.994 1.987.199zm-3.975-.399-1.988-.199.1-.994 1.988.199zm-3.977-.398-1.988-.199.1-.994 1.988.199zm-3.977-.398-1.988-.199.1-.994 1.988.199zm-3.976-.398-1.987-.199.1-.994 1.987.199zm-3.976-.399-1.988-.199.1-.994 1.988.199zm-3.976-.398-1.988-.199.1-.994 1.988.199zm-3.977-.398-1.988-.199.1-.994 1.988.199zm-3.975-.398-1.988-.199.1-.994 1.988.199zm-3.977-.398-1.988-.199.1-.994 1.988.199zm-3.976-.399-1.988-.199.1-.994 1.988.199zm-3.977-.398-1.987-.199.1-.994 1.987.199zm-3.976-.399-1.988-.199.1-.994 1.988.199zm-3.976-.397-1.988-.199.1-.994 1.988.199zm-3.977-.399-1.988-.199.1-.994 1.988.199zm-3.975-.398-1.988-.199.1-.994 1.988.199zm-3.977-.398-1.988-.199.1-.994 1.988.199zm-3.976-.399-1.988-.198.1-.994 1.988.198zm-3.977-.397-1.987-.199.1-.994 1.987.199zm-3.976-.399-1.988-.199.1-.994 1.988.199zm-3.976-.398-1.988-.199.1-.994 1.988.199zm-3.977-.399-1.988-.199.1-.994 1.988.199zm-3.975-.398-1.988-.198.1-.994 1.988.198zm-3.977-.398-1.988-.199.1-.994 1.988.199zm-3.976-.398-1.988-.199.1-.994 1.988.199zm-3.977-.398-1.988-.199.1-.994 1.988.199zm-3.976-.399-1.988-.199.1-.994 1.988.199zm-3.976-.398-1.988-.198.1-.994 1.988.198zm-3.977-.398-1.988-.199.1-.994 1.988.199zm-3.976-.398-1.987-.199.1-.994 1.987.199zm-3.976-.399-1.988-.199.1-.994 1.988.199zm-3.976-.398-1.988-.199.1-.994 1.988.199zm-3.977-.398-1.988-.198.1-.994 1.988.198zm-3.976-.398-1.988-.199.1-.994 1.988.199zm-3.976-.398-1.988-.199.1-.994 1.988.199z"/><path d="m327.699 401.577h.957v.999h-.957z" transform="matrix(.995 .1 -.1 .995 41.8565 -30.8049)"/><path d="m92.67 417.11h.957v.999h-.957z" transform="matrix(.995 .1 -.1 .995 42.2317 -7.222)"/><path d="m322.825 441.115-.7-.07.1-.994.7.07zm-2.688-.27-1.988-.199.1-.994 1.988.199zm-3.977-.398-1.988-.198.1-.994 1.988.198zm-3.975-.398-1.988-.199.1-.994 1.988.199zm-3.977-.398-1.988-.199.1-.994 1.988.199zm-3.977-.399-1.988-.199.1-.994 1.988.199zm-3.976-.398-1.987-.199.1-.994 1.987.199zm-3.976-.398-1.988-.199.1-.994 1.988.199zm-3.976-.398-1.988-.199.1-.994 1.988.199zm-3.977-.399-1.988-.199.1-.994 1.988.199zm-3.975-.398-1.988-.199.1-.994 1.988.199zm-3.977-.398-1.988-.199.1-.994 1.988.199zm-3.977-.398-1.988-.199.1-.994 1.988.199zm-3.976-.398-1.987-.199.1-.994 1.987.199zm-3.976-.399-1.988-.199.1-.994 1.988.199zm-3.976-.398-1.988-.199.1-.994 1.988.199zm-3.977-.399-1.988-.198.1-.994 1.988.198zm-3.975-.397-1.988-.199.1-.994 1.988.199zm-3.977-.399-1.988-.199.1-.994 1.988.199zm-3.977-.398-1.988-.199.1-.994 1.988.199zm-3.976-.398-1.987-.199.1-.994 1.987.199zm-3.976-.399-1.988-.198.1-.994 1.988.198zm-3.976-.397-1.988-.199.1-.994 1.988.199zm-3.977-.399-1.988-.199.1-.994 1.988.199zm-3.975-.398-1.988-.199.1-.994 1.988.199zm-3.977-.399-1.988-.199.1-.994 1.988.199zm-3.977-.398-1.988-.198.1-.994 1.988.198zm-3.976-.398-1.987-.199.1-.994 1.987.199zm-3.976-.398-1.988-.199.1-.994 1.988.199zm-3.976-.398-1.988-.199.1-.994 1.988.199zm-3.977-.399-1.988-.199.1-.994 1.988.199zm-3.975-.397-1.988-.199.1-.994 1.988.199zm-3.977-.399-1.988-.199.1-.994 1.988.199zm-3.976-.398-1.988-.199.1-.994 1.988.199zm-3.977-.399-1.987-.199.1-.994 1.987.199zm-3.976-.398-1.988-.199.1-.994 1.988.199zm-3.976-.398-1.988-.199.1-.994 1.988.199zm-3.977-.398-1.988-.199.1-.994 1.988.199zm-3.975-.398-1.988-.199.1-.994 1.988.199zm-3.977-.399-1.988-.199.1-.994 1.988.199zm-3.976-.398-1.988-.199.1-.994 1.988.199zm-3.977-.398-1.987-.199.1-.994 1.987.199zm-3.976-.398-1.988-.199.1-.994 1.988.199zm-3.976-.399-1.988-.199.1-.994 1.988.199zm-3.977-.398-1.988-.199.1-.994 1.988.199zm-3.976-.398-1.987-.198.1-.994 1.987.198zm-3.976-.398-1.988-.199.1-.994 1.988.199zm-3.976-.398-1.988-.199.1-.994 1.988.199zm-3.977-.399-1.988-.199.1-.994 1.988.199zm-3.976-.398-1.988-.199.1-.994 1.988.199zm-3.976-.399-1.988-.198.1-.994 1.988.198zm-3.977-.397-1.988-.199.1-.994 1.988.199zm-3.976-.399-1.987-.199.1-.994 1.987.199zm-3.976-.398-1.988-.199.1-.994 1.988.199zm-3.976-.398-1.988-.199.1-.994 1.988.199zm-3.977-.399-1.988-.198.1-.994 1.988.198zm-3.976-.397-1.988-.199.1-.994 1.988.199zm-3.976-.399-1.988-.199.1-.994 1.988.199z"/><path d="m323.824 440.261h.957v.999h-.957z" transform="matrix(.9951 .099 -.099 .9951 45.2277 -29.9403)"/><path d="m88.795 455.794h.957v.999h-.957z" transform="matrix(.9951 .099 -.099 .9951 45.6109 -6.5964)"/><path d="m318.951 479.799-.7-.07.1-.994.7.07zm-2.688-.269-1.988-.199.1-.994 1.988.199zm-3.977-.399-1.988-.198.1-.994 1.988.198zm-3.975-.397-1.988-.199.1-.994 1.988.199zm-3.977-.399-1.988-.199.1-.994 1.988.199zm-3.977-.398-1.988-.199.1-.994 1.988.199zm-3.976-.399-1.987-.199.1-.994 1.987.199zm-3.976-.397-1.988-.199.1-.994 1.988.199zm-3.976-.399-1.988-.199.1-.994 1.988.199zm-3.977-.398-1.988-.199.1-.994 1.988.199zm-3.975-.398-1.988-.199.1-.994 1.988.199zm-3.977-.399-1.988-.199.1-.994 1.988.199zm-3.977-.397-1.988-.199.1-.994 1.988.199zm-3.976-.399-1.987-.199.1-.994 1.987.199zm-3.976-.398-1.988-.199.1-.994 1.988.199zm-3.976-.399-1.988-.199.1-.994 1.988.199zm-3.977-.398-1.988-.198.1-.994 1.988.198zm-3.975-.398-1.988-.199.1-.994 1.988.199zm-3.977-.398-1.988-.199.1-.994 1.988.199zm-3.977-.398-1.988-.199.1-.994 1.988.199zm-3.976-.399-1.987-.199.1-.994 1.987.199zm-3.976-.398-1.988-.198.1-.994 1.988.198zm-3.976-.398-1.988-.199.1-.994 1.988.199zm-3.977-.398-1.988-.199.1-.994 1.988.199zm-3.975-.399-1.988-.199.1-.994 1.988.199zm-3.977-.398-1.988-.199.1-.994 1.988.199zm-3.977-.399-1.988-.198.1-.994 1.988.198zm-3.975-.397-1.988-.199.1-.994 1.988.199zm-3.977-.398-1.988-.199.1-.994 1.988.199zm-3.976-.399-1.988-.199.1-.994 1.988.199zm-3.977-.398-1.988-.199.1-.994 1.988.199zm-3.975-.398-1.988-.199.1-.994 1.988.199zm-3.977-.398-1.988-.199.1-.994 1.988.199zm-3.977-.399-1.988-.199.1-.994 1.988.199zm-3.976-.398-1.987-.199.1-.994 1.987.199zm-3.976-.398-1.988-.199.1-.994 1.988.199zm-3.976-.398-1.988-.199.1-.994 1.988.199zm-3.977-.398-1.988-.199.1-.994 1.988.199zm-3.975-.399-1.988-.199.1-.994 1.988.199zm-3.977-.398-1.988-.199.1-.994 1.988.199zm-3.976-.399-1.988-.199.1-.994 1.988.199zm-3.977-.397-1.987-.199.1-.994 1.987.199zm-3.976-.399-1.988-.199.1-.994 1.988.199zm-3.976-.398-1.988-.199.1-.994 1.988.199zm-3.977-.398-1.988-.199.1-.994 1.988.199zm-3.976-.399-1.987-.198.1-.994 1.987.198zm-3.976-.397-1.988-.199.1-.994 1.988.199zm-3.976-.399-1.988-.199.1-.994 1.988.199zm-3.977-.398-1.988-.199.1-.994 1.988.199zm-3.976-.399-1.988-.199.1-.994 1.988.199zm-3.976-.398-1.988-.198.1-.994 1.988.198zm-3.977-.398-1.988-.199.1-.994 1.988.199zm-3.976-.398-1.987-.199.1-.994 1.987.199zm-3.976-.398-1.988-.199.1-.994 1.988.199zm-3.976-.399-1.988-.199.1-.994 1.988.199zm-3.977-.398-1.988-.198.1-.994 1.988.198zm-3.976-.398-1.988-.199.1-.994 1.988.199zm-3.976-.398-1.988-.199.1-.994 1.988.199z"/><path d="m319.949 478.945h.957v.999h-.957z" transform="matrix(.9951 .099 -.099 .9951 49.0384 -29.3666)"/></g></svg>